{"glyphs":{"0":{"ha":935,"x_min":103,"x_max":833,"o":"m 103 429 q 153 657 103 559 q 289 808 203 755 q 479 861 374 861 q 751 744 668 861 q 832 432 833 627 q 784 204 831 304 q 653 48 736 104 q 463 -8 570 -8 q 258 52 338 -8 q 140 210 178 111 q 103 429 103 309 m 721 430 q 660 688 721 589 q 473 786 600 786 q 335 744 394 786 q 245 622 277 701 q 214 437 214 543 q 241 253 214 338 q 327 117 269 168 q 470 65 385 65 q 605 110 549 65 q 691 237 661 155 q 721 430 721 319 z "},"1":{"ha":620,"x_min":86,"x_max":395,"o":"m 277 724 q 100 663 176 681 l 86 731 q 181 769 129 744 q 279 822 234 795 q 342 867 323 850 l 395 852 l 395 0 l 277 0 l 277 724 z "},"2":{"ha":859,"x_min":106,"x_max":760,"o":"m 760 92 l 760 0 l 123 0 l 106 58 q 346 225 236 135 q 526 414 456 315 q 595 607 595 513 q 547 735 595 688 q 408 782 498 782 q 276 752 342 782 q 169 677 210 723 l 121 742 q 192 804 148 774 q 295 853 236 834 q 420 873 353 873 q 587 839 522 873 q 681 746 652 804 q 711 613 711 688 q 657 428 711 522 q 509 248 603 334 q 293 89 415 162 l 760 92 z "},"3":{"ha":770,"x_min":71,"x_max":694,"o":"m 442 377 q 577 336 520 372 q 664 247 634 301 q 694 130 694 193 q 637 -46 694 36 q 475 -179 580 -129 q 233 -229 370 -229 q 101 -216 170 -229 l 100 -138 q 203 -148 154 -148 q 400 -110 315 -148 q 532 -11 486 -73 q 578 122 578 52 q 555 224 578 179 q 484 294 532 269 q 363 320 435 320 q 315 317 337 320 l 239 299 l 215 378 q 340 414 281 391 q 480 505 431 448 q 529 627 529 562 q 479 743 529 704 q 348 781 430 781 q 116 699 222 781 l 71 764 q 196 838 119 805 q 357 871 273 871 q 500 844 435 871 q 603 765 564 818 q 641 637 641 713 q 585 484 641 552 q 442 377 530 416 z "},"4":{"ha":891,"x_min":71,"x_max":844,"o":"m 844 0 l 673 0 l 673 -255 l 561 -255 l 561 0 l 98 0 l 71 54 q 272 471 100 112 q 467 886 444 830 l 507 886 l 578 843 q 424 527 555 791 q 242 165 292 264 l 197 87 l 561 87 l 570 418 l 673 418 l 673 87 l 844 87 l 844 0 z "},"5":{"ha":829,"x_min":138,"x_max":726,"o":"m 138 -151 q 195 -154 170 -154 q 407 -113 311 -154 q 557 -1 503 -72 q 612 154 612 69 q 374 374 612 374 q 171 333 283 374 l 143 350 l 184 849 l 693 849 l 682 751 l 273 751 l 240 428 q 428 459 343 459 q 589 423 522 459 q 691 320 656 387 q 726 161 726 253 q 666 -28 726 62 q 490 -177 605 -119 q 222 -236 375 -235 q 138 -227 165 -236 l 138 -151 z "},"6":{"ha":934,"x_min":114,"x_max":817,"o":"m 704 990 q 463 869 569 956 q 298 667 357 782 q 237 435 239 552 q 258 250 235 332 q 335 118 281 168 q 475 68 389 68 q 601 109 549 68 q 677 214 652 150 q 703 347 703 278 q 677 480 703 429 q 610 556 652 532 q 518 580 568 580 q 437 567 473 580 q 381 539 400 555 l 349 607 q 426 649 373 630 q 541 668 478 668 q 689 627 627 668 q 784 518 751 586 q 817 370 817 450 q 777 183 817 271 q 655 43 736 96 q 461 -11 574 -11 q 276 43 355 -11 q 156 187 197 96 q 114 387 114 278 q 197 704 114 559 q 409 943 279 850 q 673 1063 538 1037 l 704 990 z "},"7":{"ha":838,"x_min":102,"x_max":763,"o":"m 102 770 l 102 862 l 738 862 l 763 831 l 377 -224 l 256 -189 q 638 769 368 50 l 102 770 z "},"8":{"ha":880,"x_min":106,"x_max":789,"o":"m 789 263 q 743 112 789 174 q 620 20 696 50 q 452 -11 543 -11 q 284 18 363 -11 q 156 107 205 46 q 106 261 106 168 q 163 421 106 346 q 331 545 220 496 q 196 659 244 597 q 147 812 147 721 q 189 949 147 892 q 300 1033 231 1005 q 455 1061 370 1061 q 606 1032 540 1061 q 710 949 673 1003 q 747 825 747 896 q 725 717 747 771 q 657 615 703 663 q 545 536 612 568 q 672 459 621 495 q 756 374 724 423 q 789 263 789 326 m 252 819 q 280 722 252 765 q 354 647 309 680 q 467 577 399 614 q 558 631 517 595 q 621 715 598 667 q 644 816 644 763 q 621 902 644 865 q 554 961 597 940 q 452 982 511 982 q 349 963 395 982 q 278 906 304 943 q 252 819 252 869 m 457 69 q 567 91 517 69 q 647 155 618 113 q 677 252 677 196 q 645 348 677 307 q 566 418 613 389 q 437 489 519 448 l 409 503 q 270 409 324 471 q 216 270 216 347 q 278 122 216 175 q 457 69 340 69 z "},"9":{"ha":947,"x_min":122,"x_max":821,"o":"m 481 857 q 666 804 589 857 q 782 660 743 750 q 821 460 821 569 q 736 126 821 279 q 518 -126 650 -26 q 250 -253 385 -225 l 211 -183 q 464 -52 353 -149 q 636 170 574 45 q 701 410 698 294 q 646 675 704 574 q 465 777 589 777 q 342 739 395 777 q 263 644 290 702 q 236 527 236 587 q 262 382 236 442 q 332 291 288 322 q 431 260 376 260 q 509 271 479 260 q 566 298 538 281 l 593 233 q 521 191 571 209 q 401 172 471 172 q 252 217 315 172 q 155 334 189 261 q 122 490 122 407 q 165 679 122 595 q 289 810 208 762 q 481 857 370 857 z "},"\u0000":{"ha":0,"x_min":0,"x_max":0,"o":""},"\r":{"ha":0,"x_min":0,"x_max":0,"o":""}," ":{"ha":444,"x_min":0,"x_max":0,"o":""},"A":{"ha":945,"x_min":22,"x_max":923,"o":"m 699 283 l 248 283 l 144 0 l 22 0 l 421 1043 l 534 1043 l 923 0 l 799 0 l 699 283 m 669 370 l 504 841 l 478 922 l 452 840 l 280 370 l 669 370 z "},"Á":{"ha":945,"x_min":22,"x_max":923,"o":"m 699 283 l 248 283 l 144 0 l 22 0 l 421 1043 l 534 1043 l 923 0 l 799 0 l 699 283 m 669 370 l 504 841 l 478 922 l 452 840 l 280 370 l 669 370 m 393 1126 q 514 1233 419 1147 q 628 1339 609 1318 l 703 1270 q 576 1162 649 1216 q 441 1078 503 1108 l 393 1126 z "},"Ă":{"ha":945,"x_min":22,"x_max":923,"o":"m 699 283 l 248 283 l 144 0 l 22 0 l 421 1043 l 534 1043 l 923 0 l 799 0 l 699 283 m 669 370 l 504 841 l 478 922 l 452 840 l 280 370 l 669 370 m 323 1334 q 336 1279 325 1308 q 380 1226 347 1250 q 473 1203 414 1203 q 565 1227 532 1203 q 611 1281 599 1251 q 625 1334 624 1311 l 702 1334 l 703 1320 q 674 1217 703 1264 q 593 1142 645 1170 q 473 1114 541 1114 q 351 1141 403 1114 q 271 1216 299 1169 q 243 1318 243 1262 q 244 1334 243 1329 l 323 1334 z "},"Ǎ":{"ha":945,"x_min":22,"x_max":923,"o":"m 699 283 l 248 283 l 144 0 l 22 0 l 421 1043 l 534 1043 l 923 0 l 799 0 l 699 283 m 669 370 l 504 841 l 478 922 l 452 840 l 280 370 l 669 370 m 422 1344 l 524 1344 l 713 1143 l 639 1112 l 473 1263 l 305 1112 l 235 1142 l 422 1344 z "},"Â":{"ha":945,"x_min":22,"x_max":923,"o":"m 699 283 l 248 283 l 144 0 l 22 0 l 421 1043 l 534 1043 l 923 0 l 799 0 l 699 283 m 669 370 l 504 841 l 478 922 l 452 840 l 280 370 l 669 370 m 422 1344 l 524 1344 l 713 1143 l 639 1112 l 473 1263 l 305 1112 l 235 1142 l 422 1344 z "},"Ä":{"ha":945,"x_min":22,"x_max":923,"o":"m 699 283 l 248 283 l 144 0 l 22 0 l 421 1043 l 534 1043 l 923 0 l 799 0 l 699 283 m 669 370 l 504 841 l 478 922 l 452 840 l 280 370 l 669 370 m 235 1219 q 246 1263 235 1244 q 277 1293 258 1282 q 317 1303 296 1303 q 370 1284 352 1303 q 387 1230 387 1264 q 363 1169 387 1192 q 305 1146 340 1146 q 255 1165 275 1146 q 235 1219 235 1185 m 559 1219 q 571 1263 559 1244 q 602 1293 583 1282 q 642 1303 621 1303 q 695 1284 677 1303 q 713 1230 713 1264 q 689 1169 713 1192 q 631 1146 665 1146 q 580 1165 600 1146 q 559 1219 559 1185 z "},"À":{"ha":945,"x_min":22,"x_max":923,"o":"m 699 283 l 248 283 l 144 0 l 22 0 l 421 1043 l 534 1043 l 923 0 l 799 0 l 699 283 m 669 370 l 504 841 l 478 922 l 452 840 l 280 370 l 669 370 m 507 1078 q 369 1164 448 1107 q 244 1270 290 1221 l 319 1339 q 433 1233 338 1318 q 555 1126 528 1147 l 507 1078 z "},"Ā":{"ha":945,"x_min":22,"x_max":923,"o":"m 699 283 l 248 283 l 144 0 l 22 0 l 421 1043 l 534 1043 l 923 0 l 799 0 l 699 283 m 669 370 l 504 841 l 478 922 l 452 840 l 280 370 l 669 370 m 659 1266 l 659 1182 l 291 1182 l 291 1266 l 659 1266 z "},"Ą":{"ha":945,"x_min":22,"x_max":934,"o":"m 825 -271 q 934 -243 880 -269 l 934 -305 q 864 -336 907 -326 q 775 -347 820 -347 q 657 -312 703 -347 q 612 -210 612 -277 q 671 -93 612 -147 q 808 0 730 -39 l 799 0 l 699 283 l 248 283 l 144 0 l 22 0 l 421 1043 l 534 1043 l 923 0 l 898 0 q 776 -87 829 -38 q 723 -189 723 -136 q 750 -252 723 -234 q 825 -271 777 -271 m 669 370 l 504 841 l 478 922 l 452 840 l 280 370 l 669 370 z "},"Å":{"ha":945,"x_min":22,"x_max":923,"o":"m 699 283 l 248 283 l 144 0 l 22 0 l 404 996 q 300 1055 337 1012 q 263 1164 263 1099 q 293 1263 263 1224 q 371 1320 323 1302 q 474 1337 418 1337 q 627 1293 571 1337 q 683 1167 683 1249 q 647 1058 683 1100 q 550 1000 610 1016 l 923 0 l 799 0 l 699 283 m 344 1166 q 378 1085 344 1114 q 474 1055 413 1055 q 568 1082 532 1055 q 603 1165 603 1109 q 568 1244 603 1217 q 473 1273 532 1272 q 381 1248 418 1273 q 344 1166 344 1223 m 669 370 l 504 841 l 478 922 l 452 840 l 280 370 l 669 370 z "},"Ã":{"ha":945,"x_min":22,"x_max":923,"o":"m 699 283 l 248 283 l 144 0 l 22 0 l 421 1043 l 534 1043 l 923 0 l 799 0 l 699 283 m 669 370 l 504 841 l 478 922 l 452 840 l 280 370 l 669 370 m 195 1198 q 239 1258 210 1230 q 304 1302 268 1286 q 376 1318 341 1318 q 426 1311 405 1318 q 462 1292 448 1303 q 496 1261 477 1280 q 538 1227 521 1238 q 581 1217 556 1217 q 651 1238 618 1217 q 707 1288 683 1259 l 753 1250 q 709 1190 739 1217 q 644 1147 680 1163 q 572 1131 607 1131 q 506 1145 532 1131 q 452 1189 480 1160 q 410 1223 428 1212 q 366 1235 391 1235 q 297 1213 329 1235 q 240 1162 264 1192 l 195 1198 z "},"Æ":{"ha":1255,"x_min":-37,"x_max":1210,"o":"m 1210 90 l 1210 0 l 569 0 l 569 283 l 226 283 l 91 0 l -37 0 l 458 1032 l 1160 1032 l 1160 943 l 684 943 l 684 576 l 1040 576 l 1040 488 l 684 488 l 684 90 l 1210 90 m 569 369 l 569 956 l 548 956 l 267 369 l 569 369 z "},"Ǽ":{"ha":1255,"x_min":-37,"x_max":1210,"o":"m 610 1126 q 731 1233 636 1147 q 845 1339 826 1318 l 920 1270 q 793 1162 866 1216 q 659 1078 720 1108 l 610 1126 m 1210 90 l 1210 0 l 569 0 l 569 283 l 226 283 l 91 0 l -37 0 l 458 1032 l 1160 1032 l 1160 943 l 684 943 l 684 576 l 1040 576 l 1040 488 l 684 488 l 684 90 l 1210 90 m 569 369 l 569 956 l 548 956 l 267 369 l 569 369 z "},"B":{"ha":916,"x_min":140,"x_max":842,"o":"m 202 1032 q 312 1036 243 1032 q 433 1041 375 1041 q 685 978 600 1041 q 770 800 770 916 q 753 695 770 747 q 700 605 736 644 q 605 552 663 566 q 722 516 668 549 q 809 428 777 483 q 842 307 842 373 q 747 72 842 153 q 435 -9 652 -9 q 272 -3 393 -9 q 200 0 218 -1 l 140 0 l 140 1033 l 202 1032 m 489 572 q 614 634 569 578 q 659 783 659 690 q 411 960 659 960 q 328 957 377 960 q 254 951 279 955 l 254 575 q 361 572 280 572 l 489 572 m 448 75 q 655 125 586 75 q 725 294 725 176 q 661 441 725 393 q 477 490 597 488 l 386 490 q 254 488 275 490 l 254 88 q 448 75 325 75 z "},"Ḃ":{"ha":916,"x_min":140,"x_max":842,"o":"m 362 1221 q 374 1264 362 1244 q 405 1295 386 1284 q 445 1306 425 1306 q 498 1286 480 1306 q 516 1232 516 1265 q 492 1171 516 1194 q 434 1147 468 1147 q 383 1167 404 1147 q 362 1221 362 1187 m 202 1032 q 312 1036 243 1032 q 433 1041 375 1041 q 685 978 600 1041 q 770 800 770 916 q 753 695 770 747 q 700 605 736 644 q 605 552 663 566 q 722 516 668 549 q 809 428 777 483 q 842 307 842 373 q 747 72 842 153 q 435 -9 652 -9 q 272 -3 393 -9 q 200 0 218 -1 l 140 0 l 140 1033 l 202 1032 m 489 572 q 614 634 569 578 q 659 783 659 690 q 411 960 659 960 q 328 957 377 960 q 254 951 279 955 l 254 575 q 361 572 280 572 l 489 572 m 448 75 q 655 125 586 75 q 725 294 725 176 q 661 441 725 393 q 477 490 597 488 l 386 490 q 254 488 275 490 l 254 88 q 448 75 325 75 z "},"C":{"ha":901,"x_min":73,"x_max":814,"o":"m 545 1043 q 683 1034 629 1043 q 787 1010 738 1025 l 814 1004 l 798 902 l 779 909 q 686 938 737 926 q 551 949 635 949 q 360 899 443 949 q 232 751 278 848 q 186 519 186 654 q 229 293 186 393 q 353 137 272 193 q 544 80 433 80 q 658 90 604 80 q 752 114 712 100 q 812 141 791 127 l 813 43 l 781 33 q 672 1 724 12 q 539 -11 620 -11 q 293 54 399 -11 q 130 238 188 119 q 73 511 73 356 q 136 797 73 677 q 306 980 199 918 q 545 1043 414 1043 z "},"Ć":{"ha":901,"x_min":73,"x_max":814,"o":"m 545 1043 q 683 1034 629 1043 q 787 1010 738 1025 l 814 1004 l 798 902 l 779 909 q 686 938 737 926 q 551 949 635 949 q 360 899 443 949 q 232 751 278 848 q 186 519 186 654 q 229 293 186 393 q 353 137 272 193 q 544 80 433 80 q 658 90 604 80 q 752 114 712 100 q 812 141 791 127 l 813 43 l 781 33 q 672 1 724 12 q 539 -11 620 -11 q 293 54 399 -11 q 130 238 188 119 q 73 511 73 356 q 136 797 73 677 q 306 980 199 918 q 545 1043 414 1043 m 463 1126 q 585 1233 490 1147 q 699 1339 680 1318 l 774 1270 q 647 1162 720 1216 q 512 1078 574 1108 l 463 1126 z "},"Č":{"ha":901,"x_min":73,"x_max":814,"o":"m 545 1043 q 683 1034 629 1043 q 787 1010 738 1025 l 814 1004 l 798 902 l 779 909 q 686 938 737 926 q 551 949 635 949 q 360 899 443 949 q 232 751 278 848 q 186 519 186 654 q 229 293 186 393 q 353 137 272 193 q 544 80 433 80 q 658 90 604 80 q 752 114 712 100 q 812 141 791 127 l 813 43 l 781 33 q 672 1 724 12 q 539 -11 620 -11 q 293 54 399 -11 q 130 238 188 119 q 73 511 73 356 q 136 797 73 677 q 306 980 199 918 q 545 1043 414 1043 m 378 1344 l 544 1207 l 712 1344 l 774 1314 l 595 1131 l 494 1131 l 313 1313 l 378 1344 z "},"Ç":{"ha":901,"x_min":73,"x_max":814,"o":"m 813 43 q 781 32 802 40 q 684 3 727 14 q 576 -10 640 -7 q 597 -129 597 -56 q 596 -157 597 -148 q 548 -276 591 -238 q 441 -315 505 -315 q 386 -309 415 -315 q 346 -296 357 -304 l 354 -222 q 379 -231 363 -227 q 415 -234 396 -234 q 484 -207 458 -234 q 512 -122 509 -180 q 514 -83 514 -101 q 505 -9 514 -41 q 276 65 374 -1 q 125 248 178 132 q 73 511 73 363 q 136 797 73 677 q 306 980 199 918 q 545 1043 414 1043 q 683 1034 629 1043 q 787 1010 738 1025 l 814 1004 l 798 902 l 779 909 q 686 938 737 926 q 551 949 635 949 q 360 899 443 949 q 232 751 278 848 q 186 519 186 654 q 229 293 186 393 q 353 137 272 193 q 544 80 433 80 q 658 90 604 80 q 752 114 712 100 q 812 141 791 127 l 813 43 z "},"Ĉ":{"ha":901,"x_min":73,"x_max":814,"o":"m 545 1043 q 683 1034 629 1043 q 787 1010 738 1025 l 814 1004 l 798 902 l 779 909 q 686 938 737 926 q 551 949 635 949 q 360 899 443 949 q 232 751 278 848 q 186 519 186 654 q 229 293 186 393 q 353 137 272 193 q 544 80 433 80 q 658 90 604 80 q 752 114 712 100 q 812 141 791 127 l 813 43 l 781 33 q 672 1 724 12 q 539 -11 620 -11 q 293 54 399 -11 q 130 238 188 119 q 73 511 73 356 q 136 797 73 677 q 306 980 199 918 q 545 1043 414 1043 m 493 1344 l 594 1344 l 784 1143 l 709 1112 l 544 1263 l 376 1112 l 305 1142 l 493 1344 z "},"Ċ":{"ha":901,"x_min":73,"x_max":814,"o":"m 467 1221 q 479 1264 467 1244 q 510 1295 491 1284 q 550 1306 530 1306 q 603 1286 585 1306 q 621 1232 621 1265 q 597 1171 621 1194 q 539 1147 573 1147 q 488 1167 509 1147 q 467 1221 467 1187 m 545 1043 q 683 1034 629 1043 q 787 1010 738 1025 l 814 1004 l 798 902 l 779 909 q 686 938 737 926 q 551 949 635 949 q 360 899 443 949 q 232 751 278 848 q 186 519 186 654 q 229 293 186 393 q 353 137 272 193 q 544 80 433 80 q 658 90 604 80 q 752 114 712 100 q 812 141 791 127 l 813 43 l 781 33 q 672 1 724 12 q 539 -11 620 -11 q 293 54 399 -11 q 130 238 188 119 q 73 511 73 356 q 136 797 73 677 q 306 980 199 918 q 545 1043 414 1043 z "},"D":{"ha":1003,"x_min":140,"x_max":939,"o":"m 140 1032 q 221 1033 212 1032 q 323 1037 250 1033 q 450 1042 418 1042 q 722 983 612 1042 q 885 814 831 925 q 939 546 939 703 q 881 252 939 378 q 711 58 823 127 q 444 -11 600 -11 q 337 -7 418 -11 q 215 -1 269 -2 q 140 0 188 0 l 140 1032 m 451 75 q 646 126 563 76 q 774 278 728 176 q 819 534 819 380 q 721 857 819 755 q 423 958 623 958 q 254 949 348 958 l 254 87 q 350 78 294 81 q 451 75 407 74 z "},"Ǳ":{"ha":1891,"x_min":140,"x_max":1830,"o":"m 140 1032 q 221 1033 212 1032 q 323 1037 250 1033 q 450 1042 418 1042 q 722 983 612 1042 q 885 814 831 925 q 939 546 939 703 q 881 252 939 378 q 711 58 823 127 q 444 -11 600 -11 q 337 -7 418 -11 q 215 -1 269 -2 q 140 0 188 0 l 140 1032 m 451 75 q 646 126 563 76 q 774 278 728 176 q 819 534 819 380 q 721 857 819 755 q 423 958 623 958 q 254 949 348 958 l 254 87 q 350 78 294 81 q 451 75 407 74 m 1623 865 l 1681 941 l 1131 941 l 1131 1032 l 1806 1032 l 1830 989 l 1284 162 l 1226 90 l 1802 90 l 1802 0 l 1099 0 l 1075 45 l 1623 865 z "},"Ǆ":{"ha":1891,"x_min":140,"x_max":1830,"o":"m 140 1032 q 221 1033 212 1032 q 323 1037 250 1033 q 450 1042 418 1042 q 722 983 612 1042 q 885 814 831 925 q 939 546 939 703 q 881 252 939 378 q 711 58 823 127 q 444 -11 600 -11 q 337 -7 418 -11 q 215 -1 269 -2 q 140 0 188 0 l 140 1032 m 451 75 q 646 126 563 76 q 774 278 728 176 q 819 534 819 380 q 721 857 819 755 q 423 958 623 958 q 254 949 348 958 l 254 87 q 350 78 294 81 q 451 75 407 74 m 1623 865 l 1681 941 l 1131 941 l 1131 1032 l 1806 1032 l 1830 989 l 1284 162 l 1226 90 l 1802 90 l 1802 0 l 1099 0 l 1075 45 l 1623 865 m 1303 1344 l 1468 1207 l 1636 1344 l 1699 1314 l 1519 1131 l 1419 1131 l 1237 1313 l 1303 1344 z "},"Ð":{"ha":1003,"x_min":42,"x_max":939,"o":"m 450 1042 q 722 983 612 1042 q 885 814 831 925 q 939 546 939 703 q 881 252 939 378 q 711 58 823 127 q 444 -11 600 -11 q 337 -7 418 -11 q 215 -1 269 -2 q 140 0 188 0 l 140 500 l 42 500 l 42 577 l 140 577 l 140 1032 q 221 1033 212 1032 q 323 1037 250 1033 q 450 1042 418 1042 m 819 534 q 721 857 819 755 q 423 958 623 958 q 254 949 348 958 l 254 577 l 549 577 l 549 500 l 254 500 l 254 87 q 350 78 294 81 q 451 75 407 74 q 646 126 563 76 q 774 278 728 176 q 819 534 819 380 z "},"Ď":{"ha":1003,"x_min":140,"x_max":939,"o":"m 319 1344 l 484 1207 l 652 1344 l 715 1314 l 535 1131 l 435 1131 l 253 1313 l 319 1344 m 140 1032 q 221 1033 212 1032 q 323 1037 250 1033 q 450 1042 418 1042 q 722 983 612 1042 q 885 814 831 925 q 939 546 939 703 q 881 252 939 378 q 711 58 823 127 q 444 -11 600 -11 q 337 -7 418 -11 q 215 -1 269 -2 q 140 0 188 0 l 140 1032 m 451 75 q 646 126 563 76 q 774 278 728 176 q 819 534 819 380 q 721 857 819 755 q 423 958 623 958 q 254 949 348 958 l 254 87 q 350 78 294 81 q 451 75 407 74 z "},"Đ":{"ha":1003,"x_min":42,"x_max":939,"o":"m 450 1042 q 722 983 612 1042 q 885 814 831 925 q 939 546 939 703 q 881 252 939 378 q 711 58 823 127 q 444 -11 600 -11 q 337 -7 418 -11 q 215 -1 269 -2 q 140 0 188 0 l 140 500 l 42 500 l 42 577 l 140 577 l 140 1032 q 221 1033 212 1032 q 323 1037 250 1033 q 450 1042 418 1042 m 819 534 q 721 857 819 755 q 423 958 623 958 q 254 949 348 958 l 254 577 l 549 577 l 549 500 l 254 500 l 254 87 q 350 78 294 81 q 451 75 407 74 q 646 126 563 76 q 774 278 728 176 q 819 534 819 380 z "},"Ḋ":{"ha":1003,"x_min":140,"x_max":939,"o":"m 408 1221 q 419 1264 408 1244 q 451 1295 431 1284 q 490 1306 470 1306 q 544 1286 526 1306 q 562 1232 562 1265 q 537 1171 562 1194 q 479 1147 513 1147 q 428 1167 449 1147 q 408 1221 408 1187 m 140 1032 q 221 1033 212 1032 q 323 1037 250 1033 q 450 1042 418 1042 q 722 983 612 1042 q 885 814 831 925 q 939 546 939 703 q 881 252 939 378 q 711 58 823 127 q 444 -11 600 -11 q 337 -7 418 -11 q 215 -1 269 -2 q 140 0 188 0 l 140 1032 m 451 75 q 646 126 563 76 q 774 278 728 176 q 819 534 819 380 q 721 857 819 755 q 423 958 623 958 q 254 949 348 958 l 254 87 q 350 78 294 81 q 451 75 407 74 z "},"ǲ":{"ha":1730,"x_min":140,"x_max":1670,"o":"m 140 1032 q 221 1033 212 1032 q 323 1037 250 1033 q 450 1042 418 1042 q 722 983 612 1042 q 885 814 831 925 q 939 546 939 703 q 881 252 939 378 q 711 58 823 127 q 444 -11 600 -11 q 337 -7 418 -11 q 215 -1 269 -2 q 140 0 188 0 l 140 1032 m 451 75 q 646 126 563 76 q 774 278 728 176 q 819 534 819 380 q 721 857 819 755 q 423 958 623 958 q 254 949 348 958 l 254 87 q 350 78 294 81 q 451 75 407 74 m 1517 686 l 1099 686 l 1099 773 l 1650 773 l 1670 723 l 1267 149 l 1219 83 l 1663 83 l 1663 0 l 1089 0 l 1066 44 l 1517 686 z "},"ǅ":{"ha":1730,"x_min":140,"x_max":1670,"o":"m 140 1032 q 221 1033 212 1032 q 323 1037 250 1033 q 450 1042 418 1042 q 722 983 612 1042 q 885 814 831 925 q 939 546 939 703 q 881 252 939 378 q 711 58 823 127 q 444 -11 600 -11 q 337 -7 418 -11 q 215 -1 269 -2 q 140 0 188 0 l 140 1032 m 451 75 q 646 126 563 76 q 774 278 728 176 q 819 534 819 380 q 721 857 819 755 q 423 958 623 958 q 254 949 348 958 l 254 87 q 350 78 294 81 q 451 75 407 74 m 1517 686 l 1099 686 l 1099 773 l 1650 773 l 1670 723 l 1267 149 l 1219 83 l 1663 83 l 1663 0 l 1089 0 l 1066 44 l 1517 686 m 1377 983 l 1555 1161 l 1625 1131 l 1428 897 l 1326 897 l 1125 1132 l 1191 1161 l 1377 983 z "},"E":{"ha":816,"x_min":140,"x_max":771,"o":"m 722 1032 l 722 943 l 254 943 l 254 578 l 595 578 l 595 489 l 254 489 l 254 90 l 771 90 l 771 0 l 140 0 l 140 1032 l 722 1032 z "},"É":{"ha":816,"x_min":140,"x_max":771,"o":"m 375 1126 q 496 1233 401 1147 q 610 1339 591 1318 l 686 1270 q 558 1162 631 1216 q 424 1078 486 1108 l 375 1126 m 722 1032 l 722 943 l 254 943 l 254 578 l 595 578 l 595 489 l 254 489 l 254 90 l 771 90 l 771 0 l 140 0 l 140 1032 l 722 1032 z "},"Ĕ":{"ha":816,"x_min":140,"x_max":771,"o":"m 307 1334 q 319 1279 308 1308 q 363 1226 330 1250 q 456 1203 397 1203 q 548 1227 515 1203 q 594 1281 582 1251 q 608 1334 607 1311 l 685 1334 l 686 1320 q 657 1217 686 1264 q 576 1142 628 1170 q 456 1114 524 1114 q 334 1141 386 1114 q 254 1216 282 1169 q 227 1318 227 1262 q 227 1334 227 1329 l 307 1334 m 722 1032 l 722 943 l 254 943 l 254 578 l 595 578 l 595 489 l 254 489 l 254 90 l 771 90 l 771 0 l 140 0 l 140 1032 l 722 1032 z "},"Ě":{"ha":816,"x_min":140,"x_max":771,"o":"m 291 1344 l 456 1207 l 625 1344 l 687 1314 l 507 1131 l 407 1131 l 225 1313 l 291 1344 m 722 1032 l 722 943 l 254 943 l 254 578 l 595 578 l 595 489 l 254 489 l 254 90 l 771 90 l 771 0 l 140 0 l 140 1032 l 722 1032 z "},"Ê":{"ha":816,"x_min":140,"x_max":771,"o":"m 722 1032 l 722 943 l 254 943 l 254 578 l 595 578 l 595 489 l 254 489 l 254 90 l 771 90 l 771 0 l 140 0 l 140 1032 l 722 1032 m 406 1344 l 507 1344 l 696 1143 l 622 1112 l 456 1263 l 288 1112 l 218 1142 l 406 1344 z "},"Ë":{"ha":816,"x_min":140,"x_max":771,"o":"m 218 1219 q 229 1263 218 1244 q 260 1293 241 1282 q 300 1303 279 1303 q 353 1284 335 1303 q 370 1230 370 1264 q 347 1169 370 1192 q 288 1146 323 1146 q 238 1165 258 1146 q 218 1219 218 1185 m 543 1219 q 554 1263 543 1244 q 585 1293 566 1282 q 625 1303 604 1303 q 678 1284 660 1303 q 696 1230 696 1264 q 672 1169 696 1192 q 614 1146 648 1146 q 563 1165 583 1146 q 543 1219 543 1185 m 722 1032 l 722 943 l 254 943 l 254 578 l 595 578 l 595 489 l 254 489 l 254 90 l 771 90 l 771 0 l 140 0 l 140 1032 l 722 1032 z "},"Ė":{"ha":816,"x_min":140,"x_max":771,"o":"m 380 1221 q 392 1264 380 1244 q 423 1295 404 1284 q 463 1306 442 1306 q 516 1286 498 1306 q 534 1232 534 1265 q 510 1171 534 1194 q 452 1147 486 1147 q 400 1167 421 1147 q 380 1221 380 1187 m 722 1032 l 722 943 l 254 943 l 254 578 l 595 578 l 595 489 l 254 489 l 254 90 l 771 90 l 771 0 l 140 0 l 140 1032 l 722 1032 z "},"È":{"ha":816,"x_min":140,"x_max":771,"o":"m 490 1078 q 352 1164 431 1107 q 227 1270 273 1221 l 302 1339 q 416 1233 321 1318 q 538 1126 511 1147 l 490 1078 m 722 1032 l 722 943 l 254 943 l 254 578 l 595 578 l 595 489 l 254 489 l 254 90 l 771 90 l 771 0 l 140 0 l 140 1032 l 722 1032 z "},"Ē":{"ha":816,"x_min":140,"x_max":771,"o":"m 642 1266 l 642 1182 l 273 1182 l 273 1266 l 642 1266 m 722 1032 l 722 943 l 254 943 l 254 578 l 595 578 l 595 489 l 254 489 l 254 90 l 771 90 l 771 0 l 140 0 l 140 1032 l 722 1032 z "},"Ę":{"ha":816,"x_min":140,"x_max":771,"o":"m 718 0 q 591 -86 646 -37 q 536 -189 536 -136 q 563 -252 536 -234 q 637 -271 590 -271 q 745 -243 692 -269 l 745 -305 q 676 -336 720 -325 q 589 -347 633 -347 q 470 -314 515 -347 q 425 -214 425 -281 q 454 -129 425 -170 q 529 -54 484 -87 q 626 0 575 -21 l 140 0 l 140 1032 l 722 1032 l 722 943 l 254 943 l 254 578 l 595 578 l 595 489 l 254 489 l 254 90 l 771 90 l 771 0 l 718 0 z "},"F":{"ha":736,"x_min":140,"x_max":717,"o":"m 717 1032 l 717 943 l 254 943 l 254 563 l 600 563 l 600 474 l 254 474 l 254 0 l 140 0 l 140 1032 l 717 1032 z "},"Ḟ":{"ha":736,"x_min":140,"x_max":717,"o":"m 374 1221 q 386 1264 374 1244 q 417 1295 398 1284 q 457 1306 437 1306 q 510 1286 492 1306 q 528 1232 528 1265 q 504 1171 528 1194 q 446 1147 480 1147 q 395 1167 416 1147 q 374 1221 374 1187 m 717 1032 l 717 943 l 254 943 l 254 563 l 600 563 l 600 474 l 254 474 l 254 0 l 140 0 l 140 1032 l 717 1032 z "},"G":{"ha":978,"x_min":75,"x_max":896,"o":"m 896 509 l 896 62 q 869 57 883 61 q 827 42 854 52 q 701 4 764 18 q 545 -11 637 -11 q 294 56 400 -11 q 131 241 187 123 q 75 509 75 359 q 137 800 75 680 q 309 982 200 921 q 553 1043 417 1043 q 675 1036 627 1043 q 779 1015 724 1029 q 838 1002 809 1007 l 833 899 q 712 938 780 923 q 546 953 644 953 q 368 903 448 953 q 241 756 288 853 q 194 522 194 659 q 235 292 194 393 q 355 134 276 191 q 543 77 433 77 q 685 91 618 77 q 785 123 751 105 l 785 419 l 571 426 l 571 509 l 896 509 z "},"Ğ":{"ha":978,"x_min":75,"x_max":896,"o":"m 406 1334 q 418 1279 407 1308 q 463 1226 429 1250 q 555 1203 496 1203 q 647 1227 614 1203 q 693 1281 681 1251 q 707 1334 706 1311 l 784 1334 l 785 1320 q 756 1217 785 1264 q 675 1142 727 1170 q 555 1114 623 1114 q 433 1141 485 1114 q 353 1216 381 1169 q 326 1318 326 1262 q 326 1334 326 1329 l 406 1334 m 896 509 l 896 62 q 869 57 883 61 q 827 42 854 52 q 701 4 764 18 q 545 -11 637 -11 q 294 56 400 -11 q 131 241 187 123 q 75 509 75 359 q 137 800 75 680 q 309 982 200 921 q 553 1043 417 1043 q 675 1036 627 1043 q 779 1015 724 1029 q 838 1002 809 1007 l 833 899 q 712 938 780 923 q 546 953 644 953 q 368 903 448 953 q 241 756 288 853 q 194 522 194 659 q 235 292 194 393 q 355 134 276 191 q 543 77 433 77 q 685 91 618 77 q 785 123 751 105 l 785 419 l 571 426 l 571 509 l 896 509 z "},"Ǧ":{"ha":978,"x_min":75,"x_max":896,"o":"m 896 509 l 896 62 q 869 57 883 61 q 827 42 854 52 q 701 4 764 18 q 545 -11 637 -11 q 294 56 400 -11 q 131 241 187 123 q 75 509 75 359 q 137 800 75 680 q 309 982 200 921 q 553 1043 417 1043 q 675 1036 627 1043 q 779 1015 724 1029 q 838 1002 809 1007 l 833 899 q 712 938 780 923 q 546 953 644 953 q 368 903 448 953 q 241 756 288 853 q 194 522 194 659 q 235 292 194 393 q 355 134 276 191 q 543 77 433 77 q 685 91 618 77 q 785 123 751 105 l 785 419 l 571 426 l 571 509 l 896 509 m 389 1344 l 555 1207 l 723 1344 l 785 1314 l 606 1131 l 505 1131 l 323 1313 l 389 1344 z "},"Ĝ":{"ha":978,"x_min":75,"x_max":896,"o":"m 896 509 l 896 62 q 869 57 883 61 q 827 42 854 52 q 701 4 764 18 q 545 -11 637 -11 q 294 56 400 -11 q 131 241 187 123 q 75 509 75 359 q 137 800 75 680 q 309 982 200 921 q 553 1043 417 1043 q 675 1036 627 1043 q 779 1015 724 1029 q 838 1002 809 1007 l 833 899 q 712 938 780 923 q 546 953 644 953 q 368 903 448 953 q 241 756 288 853 q 194 522 194 659 q 235 292 194 393 q 355 134 276 191 q 543 77 433 77 q 685 91 618 77 q 785 123 751 105 l 785 419 l 571 426 l 571 509 l 896 509 m 504 1344 l 605 1344 l 795 1143 l 720 1112 l 555 1263 l 387 1112 l 316 1142 l 504 1344 z "},"Ģ":{"ha":978,"x_min":75,"x_max":896,"o":"m 494 -345 q 519 -301 509 -332 q 530 -234 530 -270 q 516 -172 530 -199 q 481 -139 501 -144 l 481 -113 l 563 -66 q 608 -116 589 -78 q 627 -207 627 -155 q 612 -286 627 -250 q 576 -347 597 -322 q 534 -380 554 -371 l 494 -358 l 494 -345 m 896 509 l 896 62 q 869 57 883 61 q 827 42 854 52 q 701 4 764 18 q 545 -11 637 -11 q 294 56 400 -11 q 131 241 187 123 q 75 509 75 359 q 137 800 75 680 q 309 982 200 921 q 553 1043 417 1043 q 675 1036 627 1043 q 779 1015 724 1029 q 838 1002 809 1007 l 833 899 q 712 938 780 923 q 546 953 644 953 q 368 903 448 953 q 241 756 288 853 q 194 522 194 659 q 235 292 194 393 q 355 134 276 191 q 543 77 433 77 q 685 91 618 77 q 785 123 751 105 l 785 419 l 571 426 l 571 509 l 896 509 z "},"Ġ":{"ha":978,"x_min":75,"x_max":896,"o":"m 479 1221 q 491 1264 479 1244 q 522 1295 503 1284 q 562 1306 541 1306 q 615 1286 597 1306 q 633 1232 633 1265 q 609 1171 633 1194 q 551 1147 585 1147 q 499 1167 520 1147 q 479 1221 479 1187 m 896 509 l 896 62 q 869 57 883 61 q 827 42 854 52 q 701 4 764 18 q 545 -11 637 -11 q 294 56 400 -11 q 131 241 187 123 q 75 509 75 359 q 137 800 75 680 q 309 982 200 921 q 553 1043 417 1043 q 675 1036 627 1043 q 779 1015 724 1029 q 838 1002 809 1007 l 833 899 q 712 938 780 923 q 546 953 644 953 q 368 903 448 953 q 241 756 288 853 q 194 522 194 659 q 235 292 194 393 q 355 134 276 191 q 543 77 433 77 q 685 91 618 77 q 785 123 751 105 l 785 419 l 571 426 l 571 509 l 896 509 z "},"Ḡ":{"ha":978,"x_min":75,"x_max":896,"o":"m 896 509 l 896 62 q 869 57 883 61 q 827 42 854 52 q 701 4 764 18 q 545 -11 637 -11 q 294 56 400 -11 q 131 241 187 123 q 75 509 75 359 q 137 800 75 680 q 309 982 200 921 q 553 1043 417 1043 q 675 1036 627 1043 q 779 1015 724 1029 q 838 1002 809 1007 l 833 899 q 712 938 780 923 q 546 953 644 953 q 368 903 448 953 q 241 756 288 853 q 194 522 194 659 q 235 292 194 393 q 355 134 276 191 q 543 77 433 77 q 685 91 618 77 q 785 123 751 105 l 785 419 l 571 426 l 571 509 l 896 509 m 741 1266 l 741 1182 l 372 1182 l 372 1266 l 741 1266 z "},"H":{"ha":1046,"x_min":140,"x_max":906,"o":"m 254 1032 l 254 570 l 791 570 l 791 1032 l 906 1032 l 906 0 l 791 0 l 791 481 l 254 481 l 254 0 l 140 0 l 140 1032 l 254 1032 z "},"Ħ":{"ha":1051,"x_min":7,"x_max":1057,"o":"m 1057 736 l 911 736 l 911 0 l 797 0 l 797 477 l 254 477 l 254 0 l 140 0 l 140 736 l 7 736 l 7 809 l 140 809 l 140 1032 l 254 1032 l 254 809 l 797 809 l 797 1032 l 911 1032 l 911 809 l 1057 809 l 1057 736 m 797 736 l 254 736 l 254 565 l 797 565 l 797 736 z "},"Ĥ":{"ha":1046,"x_min":140,"x_max":906,"o":"m 254 1032 l 254 570 l 791 570 l 791 1032 l 906 1032 l 906 0 l 791 0 l 791 481 l 254 481 l 254 0 l 140 0 l 140 1032 l 254 1032 m 473 1344 l 574 1344 l 764 1143 l 689 1112 l 524 1263 l 355 1112 l 285 1142 l 473 1344 z "},"I":{"ha":416,"x_min":150,"x_max":266,"o":"m 266 1032 l 266 0 l 150 0 l 150 1032 l 266 1032 z "},"Ĳ":{"ha":886,"x_min":150,"x_max":731,"o":"m 266 1032 l 266 0 l 150 0 l 150 1032 l 266 1032 m 389 -165 q 514 -98 458 -146 q 591 21 570 -50 q 610 143 606 70 q 614 334 614 216 l 614 376 l 614 1032 l 731 1032 l 731 364 l 731 261 q 729 139 731 190 q 718 44 726 87 q 658 -92 704 -34 q 550 -183 612 -149 q 425 -225 488 -216 l 389 -165 z "},"Í":{"ha":416,"x_min":127,"x_max":438,"o":"m 266 1032 l 266 0 l 150 0 l 150 1032 l 266 1032 m 127 1126 q 249 1233 154 1147 q 363 1339 344 1318 l 438 1270 q 311 1162 384 1216 q 176 1078 238 1108 l 127 1126 z "},"Ĭ":{"ha":416,"x_min":-22,"x_max":437,"o":"m 266 1032 l 266 0 l 150 0 l 150 1032 l 266 1032 m 58 1334 q 71 1279 60 1308 q 115 1226 82 1250 q 208 1203 149 1203 q 300 1227 267 1203 q 346 1281 334 1251 q 359 1334 359 1311 l 437 1334 l 437 1320 q 409 1217 437 1264 q 328 1142 380 1170 q 208 1114 275 1114 q 86 1141 138 1114 q 6 1216 34 1169 q -22 1318 -22 1262 q -21 1334 -22 1329 l 58 1334 z "},"Ǐ":{"ha":416,"x_min":-23,"x_max":439,"o":"m 266 1032 l 266 0 l 150 0 l 150 1032 l 266 1032 m 43 1344 l 208 1207 l 376 1344 l 439 1314 l 259 1131 l 159 1131 l -23 1313 l 43 1344 z "},"Î":{"ha":416,"x_min":-31,"x_max":448,"o":"m 266 1032 l 266 0 l 150 0 l 150 1032 l 266 1032 m 157 1344 l 258 1344 l 448 1143 l 374 1112 l 208 1263 l 40 1112 l -31 1142 l 157 1344 z "},"Ï":{"ha":416,"x_min":-31,"x_max":448,"o":"m 266 1032 l 266 0 l 150 0 l 150 1032 l 266 1032 m -31 1219 q -19 1263 -31 1244 q 12 1293 -7 1282 q 52 1303 31 1303 q 104 1284 87 1303 q 122 1230 122 1264 q 98 1169 122 1192 q 40 1146 75 1146 q -11 1165 9 1146 q -31 1219 -31 1185 m 294 1219 q 306 1263 294 1244 q 336 1293 317 1282 q 376 1303 355 1303 q 430 1284 412 1303 q 448 1230 448 1264 q 424 1169 448 1192 q 366 1146 399 1146 q 315 1165 335 1146 q 294 1219 294 1185 z "},"İ":{"ha":416,"x_min":132,"x_max":286,"o":"m 266 1032 l 266 0 l 150 0 l 150 1032 l 266 1032 m 132 1221 q 143 1264 132 1244 q 175 1295 155 1284 q 214 1306 194 1306 q 268 1286 250 1306 q 286 1232 286 1265 q 261 1171 286 1194 q 203 1147 237 1147 q 152 1167 173 1147 q 132 1221 132 1187 z "},"Ì":{"ha":416,"x_min":-21,"x_max":290,"o":"m 266 1032 l 266 0 l 150 0 l 150 1032 l 266 1032 m 241 1078 q 104 1164 182 1107 q -21 1270 25 1221 l 54 1339 q 168 1233 73 1318 q 290 1126 263 1147 l 241 1078 z "},"Ī":{"ha":416,"x_min":26,"x_max":394,"o":"m 266 1032 l 266 0 l 150 0 l 150 1032 l 266 1032 m 394 1266 l 394 1182 l 26 1182 l 26 1266 l 394 1266 z "},"Į":{"ha":416,"x_min":23,"x_max":349,"o":"m 239 -271 q 349 -243 295 -269 l 349 -305 q 281 -336 323 -326 q 195 -347 239 -347 q 107 -330 146 -347 q 45 -279 68 -313 q 23 -201 23 -246 q 66 -88 23 -142 q 164 0 109 -34 l 150 0 l 150 1032 l 266 1032 l 266 0 l 252 0 q 169 -77 203 -31 q 134 -178 134 -124 q 163 -248 134 -224 q 239 -271 193 -271 z "},"Ĩ":{"ha":416,"x_min":-70,"x_max":488,"o":"m 266 1032 l 266 0 l 150 0 l 150 1032 l 266 1032 m -70 1198 q -26 1258 -56 1230 q 39 1302 3 1286 q 111 1318 76 1318 q 161 1311 140 1318 q 197 1292 182 1303 q 231 1261 212 1280 q 273 1227 256 1238 q 316 1217 291 1217 q 386 1238 353 1217 q 442 1288 418 1259 l 488 1250 q 444 1190 473 1217 q 378 1147 415 1163 q 307 1131 342 1131 q 241 1145 267 1131 q 186 1189 215 1160 q 144 1223 163 1212 q 100 1235 126 1235 q 32 1213 64 1235 q -25 1162 -1 1192 l -70 1198 z "},"J":{"ha":471,"x_min":-26,"x_max":315,"o":"m -26 -165 q 99 -98 43 -146 q 176 21 155 -50 q 195 143 191 70 q 199 334 199 216 l 199 376 l 199 1032 l 315 1032 l 315 364 l 315 261 q 313 139 315 190 q 302 44 311 87 q 242 -92 288 -34 q 134 -183 196 -149 q 9 -225 73 -216 l -26 -165 z "},"Ĵ":{"ha":471,"x_min":-26,"x_max":495,"o":"m -26 -165 q 99 -98 43 -146 q 176 21 155 -50 q 195 143 191 70 q 199 334 199 216 l 199 376 l 199 1032 l 315 1032 l 315 364 l 315 261 q 313 139 315 190 q 302 44 311 87 q 242 -92 288 -34 q 134 -183 196 -149 q 9 -225 73 -216 l -26 -165 m 204 1344 l 305 1344 l 495 1143 l 420 1112 l 255 1263 l 87 1112 l 16 1142 l 204 1344 z "},"K":{"ha":925,"x_min":140,"x_max":866,"o":"m 866 0 l 733 0 q 716 31 727 10 q 691 77 701 58 q 614 202 660 132 q 503 372 569 273 q 458 438 488 394 q 410 511 429 482 l 254 331 l 254 0 l 140 0 l 140 1032 l 254 1032 l 254 475 l 712 1032 l 848 1032 l 481 594 q 532 517 497 569 q 588 434 566 466 q 730 221 674 307 q 821 75 785 136 l 866 0 z "},"Ķ":{"ha":925,"x_min":140,"x_max":866,"o":"m 412 -345 q 437 -301 427 -332 q 448 -234 448 -270 q 434 -172 448 -199 q 399 -139 419 -144 l 399 -113 l 481 -66 q 526 -116 507 -78 q 545 -207 545 -155 q 530 -286 545 -250 q 494 -347 515 -322 q 452 -380 472 -371 l 412 -358 l 412 -345 m 866 0 l 733 0 q 716 31 727 10 q 691 77 701 58 q 614 202 660 132 q 503 372 569 273 q 458 438 488 394 q 410 511 429 482 l 254 331 l 254 0 l 140 0 l 140 1032 l 254 1032 l 254 475 l 712 1032 l 848 1032 l 481 594 q 532 517 497 569 q 588 434 566 466 q 730 221 674 307 q 821 75 785 136 l 866 0 z "},"L":{"ha":723,"x_min":140,"x_max":683,"o":"m 256 1032 l 256 90 l 683 90 l 683 0 l 140 0 l 140 1032 l 256 1032 z "},"Ǉ":{"ha":1194,"x_min":140,"x_max":1038,"o":"m 256 1032 l 256 90 l 683 90 l 683 0 l 140 0 l 140 1032 l 256 1032 m 696 -165 q 822 -98 766 -146 q 899 21 878 -50 q 918 143 913 70 q 922 334 922 216 l 922 376 l 922 1032 l 1038 1032 l 1038 364 l 1038 261 q 1036 139 1038 190 q 1025 44 1034 87 q 965 -92 1011 -34 q 857 -183 919 -149 q 732 -225 795 -216 l 696 -165 z "},"Ĺ":{"ha":723,"x_min":116,"x_max":683,"o":"m 116 1126 q 237 1233 142 1147 q 351 1339 332 1318 l 427 1270 q 299 1162 372 1216 q 165 1078 227 1108 l 116 1126 m 256 1032 l 256 90 l 683 90 l 683 0 l 140 0 l 140 1032 l 256 1032 z "},"Ľ":{"ha":723,"x_min":140,"x_max":683,"o":"m 256 1032 l 256 90 l 683 90 l 683 0 l 140 0 l 140 1032 l 256 1032 m 474 736 q 482 758 477 747 q 506 840 498 799 q 515 949 515 880 q 504 1030 515 988 q 479 1090 494 1072 l 486 1115 l 576 1143 q 606 1081 596 1124 q 616 981 616 1037 q 593 821 616 896 q 536 703 570 745 l 479 721 l 474 736 z "},"Ļ":{"ha":723,"x_min":140,"x_max":683,"o":"m 343 -345 q 368 -301 357 -332 q 379 -234 379 -270 q 365 -172 379 -199 q 330 -139 350 -144 l 330 -113 l 412 -66 q 457 -116 438 -78 q 476 -207 476 -155 q 461 -286 476 -250 q 425 -347 446 -322 q 382 -380 403 -371 l 343 -358 l 343 -345 m 256 1032 l 256 90 l 683 90 l 683 0 l 140 0 l 140 1032 l 256 1032 z "},"Ŀ":{"ha":906,"x_min":140,"x_max":775,"o":"m 617 566 q 629 614 617 592 q 660 648 640 635 q 700 661 679 661 q 755 635 736 661 q 775 572 775 610 q 764 526 775 547 q 733 493 752 505 q 692 481 714 481 q 655 492 673 481 q 628 522 638 503 q 617 566 617 542 m 256 1032 l 256 90 l 683 90 l 683 0 l 140 0 l 140 1032 l 256 1032 z "},"ǈ":{"ha":1104,"x_min":140,"x_max":1009,"o":"m 256 1032 l 256 90 l 683 90 l 683 0 l 140 0 l 140 1032 l 256 1032 m 659 -251 q 694 -260 669 -256 q 737 -264 718 -264 q 836 -208 805 -264 q 866 -28 866 -152 l 866 772 l 979 772 l 979 16 q 922 -258 979 -172 q 749 -344 865 -344 q 696 -341 726 -344 q 659 -335 665 -338 l 659 -251 m 853 1019 q 865 1063 853 1043 q 896 1094 877 1082 q 937 1105 916 1105 q 990 1084 972 1105 q 1009 1029 1009 1063 q 998 983 1009 1003 q 967 952 986 963 q 926 941 947 941 q 874 962 895 941 q 853 1019 853 983 z "},"Ł":{"ha":723,"x_min":8,"x_max":683,"o":"m 683 90 l 683 0 l 140 0 l 140 423 l 36 385 l 8 456 l 140 505 l 140 1032 l 256 1032 l 256 547 l 547 654 l 574 583 l 256 466 l 256 90 l 683 90 z "},"M":{"ha":1305,"x_min":101,"x_max":1206,"o":"m 374 1032 l 602 361 l 653 168 l 703 361 l 918 1032 l 1073 1032 l 1206 0 l 1090 0 l 1018 642 l 988 947 l 904 642 l 685 -10 l 622 -10 l 392 642 l 300 947 l 274 642 l 212 0 l 101 -1 l 211 1032 l 374 1032 z "},"Ṁ":{"ha":1305,"x_min":101,"x_max":1206,"o":"m 576 1221 q 588 1264 576 1244 q 620 1295 600 1284 q 659 1306 639 1306 q 712 1286 694 1306 q 730 1232 730 1265 q 706 1171 730 1194 q 648 1147 682 1147 q 597 1167 618 1147 q 576 1221 576 1187 m 374 1032 l 602 361 l 653 168 l 703 361 l 918 1032 l 1073 1032 l 1206 0 l 1090 0 l 1018 642 l 988 947 l 904 642 l 685 -10 l 622 -10 l 392 642 l 300 947 l 274 642 l 212 0 l 101 -1 l 211 1032 l 374 1032 z "},"N":{"ha":1053,"x_min":139,"x_max":914,"o":"m 914 1032 l 914 0 l 809 0 l 343 701 l 237 881 l 245 658 l 245 0 l 139 0 l 139 1032 l 245 1032 l 721 313 l 817 146 l 809 357 l 809 1032 l 914 1032 z "},"Ǌ":{"ha":1524,"x_min":139,"x_max":1369,"o":"m 914 1032 l 914 0 l 809 0 l 343 701 l 237 881 l 245 658 l 245 0 l 139 0 l 139 1032 l 245 1032 l 721 313 l 817 146 l 809 357 l 809 1032 l 914 1032 m 1027 -165 q 1152 -98 1096 -146 q 1229 21 1208 -50 q 1248 143 1244 70 q 1252 334 1252 216 l 1252 376 l 1252 1032 l 1369 1032 l 1369 364 l 1369 261 q 1366 139 1369 190 q 1356 44 1364 87 q 1295 -92 1341 -34 q 1187 -183 1249 -149 q 1063 -225 1126 -216 l 1027 -165 z "},"Ń":{"ha":1053,"x_min":139,"x_max":914,"o":"m 452 1126 q 574 1233 479 1147 q 688 1339 669 1318 l 763 1270 q 636 1162 709 1216 q 501 1078 563 1108 l 452 1126 m 914 1032 l 914 0 l 809 0 l 343 701 l 237 881 l 245 658 l 245 0 l 139 0 l 139 1032 l 245 1032 l 721 313 l 817 146 l 809 357 l 809 1032 l 914 1032 z "},"Ň":{"ha":1053,"x_min":139,"x_max":914,"o":"m 368 1344 l 534 1207 l 702 1344 l 764 1314 l 585 1131 l 484 1131 l 302 1313 l 368 1344 m 914 1032 l 914 0 l 809 0 l 343 701 l 237 881 l 245 658 l 245 0 l 139 0 l 139 1032 l 245 1032 l 721 313 l 817 146 l 809 357 l 809 1032 l 914 1032 z "},"Ņ":{"ha":1053,"x_min":139,"x_max":914,"o":"m 454 -345 q 479 -301 469 -332 q 490 -234 490 -270 q 476 -172 490 -199 q 441 -139 461 -144 l 441 -113 l 523 -66 q 568 -116 549 -78 q 587 -207 587 -155 q 572 -286 587 -250 q 536 -347 557 -322 q 494 -380 514 -371 l 454 -358 l 454 -345 m 914 1032 l 914 0 l 809 0 l 343 701 l 237 881 l 245 658 l 245 0 l 139 0 l 139 1032 l 245 1032 l 721 313 l 817 146 l 809 357 l 809 1032 l 914 1032 z "},"Ṅ":{"ha":1053,"x_min":139,"x_max":914,"o":"m 914 1032 l 914 0 l 809 0 l 343 701 l 237 881 l 245 658 l 245 0 l 139 0 l 139 1032 l 245 1032 l 721 313 l 817 146 l 809 357 l 809 1032 l 914 1032 m 457 1221 q 469 1264 457 1244 q 500 1295 481 1284 q 540 1306 519 1306 q 593 1286 575 1306 q 611 1232 611 1265 q 587 1171 611 1194 q 529 1147 563 1147 q 478 1167 498 1147 q 457 1221 457 1187 z "},"Ŋ":{"ha":1072,"x_min":139,"x_max":928,"o":"m 928 1032 l 928 275 q 922 117 928 183 q 896 -5 916 51 q 819 -136 873 -79 q 694 -228 764 -193 q 557 -273 624 -263 l 528 -219 q 659 -159 595 -200 q 765 -70 724 -119 q 806 24 806 -20 l 343 705 l 245 872 l 252 659 l 252 0 l 140 0 l 139 1032 l 246 1032 l 734 309 l 825 149 l 815 355 l 815 1032 l 928 1032 z "},"ǋ":{"ha":1434,"x_min":139,"x_max":1339,"o":"m 914 1032 l 914 0 l 809 0 l 343 701 l 237 881 l 245 658 l 245 0 l 139 0 l 139 1032 l 245 1032 l 721 313 l 817 146 l 809 357 l 809 1032 l 914 1032 m 989 -251 q 1024 -260 1000 -256 q 1067 -264 1048 -264 q 1166 -208 1135 -264 q 1196 -28 1196 -152 l 1196 772 l 1309 772 l 1309 16 q 1252 -258 1309 -172 q 1079 -344 1196 -344 q 1026 -341 1057 -344 q 989 -335 996 -338 l 989 -251 m 1183 1019 q 1195 1063 1183 1043 q 1226 1094 1207 1082 q 1267 1105 1246 1105 q 1321 1084 1302 1105 q 1339 1029 1339 1063 q 1328 983 1339 1003 q 1297 952 1316 963 q 1256 941 1278 941 q 1204 962 1225 941 q 1183 1019 1183 983 z "},"Ñ":{"ha":1053,"x_min":139,"x_max":914,"o":"m 256 1198 q 299 1258 270 1230 q 365 1302 328 1286 q 437 1318 401 1318 q 487 1311 465 1318 q 523 1292 508 1303 q 557 1261 537 1280 q 599 1227 581 1238 q 642 1217 616 1217 q 711 1238 679 1217 q 768 1288 743 1259 l 813 1250 q 770 1190 799 1217 q 704 1147 741 1163 q 632 1131 667 1131 q 566 1145 592 1131 q 512 1189 541 1160 q 470 1223 488 1212 q 426 1235 452 1235 q 357 1213 389 1235 q 300 1162 325 1192 l 256 1198 m 914 1032 l 914 0 l 809 0 l 343 701 l 237 881 l 245 658 l 245 0 l 139 0 l 139 1032 l 245 1032 l 721 313 l 817 146 l 809 357 l 809 1032 l 914 1032 z "},"O":{"ha":1066,"x_min":75,"x_max":991,"o":"m 75 505 q 138 799 75 677 q 309 982 201 920 q 553 1043 418 1043 q 784 980 685 1043 q 937 802 883 917 q 991 534 991 686 q 930 238 991 361 q 763 52 869 115 q 517 -11 656 -11 q 283 55 383 -11 q 129 239 183 121 q 75 505 75 356 m 875 526 q 837 744 875 646 q 725 899 800 842 q 547 956 651 956 q 365 905 446 956 q 238 755 285 855 q 191 510 191 654 q 231 292 191 391 q 347 136 270 194 q 530 77 423 77 q 711 129 633 77 q 832 282 789 181 q 875 526 875 383 z "},"Ó":{"ha":1066,"x_min":75,"x_max":991,"o":"m 467 1126 q 589 1233 494 1147 q 703 1339 684 1318 l 778 1270 q 651 1162 724 1216 q 516 1078 578 1108 l 467 1126 m 75 505 q 138 799 75 677 q 309 982 201 920 q 553 1043 418 1043 q 784 980 685 1043 q 937 802 883 917 q 991 534 991 686 q 930 238 991 361 q 763 52 869 115 q 517 -11 656 -11 q 283 55 383 -11 q 129 239 183 121 q 75 505 75 356 m 875 526 q 837 744 875 646 q 725 899 800 842 q 547 956 651 956 q 365 905 446 956 q 238 755 285 855 q 191 510 191 654 q 231 292 191 391 q 347 136 270 194 q 530 77 423 77 q 711 129 633 77 q 832 282 789 181 q 875 526 875 383 z "},"Ŏ":{"ha":1066,"x_min":75,"x_max":991,"o":"m 399 1334 q 411 1279 400 1308 q 456 1226 422 1250 q 549 1203 489 1203 q 641 1227 607 1203 q 687 1281 674 1251 q 700 1334 699 1311 l 777 1334 l 778 1320 q 749 1217 778 1264 q 668 1142 720 1170 q 549 1114 616 1114 q 426 1141 478 1114 q 347 1216 374 1169 q 319 1318 319 1262 q 319 1334 319 1329 l 399 1334 m 75 505 q 138 799 75 677 q 309 982 201 920 q 553 1043 418 1043 q 784 980 685 1043 q 937 802 883 917 q 991 534 991 686 q 930 238 991 361 q 763 52 869 115 q 517 -11 656 -11 q 283 55 383 -11 q 129 239 183 121 q 75 505 75 356 m 875 526 q 837 744 875 646 q 725 899 800 842 q 547 956 651 956 q 365 905 446 956 q 238 755 285 855 q 191 510 191 654 q 231 292 191 391 q 347 136 270 194 q 530 77 423 77 q 711 129 633 77 q 832 282 789 181 q 875 526 875 383 z "},"Ǒ":{"ha":1066,"x_min":75,"x_max":991,"o":"m 75 505 q 138 799 75 677 q 309 982 201 920 q 553 1043 418 1043 q 784 980 685 1043 q 937 802 883 917 q 991 534 991 686 q 930 238 991 361 q 763 52 869 115 q 517 -11 656 -11 q 283 55 383 -11 q 129 239 183 121 q 75 505 75 356 m 875 526 q 837 744 875 646 q 725 899 800 842 q 547 956 651 956 q 365 905 446 956 q 238 755 285 855 q 191 510 191 654 q 231 292 191 391 q 347 136 270 194 q 530 77 423 77 q 711 129 633 77 q 832 282 789 181 q 875 526 875 383 m 383 1344 l 549 1207 l 717 1344 l 779 1314 l 600 1131 l 499 1131 l 317 1313 l 383 1344 z "},"Ô":{"ha":1066,"x_min":75,"x_max":991,"o":"m 75 505 q 138 799 75 677 q 309 982 201 920 q 553 1043 418 1043 q 784 980 685 1043 q 937 802 883 917 q 991 534 991 686 q 930 238 991 361 q 763 52 869 115 q 517 -11 656 -11 q 283 55 383 -11 q 129 239 183 121 q 75 505 75 356 m 875 526 q 837 744 875 646 q 725 899 800 842 q 547 956 651 956 q 365 905 446 956 q 238 755 285 855 q 191 510 191 654 q 231 292 191 391 q 347 136 270 194 q 530 77 423 77 q 711 129 633 77 q 832 282 789 181 q 875 526 875 383 m 498 1344 l 599 1344 l 789 1143 l 714 1112 l 549 1263 l 380 1112 l 310 1142 l 498 1344 z "},"Ö":{"ha":1066,"x_min":75,"x_max":991,"o":"m 310 1219 q 321 1263 310 1244 q 352 1293 333 1282 q 392 1303 371 1303 q 445 1284 427 1303 q 463 1230 463 1264 q 439 1169 463 1192 q 380 1146 415 1146 q 330 1165 350 1146 q 310 1219 310 1185 m 635 1219 q 646 1263 635 1244 q 677 1293 658 1282 q 717 1303 696 1303 q 770 1284 752 1303 q 788 1230 788 1264 q 764 1169 788 1192 q 706 1146 740 1146 q 655 1165 675 1146 q 635 1219 635 1185 m 75 505 q 138 799 75 677 q 309 982 201 920 q 553 1043 418 1043 q 784 980 685 1043 q 937 802 883 917 q 991 534 991 686 q 930 238 991 361 q 763 52 869 115 q 517 -11 656 -11 q 283 55 383 -11 q 129 239 183 121 q 75 505 75 356 m 875 526 q 837 744 875 646 q 725 899 800 842 q 547 956 651 956 q 365 905 446 956 q 238 755 285 855 q 191 510 191 654 q 231 292 191 391 q 347 136 270 194 q 530 77 423 77 q 711 129 633 77 q 832 282 789 181 q 875 526 875 383 z "},"Ò":{"ha":1066,"x_min":75,"x_max":991,"o":"m 581 1078 q 444 1164 522 1107 q 319 1270 365 1221 l 394 1339 q 508 1233 413 1318 q 629 1126 603 1147 l 581 1078 m 75 505 q 138 799 75 677 q 309 982 201 920 q 553 1043 418 1043 q 784 980 685 1043 q 937 802 883 917 q 991 534 991 686 q 930 238 991 361 q 763 52 869 115 q 517 -11 656 -11 q 283 55 383 -11 q 129 239 183 121 q 75 505 75 356 m 875 526 q 837 744 875 646 q 725 899 800 842 q 547 956 651 956 q 365 905 446 956 q 238 755 285 855 q 191 510 191 654 q 231 292 191 391 q 347 136 270 194 q 530 77 423 77 q 711 129 633 77 q 832 282 789 181 q 875 526 875 383 z "},"Ő":{"ha":1066,"x_min":75,"x_max":991,"o":"m 75 505 q 138 799 75 677 q 309 982 201 920 q 553 1043 418 1043 q 784 980 685 1043 q 937 802 883 917 q 991 534 991 686 q 930 238 991 361 q 763 52 869 115 q 517 -11 656 -11 q 283 55 383 -11 q 129 239 183 121 q 75 505 75 356 m 875 526 q 837 744 875 646 q 725 899 800 842 q 547 956 651 956 q 365 905 446 956 q 238 755 285 855 q 191 510 191 654 q 231 292 191 391 q 347 136 270 194 q 530 77 423 77 q 711 129 633 77 q 832 282 789 181 q 875 526 875 383 m 315 1147 q 394 1248 333 1168 q 468 1350 455 1329 l 556 1303 q 469 1196 515 1246 q 379 1112 422 1146 l 315 1147 m 631 1147 q 714 1247 650 1168 q 789 1343 778 1326 l 873 1297 q 790 1196 838 1246 q 696 1112 742 1146 l 631 1147 z "},"Ō":{"ha":1066,"x_min":75,"x_max":991,"o":"m 734 1266 l 734 1182 l 366 1182 l 366 1266 l 734 1266 m 75 505 q 138 799 75 677 q 309 982 201 920 q 553 1043 418 1043 q 784 980 685 1043 q 937 802 883 917 q 991 534 991 686 q 930 238 991 361 q 763 52 869 115 q 517 -11 656 -11 q 283 55 383 -11 q 129 239 183 121 q 75 505 75 356 m 875 526 q 837 744 875 646 q 725 899 800 842 q 547 956 651 956 q 365 905 446 956 q 238 755 285 855 q 191 510 191 654 q 231 292 191 391 q 347 136 270 194 q 530 77 423 77 q 711 129 633 77 q 832 282 789 181 q 875 526 875 383 z "},"Ø":{"ha":1066,"x_min":75,"x_max":991,"o":"m 743 1002 q 876 898 821 966 q 961 738 932 831 q 991 535 991 646 q 930 237 991 360 q 762 52 869 114 q 516 -11 654 -11 q 386 7 450 -11 l 336 -132 l 271 -113 l 323 33 q 190 140 245 71 q 105 302 134 210 q 75 505 75 395 q 138 799 75 677 q 310 982 201 920 q 556 1043 419 1043 q 680 1026 620 1043 l 733 1173 l 798 1154 l 743 1002 m 191 511 q 234 284 191 386 q 357 127 277 182 l 649 939 q 545 956 602 956 q 363 904 444 954 q 237 753 283 853 q 191 511 191 654 m 875 526 q 832 755 875 654 q 710 909 790 857 l 418 97 q 532 77 471 77 q 713 130 635 78 q 832 283 790 182 q 875 526 875 384 z "},"Ǿ":{"ha":1066,"x_min":75,"x_max":991,"o":"m 743 1002 q 876 898 821 966 q 961 738 932 831 q 991 535 991 646 q 930 237 991 360 q 762 52 869 114 q 516 -11 654 -11 q 386 7 450 -11 l 336 -132 l 271 -113 l 323 33 q 190 140 245 71 q 105 302 134 210 q 75 505 75 395 q 138 799 75 677 q 310 982 201 920 q 556 1043 419 1043 q 680 1026 620 1043 l 733 1173 l 798 1154 l 743 1002 m 191 511 q 234 284 191 386 q 357 127 277 182 l 649 939 q 545 956 602 956 q 363 904 444 954 q 237 753 283 853 q 191 511 191 654 m 875 526 q 832 755 875 654 q 710 909 790 857 l 418 97 q 532 77 471 77 q 713 130 635 78 q 832 283 790 182 q 875 526 875 384 m 420 1126 q 541 1233 446 1147 q 655 1339 636 1318 l 730 1270 q 603 1162 676 1216 q 469 1078 530 1108 l 420 1126 z "},"Õ":{"ha":1066,"x_min":75,"x_max":991,"o":"m 271 1198 q 314 1258 285 1230 q 380 1302 343 1286 q 452 1318 416 1318 q 502 1311 480 1318 q 537 1292 523 1303 q 572 1261 552 1280 q 614 1227 596 1238 q 656 1217 631 1217 q 726 1238 694 1217 q 783 1288 758 1259 l 828 1250 q 785 1190 814 1217 q 719 1147 755 1163 q 647 1131 682 1131 q 581 1145 607 1131 q 527 1189 555 1160 q 485 1223 503 1212 q 441 1235 467 1235 q 372 1213 404 1235 q 315 1162 340 1192 l 271 1198 m 75 505 q 138 799 75 677 q 309 982 201 920 q 553 1043 418 1043 q 784 980 685 1043 q 937 802 883 917 q 991 534 991 686 q 930 238 991 361 q 763 52 869 115 q 517 -11 656 -11 q 283 55 383 -11 q 129 239 183 121 q 75 505 75 356 m 875 526 q 837 744 875 646 q 725 899 800 842 q 547 956 651 956 q 365 905 446 956 q 238 755 285 855 q 191 510 191 654 q 231 292 191 391 q 347 136 270 194 q 530 77 423 77 q 711 129 633 77 q 832 282 789 181 q 875 526 875 383 z "},"Œ":{"ha":1395,"x_min":75,"x_max":1350,"o":"m 1350 91 l 1350 0 l 742 0 l 742 51 q 643 4 696 20 q 523 -11 590 -11 q 287 55 389 -11 q 130 238 185 121 q 75 503 75 355 q 136 794 75 674 q 304 976 197 914 q 553 1043 412 1038 q 651 1034 602 1044 q 742 999 701 1023 l 742 1032 l 1300 1032 l 1300 943 l 857 943 l 857 578 l 1185 578 l 1185 488 l 857 488 l 857 91 l 1350 91 m 538 76 q 652 95 600 76 q 742 148 704 115 l 742 898 q 551 956 667 956 q 373 907 455 956 q 240 759 291 859 q 190 512 190 659 q 230 293 190 392 q 349 135 270 194 q 538 76 427 76 z "},"P":{"ha":867,"x_min":140,"x_max":809,"o":"m 195 1032 q 313 1037 241 1032 q 369 1040 326 1038 q 452 1042 413 1042 q 716 962 623 1042 q 809 709 809 882 q 762 519 809 598 q 628 399 715 441 q 422 357 541 358 q 287 361 367 357 l 254 363 l 254 0 l 140 0 l 140 1032 l 195 1032 m 415 442 q 619 506 543 444 q 694 708 694 569 q 630 899 694 838 q 432 959 566 959 q 254 948 331 959 l 254 450 q 332 444 283 446 q 415 442 380 442 z "},"Ṗ":{"ha":867,"x_min":140,"x_max":809,"o":"m 383 1221 q 395 1264 383 1244 q 426 1295 407 1284 q 466 1306 446 1306 q 519 1286 501 1306 q 537 1232 537 1265 q 513 1171 537 1194 q 455 1147 489 1147 q 404 1167 425 1147 q 383 1221 383 1187 m 195 1032 q 313 1037 241 1032 q 369 1040 326 1038 q 452 1042 413 1042 q 716 962 623 1042 q 809 709 809 882 q 762 519 809 598 q 628 399 715 441 q 422 357 541 358 q 287 361 367 357 l 254 363 l 254 0 l 140 0 l 140 1032 l 195 1032 m 415 442 q 619 506 543 444 q 694 708 694 569 q 630 899 694 838 q 432 959 566 959 q 254 948 331 959 l 254 450 q 332 444 283 446 q 415 442 380 442 z "},"Þ":{"ha":861,"x_min":140,"x_max":804,"o":"m 140 0 l 140 1032 l 254 1032 l 254 0 l 140 0 m 278 205 q 418 198 368 198 q 625 236 539 198 q 758 351 711 275 q 804 537 804 427 q 712 770 804 694 q 453 846 621 846 q 307 838 404 846 q 208 832 231 833 l 245 747 q 334 759 279 754 q 428 764 389 764 q 624 708 559 764 q 689 536 689 652 q 615 340 689 399 q 407 281 541 281 q 325 284 371 281 q 245 292 279 288 l 245 207 l 278 205 z "},"Q":{"ha":1065,"x_min":75,"x_max":1024,"o":"m 903 -101 q 970 -97 936 -101 q 1024 -85 1004 -94 l 1024 -169 q 974 -187 1008 -180 q 904 -195 941 -195 q 768 -178 829 -195 q 651 -122 707 -162 q 543 -10 595 -81 q 528 -11 538 -11 q 288 52 391 -14 q 130 236 185 117 q 75 506 75 354 q 137 799 75 678 q 309 982 200 920 q 553 1043 417 1043 q 783 980 684 1043 q 936 802 882 917 q 990 534 990 686 q 948 280 990 390 q 829 102 905 171 q 651 6 753 33 q 758 -73 694 -45 q 903 -101 823 -101 m 191 510 q 230 292 191 391 q 346 136 269 194 q 530 77 422 77 q 710 129 633 77 q 831 282 788 181 q 874 526 874 383 q 837 744 874 646 q 725 899 799 842 q 547 956 650 956 q 365 905 445 956 q 237 755 284 855 q 191 510 191 654 z "},"R":{"ha":922,"x_min":140,"x_max":878,"o":"m 838 69 q 878 0 865 20 l 747 0 q 734 21 741 8 q 718 53 727 35 q 714 62 716 58 q 711 69 712 66 q 673 153 694 105 q 609 294 637 239 q 544 395 581 350 q 465 450 507 439 q 373 449 410 449 l 254 450 l 254 0 l 140 0 l 140 1032 l 208 1033 q 303 1037 233 1033 q 452 1042 412 1042 q 806 757 806 1042 q 750 569 806 643 q 596 468 694 496 q 663 404 631 448 q 720 311 694 361 q 782 184 746 261 q 838 69 814 112 m 254 531 q 447 527 294 527 q 623 585 559 528 q 688 751 688 642 q 662 870 688 825 q 579 936 635 916 q 433 957 523 957 q 334 954 383 957 q 254 946 284 951 l 254 531 z "},"Ŕ":{"ha":922,"x_min":140,"x_max":878,"o":"m 838 69 q 878 0 865 20 l 747 0 q 734 21 741 8 q 718 53 727 35 q 714 62 716 58 q 711 69 712 66 q 673 153 694 105 q 609 294 637 239 q 544 395 581 350 q 465 450 507 439 q 373 449 410 449 l 254 450 l 254 0 l 140 0 l 140 1032 l 208 1033 q 303 1037 233 1033 q 452 1042 412 1042 q 806 757 806 1042 q 750 569 806 643 q 596 468 694 496 q 663 404 631 448 q 720 311 694 361 q 782 184 746 261 q 838 69 814 112 m 254 531 q 447 527 294 527 q 623 585 559 528 q 688 751 688 642 q 662 870 688 825 q 579 936 635 916 q 433 957 523 957 q 334 954 383 957 q 254 946 284 951 l 254 531 m 395 1126 q 517 1233 422 1147 q 631 1339 612 1318 l 706 1270 q 579 1162 652 1216 q 444 1078 506 1108 l 395 1126 z "},"Ř":{"ha":922,"x_min":140,"x_max":878,"o":"m 311 1344 l 476 1207 l 644 1344 l 707 1314 l 527 1131 l 427 1131 l 245 1313 l 311 1344 m 838 69 q 878 0 865 20 l 747 0 q 734 21 741 8 q 718 53 727 35 q 714 62 716 58 q 711 69 712 66 q 673 153 694 105 q 609 294 637 239 q 544 395 581 350 q 465 450 507 439 q 373 449 410 449 l 254 450 l 254 0 l 140 0 l 140 1032 l 208 1033 q 303 1037 233 1033 q 452 1042 412 1042 q 806 757 806 1042 q 750 569 806 643 q 596 468 694 496 q 663 404 631 448 q 720 311 694 361 q 782 184 746 261 q 838 69 814 112 m 254 531 q 447 527 294 527 q 623 585 559 528 q 688 751 688 642 q 662 870 688 825 q 579 936 635 916 q 433 957 523 957 q 334 954 383 957 q 254 946 284 951 l 254 531 z "},"Ŗ":{"ha":922,"x_min":140,"x_max":878,"o":"m 412 -345 q 437 -301 427 -332 q 448 -234 448 -270 q 434 -172 448 -199 q 399 -139 419 -144 l 399 -113 l 481 -66 q 526 -116 507 -78 q 545 -207 545 -155 q 530 -286 545 -250 q 494 -347 515 -322 q 452 -380 472 -371 l 412 -358 l 412 -345 m 838 69 q 878 0 865 20 l 747 0 q 734 21 741 8 q 718 53 727 35 q 714 62 716 58 q 711 69 712 66 q 673 153 694 105 q 609 294 637 239 q 544 395 581 350 q 465 450 507 439 q 373 449 410 449 l 254 450 l 254 0 l 140 0 l 140 1032 l 208 1033 q 303 1037 233 1033 q 452 1042 412 1042 q 806 757 806 1042 q 750 569 806 643 q 596 468 694 496 q 663 404 631 448 q 720 311 694 361 q 782 184 746 261 q 838 69 814 112 m 254 531 q 447 527 294 527 q 623 585 559 528 q 688 751 688 642 q 662 870 688 825 q 579 936 635 916 q 433 957 523 957 q 334 954 383 957 q 254 946 284 951 l 254 531 z "},"S":{"ha":783,"x_min":92,"x_max":724,"o":"m 120 144 q 235 99 163 118 q 378 81 307 81 q 550 123 488 81 q 612 248 612 165 q 582 343 612 304 q 504 410 552 382 q 365 479 456 437 q 95 788 95 602 q 143 935 95 878 q 267 1018 192 992 q 428 1043 342 1043 q 577 1026 516 1043 q 672 987 638 1010 l 648 897 q 555 938 607 924 q 427 953 503 953 q 319 936 370 953 q 236 886 268 920 q 205 803 205 852 q 230 708 205 747 q 302 639 256 669 q 433 568 349 609 q 583 487 524 525 q 683 393 642 450 q 724 261 724 337 q 682 111 724 172 q 563 20 639 50 q 385 -11 486 -11 q 261 -1 321 -11 q 157 22 201 8 q 92 50 112 37 l 120 144 z "},"Ś":{"ha":783,"x_min":92,"x_max":724,"o":"m 120 144 q 235 99 163 118 q 378 81 307 81 q 550 123 488 81 q 612 248 612 165 q 582 343 612 304 q 504 410 552 382 q 365 479 456 437 q 95 788 95 602 q 143 935 95 878 q 267 1018 192 992 q 428 1043 342 1043 q 577 1026 516 1043 q 672 987 638 1010 l 648 897 q 555 938 607 924 q 427 953 503 953 q 319 936 370 953 q 236 886 268 920 q 205 803 205 852 q 230 708 205 747 q 302 639 256 669 q 433 568 349 609 q 583 487 524 525 q 683 393 642 450 q 724 261 724 337 q 682 111 724 172 q 563 20 639 50 q 385 -11 486 -11 q 261 -1 321 -11 q 157 22 201 8 q 92 50 112 37 l 120 144 m 338 1126 q 460 1233 365 1147 q 574 1339 555 1318 l 649 1270 q 522 1162 595 1216 q 387 1078 449 1108 l 338 1126 z "},"Š":{"ha":783,"x_min":92,"x_max":724,"o":"m 120 144 q 235 99 163 118 q 378 81 307 81 q 550 123 488 81 q 612 248 612 165 q 582 343 612 304 q 504 410 552 382 q 365 479 456 437 q 95 788 95 602 q 143 935 95 878 q 267 1018 192 992 q 428 1043 342 1043 q 577 1026 516 1043 q 672 987 638 1010 l 648 897 q 555 938 607 924 q 427 953 503 953 q 319 936 370 953 q 236 886 268 920 q 205 803 205 852 q 230 708 205 747 q 302 639 256 669 q 433 568 349 609 q 583 487 524 525 q 683 393 642 450 q 724 261 724 337 q 682 111 724 172 q 563 20 639 50 q 385 -11 486 -11 q 261 -1 321 -11 q 157 22 201 8 q 92 50 112 37 l 120 144 m 254 1344 l 419 1207 l 587 1344 l 650 1314 l 470 1131 l 370 1131 l 188 1313 l 254 1344 z "},"Ş":{"ha":783,"x_min":92,"x_max":724,"o":"m 724 261 q 646 71 724 140 q 433 -9 568 1 q 455 -129 455 -56 q 454 -157 455 -148 q 407 -276 450 -238 q 299 -315 363 -315 q 244 -309 273 -315 q 204 -296 216 -304 l 212 -222 q 238 -231 221 -227 q 273 -234 254 -234 q 342 -207 316 -234 q 370 -122 368 -180 q 372 -83 372 -101 q 363 -11 372 -43 q 248 1 303 -9 q 152 24 193 11 q 92 50 111 37 l 120 144 q 235 99 163 118 q 378 81 307 81 q 550 123 488 81 q 612 248 612 165 q 582 343 612 304 q 504 410 552 382 q 365 479 456 437 q 95 788 95 602 q 143 935 95 878 q 267 1018 192 992 q 428 1043 342 1043 q 577 1026 516 1043 q 672 987 638 1010 l 648 897 q 555 938 607 924 q 427 953 503 953 q 319 936 370 953 q 236 886 268 920 q 205 803 205 852 q 230 708 205 747 q 302 639 256 669 q 433 568 349 609 q 583 487 524 525 q 683 393 642 450 q 724 261 724 337 z "},"Ŝ":{"ha":783,"x_min":92,"x_max":724,"o":"m 120 144 q 235 99 163 118 q 378 81 307 81 q 550 123 488 81 q 612 248 612 165 q 582 343 612 304 q 504 410 552 382 q 365 479 456 437 q 95 788 95 602 q 143 935 95 878 q 267 1018 192 992 q 428 1043 342 1043 q 577 1026 516 1043 q 672 987 638 1010 l 648 897 q 555 938 607 924 q 427 953 503 953 q 319 936 370 953 q 236 886 268 920 q 205 803 205 852 q 230 708 205 747 q 302 639 256 669 q 433 568 349 609 q 583 487 524 525 q 683 393 642 450 q 724 261 724 337 q 682 111 724 172 q 563 20 639 50 q 385 -11 486 -11 q 261 -1 321 -11 q 157 22 201 8 q 92 50 112 37 l 120 144 m 368 1344 l 469 1344 l 659 1143 l 585 1112 l 419 1263 l 251 1112 l 180 1142 l 368 1344 z "},"Ș":{"ha":787,"x_min":95,"x_max":727,"o":"m 340 -345 q 365 -301 354 -332 q 376 -234 376 -270 q 361 -172 376 -199 q 327 -139 347 -144 l 327 -113 l 408 -66 q 454 -116 435 -78 q 473 -207 473 -155 q 458 -286 473 -250 q 421 -347 443 -322 q 379 -380 399 -371 l 340 -358 l 340 -345 m 123 144 q 238 99 166 118 q 380 81 310 81 q 553 123 491 81 q 614 248 614 165 q 585 343 614 304 q 507 410 555 382 q 368 479 459 437 q 98 788 98 602 q 146 935 98 878 q 270 1018 195 992 q 431 1043 345 1043 q 580 1026 519 1043 q 675 987 641 1010 l 651 897 q 557 938 610 924 q 430 953 505 953 q 321 936 372 953 q 239 886 271 920 q 208 803 208 852 q 233 708 208 747 q 305 639 258 669 q 436 568 351 609 q 586 487 526 525 q 686 393 645 450 q 727 261 727 337 q 684 111 727 172 q 565 20 642 50 q 388 -11 489 -11 q 264 -1 324 -11 q 159 22 204 8 q 95 50 115 37 l 123 144 z "},"Ṡ":{"ha":783,"x_min":92,"x_max":724,"o":"m 342 1221 q 354 1264 342 1244 q 386 1295 366 1284 q 425 1306 405 1306 q 478 1286 460 1306 q 496 1232 496 1265 q 472 1171 496 1194 q 414 1147 448 1147 q 363 1167 384 1147 q 342 1221 342 1187 m 120 144 q 235 99 163 118 q 378 81 307 81 q 550 123 488 81 q 612 248 612 165 q 582 343 612 304 q 504 410 552 382 q 365 479 456 437 q 95 788 95 602 q 143 935 95 878 q 267 1018 192 992 q 428 1043 342 1043 q 577 1026 516 1043 q 672 987 638 1010 l 648 897 q 555 938 607 924 q 427 953 503 953 q 319 936 370 953 q 236 886 268 920 q 205 803 205 852 q 230 708 205 747 q 302 639 256 669 q 433 568 349 609 q 583 487 524 525 q 683 393 642 450 q 724 261 724 337 q 682 111 724 172 q 563 20 639 50 q 385 -11 486 -11 q 261 -1 321 -11 q 157 22 201 8 q 92 50 112 37 l 120 144 z "},"ẞ":{"ha":991,"x_min":71,"x_max":929,"o":"m 71 511 q 121 797 71 677 q 271 979 170 916 q 520 1043 371 1043 q 647 1032 596 1043 q 755 1001 699 1021 q 802 985 784 990 q 838 981 821 981 l 838 934 l 624 614 q 780 582 711 614 q 889 483 848 550 q 929 315 929 416 q 893 151 929 227 q 785 30 857 76 q 612 -16 713 -16 q 454 0 513 -16 q 349 43 395 15 l 391 132 q 478 90 420 106 q 599 73 536 73 q 712 102 661 73 q 791 187 762 132 q 821 315 821 242 q 787 453 821 402 q 684 526 754 504 q 498 548 614 548 l 503 589 l 705 910 q 629 946 675 932 q 523 960 583 960 q 349 916 425 960 q 229 782 273 871 q 186 568 186 694 l 186 0 l 71 0 l 71 511 z "},"T":{"ha":867,"x_min":42,"x_max":829,"o":"m 42 943 l 42 1032 l 829 1032 l 829 943 l 491 943 l 491 0 l 375 0 l 375 943 l 42 943 z "},"Ŧ":{"ha":867,"x_min":42,"x_max":829,"o":"m 491 943 l 491 528 l 695 528 l 695 452 l 491 452 l 491 0 l 375 0 l 375 452 l 172 452 l 172 528 l 375 528 l 375 943 l 42 943 l 42 1032 l 829 1032 l 829 943 l 491 943 z "},"Ť":{"ha":867,"x_min":42,"x_max":829,"o":"m 264 1344 l 430 1207 l 598 1344 l 661 1314 l 481 1131 l 380 1131 l 199 1313 l 264 1344 m 42 943 l 42 1032 l 829 1032 l 829 943 l 491 943 l 491 0 l 375 0 l 375 943 l 42 943 z "},"Ţ":{"ha":867,"x_min":42,"x_max":829,"o":"m 491 0 l 466 0 q 492 -130 492 -47 q 491 -157 492 -148 q 443 -276 486 -238 q 336 -315 400 -315 q 281 -309 310 -315 q 241 -296 252 -304 l 249 -222 q 274 -231 258 -227 q 310 -234 291 -234 q 378 -207 353 -234 q 407 -122 404 -180 q 409 -83 409 -101 q 396 0 409 -34 l 375 0 l 375 943 l 42 943 l 42 1032 l 829 1032 l 829 943 l 491 943 l 491 0 z "},"Ț":{"ha":867,"x_min":42,"x_max":829,"o":"m 377 -345 q 402 -301 391 -332 q 413 -234 413 -270 q 398 -172 413 -199 q 364 -139 384 -144 l 364 -113 l 446 -66 q 491 -116 472 -78 q 510 -207 510 -155 q 495 -286 510 -250 q 458 -347 480 -322 q 416 -380 437 -371 l 377 -358 l 377 -345 m 42 943 l 42 1032 l 829 1032 l 829 943 l 491 943 l 491 0 l 375 0 l 375 943 l 42 943 z "},"Ṫ":{"ha":867,"x_min":42,"x_max":829,"o":"m 353 1221 q 365 1264 353 1244 q 396 1295 377 1284 q 436 1306 416 1306 q 489 1286 471 1306 q 507 1232 507 1265 q 483 1171 507 1194 q 425 1147 459 1147 q 374 1167 395 1147 q 353 1221 353 1187 m 42 943 l 42 1032 l 829 1032 l 829 943 l 491 943 l 491 0 l 375 0 l 375 943 l 42 943 z "},"U":{"ha":1000,"x_min":115,"x_max":884,"o":"m 116 1033 l 231 1033 l 230 464 q 262 234 230 318 q 355 114 294 149 q 508 79 416 79 q 651 115 594 79 q 740 235 709 151 q 770 465 770 320 l 770 1032 l 884 1032 l 884 437 q 505 -11 884 -11 q 210 102 304 -11 q 116 437 115 215 l 116 1033 z "},"Ú":{"ha":1000,"x_min":115,"x_max":884,"o":"m 427 1126 q 548 1233 453 1147 q 662 1339 643 1318 l 737 1270 q 610 1162 683 1216 q 475 1078 537 1108 l 427 1126 m 116 1033 l 231 1033 l 230 464 q 262 234 230 318 q 355 114 294 149 q 508 79 416 79 q 651 115 594 79 q 740 235 709 151 q 770 465 770 320 l 770 1032 l 884 1032 l 884 437 q 505 -11 884 -11 q 210 102 304 -11 q 116 437 115 215 l 116 1033 z "},"Ŭ":{"ha":1000,"x_min":115,"x_max":884,"o":"m 358 1334 q 371 1279 359 1308 q 415 1226 382 1250 q 508 1203 448 1203 q 600 1227 566 1203 q 646 1281 633 1251 q 659 1334 659 1311 l 736 1334 l 737 1320 q 708 1217 737 1264 q 627 1142 680 1170 q 508 1114 575 1114 q 386 1141 437 1114 q 306 1216 334 1169 q 278 1318 278 1262 q 279 1334 278 1329 l 358 1334 m 116 1033 l 231 1033 l 230 464 q 262 234 230 318 q 355 114 294 149 q 508 79 416 79 q 651 115 594 79 q 740 235 709 151 q 770 465 770 320 l 770 1032 l 884 1032 l 884 437 q 505 -11 884 -11 q 210 102 304 -11 q 116 437 115 215 l 116 1033 z "},"Ǔ":{"ha":1000,"x_min":115,"x_max":884,"o":"m 116 1033 l 231 1033 l 230 464 q 262 234 230 318 q 355 114 294 149 q 508 79 416 79 q 651 115 594 79 q 740 235 709 151 q 770 465 770 320 l 770 1032 l 884 1032 l 884 437 q 505 -11 884 -11 q 210 102 304 -11 q 116 437 115 215 l 116 1033 m 342 1344 l 507 1207 l 675 1344 l 738 1314 l 558 1131 l 458 1131 l 276 1313 l 342 1344 z "},"Û":{"ha":1000,"x_min":115,"x_max":884,"o":"m 116 1033 l 231 1033 l 230 464 q 262 234 230 318 q 355 114 294 149 q 508 79 416 79 q 651 115 594 79 q 740 235 709 151 q 770 465 770 320 l 770 1032 l 884 1032 l 884 437 q 505 -11 884 -11 q 210 102 304 -11 q 116 437 115 215 l 116 1033 m 456 1344 l 557 1344 l 747 1143 l 673 1112 l 507 1263 l 339 1112 l 269 1142 l 456 1344 z "},"Ü":{"ha":1000,"x_min":115,"x_max":884,"o":"m 269 1219 q 280 1263 269 1244 q 311 1293 292 1282 q 351 1303 330 1303 q 404 1284 386 1303 q 421 1230 421 1264 q 397 1169 421 1192 q 339 1146 374 1146 q 289 1165 309 1146 q 269 1219 269 1185 m 593 1219 q 605 1263 593 1244 q 635 1293 616 1282 q 675 1303 654 1303 q 729 1284 711 1303 q 747 1230 747 1264 q 723 1169 747 1192 q 665 1146 699 1146 q 614 1165 634 1146 q 593 1219 593 1185 m 116 1033 l 231 1033 l 230 464 q 262 234 230 318 q 355 114 294 149 q 508 79 416 79 q 651 115 594 79 q 740 235 709 151 q 770 465 770 320 l 770 1032 l 884 1032 l 884 437 q 505 -11 884 -11 q 210 102 304 -11 q 116 437 115 215 l 116 1033 z "},"Ù":{"ha":1000,"x_min":115,"x_max":884,"o":"m 541 1078 q 403 1164 481 1107 q 278 1270 324 1221 l 353 1339 q 467 1233 372 1318 q 589 1126 562 1147 l 541 1078 m 116 1033 l 231 1033 l 230 464 q 262 234 230 318 q 355 114 294 149 q 508 79 416 79 q 651 115 594 79 q 740 235 709 151 q 770 465 770 320 l 770 1032 l 884 1032 l 884 437 q 505 -11 884 -11 q 210 102 304 -11 q 116 437 115 215 l 116 1033 z "},"Ű":{"ha":1000,"x_min":115,"x_max":884,"o":"m 116 1033 l 231 1033 l 230 464 q 262 234 230 318 q 355 114 294 149 q 508 79 416 79 q 651 115 594 79 q 740 235 709 151 q 770 465 770 320 l 770 1032 l 884 1032 l 884 437 q 505 -11 884 -11 q 210 102 304 -11 q 116 437 115 215 l 116 1033 m 273 1147 q 353 1248 292 1168 q 427 1350 414 1329 l 515 1303 q 427 1196 473 1246 q 338 1112 381 1146 l 273 1147 m 590 1147 q 673 1247 609 1168 q 748 1343 736 1326 l 832 1297 q 748 1196 796 1246 q 655 1112 701 1146 l 590 1147 z "},"Ū":{"ha":1000,"x_min":115,"x_max":884,"o":"m 693 1266 l 693 1182 l 325 1182 l 325 1266 l 693 1266 m 116 1033 l 231 1033 l 230 464 q 262 234 230 318 q 355 114 294 149 q 508 79 416 79 q 651 115 594 79 q 740 235 709 151 q 770 465 770 320 l 770 1032 l 884 1032 l 884 437 q 505 -11 884 -11 q 210 102 304 -11 q 116 437 115 215 l 116 1033 z "},"Ų":{"ha":1000,"x_min":115,"x_max":884,"o":"m 884 1032 l 884 437 q 642 7 884 79 q 549 -89 587 -37 q 511 -184 511 -140 q 538 -250 511 -230 q 612 -271 566 -271 q 722 -243 665 -269 l 722 -305 q 652 -336 696 -326 q 563 -347 608 -347 q 444 -310 490 -347 q 399 -205 399 -273 q 439 -103 399 -157 q 536 -10 480 -48 q 505 -11 526 -11 q 210 102 304 -11 q 116 437 115 215 l 116 1033 l 231 1033 l 230 464 q 262 234 230 318 q 355 114 294 149 q 508 79 416 79 q 651 115 594 79 q 740 235 709 151 q 770 465 770 320 l 770 1032 l 884 1032 z "},"Ů":{"ha":1000,"x_min":115,"x_max":884,"o":"m 116 1033 l 231 1033 l 230 464 q 262 234 230 318 q 355 114 294 149 q 508 79 416 79 q 651 115 594 79 q 740 235 709 151 q 770 465 770 320 l 770 1032 l 884 1032 l 884 437 q 505 -11 884 -11 q 210 102 304 -11 q 116 437 115 215 l 116 1033 m 297 1231 q 327 1330 297 1291 q 405 1387 357 1369 q 508 1405 452 1405 q 661 1361 605 1405 q 717 1235 717 1317 q 688 1135 717 1175 q 611 1076 659 1095 q 505 1057 563 1057 q 394 1078 441 1057 q 322 1139 347 1099 q 297 1231 297 1178 m 637 1233 q 602 1312 637 1284 q 507 1341 566 1340 q 415 1316 452 1341 q 378 1234 378 1291 q 412 1153 378 1182 q 508 1123 447 1123 q 602 1150 566 1123 q 637 1233 637 1177 z "},"Ũ":{"ha":1000,"x_min":115,"x_max":884,"o":"m 229 1198 q 273 1258 243 1230 q 338 1302 302 1286 q 410 1318 375 1318 q 460 1311 439 1318 q 496 1292 481 1303 q 530 1261 511 1280 q 572 1227 555 1238 q 615 1217 590 1217 q 685 1238 652 1217 q 741 1288 717 1259 l 787 1250 q 743 1190 772 1217 q 677 1147 714 1163 q 606 1131 641 1131 q 540 1145 566 1131 q 486 1189 514 1160 q 444 1223 462 1212 q 399 1235 425 1235 q 331 1213 363 1235 q 274 1162 298 1192 l 229 1198 m 116 1033 l 231 1033 l 230 464 q 262 234 230 318 q 355 114 294 149 q 508 79 416 79 q 651 115 594 79 q 740 235 709 151 q 770 465 770 320 l 770 1032 l 884 1032 l 884 437 q 505 -11 884 -11 q 210 102 304 -11 q 116 437 115 215 l 116 1033 z "},"V":{"ha":903,"x_min":21,"x_max":882,"o":"m 142 1032 l 408 296 l 459 131 l 511 296 l 762 1032 l 882 1032 l 507 -11 l 410 -11 l 21 1032 l 142 1032 z "},"W":{"ha":1295,"x_min":22,"x_max":1274,"o":"m 1274 1032 l 1008 -11 l 895 -11 l 675 732 l 650 856 l 625 732 l 401 -11 l 301 -11 l 22 1032 l 140 1032 l 309 350 l 355 123 l 406 350 l 608 1032 l 692 1032 l 897 350 l 954 125 l 998 349 l 1158 1032 l 1274 1032 z "},"Ẃ":{"ha":1295,"x_min":22,"x_max":1274,"o":"m 567 1126 q 688 1233 593 1147 q 802 1339 783 1318 l 878 1270 q 750 1162 823 1216 q 616 1078 677 1108 l 567 1126 m 1274 1032 l 1008 -11 l 895 -11 l 675 732 l 650 856 l 625 732 l 401 -11 l 301 -11 l 22 1032 l 140 1032 l 309 350 l 355 123 l 406 350 l 608 1032 l 692 1032 l 897 350 l 954 125 l 998 349 l 1158 1032 l 1274 1032 z "},"Ŵ":{"ha":1295,"x_min":22,"x_max":1274,"o":"m 1274 1032 l 1008 -11 l 895 -11 l 675 732 l 650 856 l 625 732 l 401 -11 l 301 -11 l 22 1032 l 140 1032 l 309 350 l 355 123 l 406 350 l 608 1032 l 692 1032 l 897 350 l 954 125 l 998 349 l 1158 1032 l 1274 1032 m 597 1344 l 698 1344 l 888 1143 l 813 1112 l 648 1263 l 479 1112 l 409 1142 l 597 1344 z "},"Ẅ":{"ha":1295,"x_min":22,"x_max":1274,"o":"m 409 1219 q 420 1263 409 1244 q 451 1293 432 1282 q 491 1303 470 1303 q 544 1284 526 1303 q 562 1230 562 1264 q 538 1169 562 1192 q 479 1146 514 1146 q 429 1165 449 1146 q 409 1219 409 1185 m 734 1219 q 745 1263 734 1244 q 776 1293 757 1282 q 816 1303 795 1303 q 869 1284 851 1303 q 887 1230 887 1264 q 863 1169 887 1192 q 805 1146 839 1146 q 754 1165 774 1146 q 734 1219 734 1185 m 1274 1032 l 1008 -11 l 895 -11 l 675 732 l 650 856 l 625 732 l 401 -11 l 301 -11 l 22 1032 l 140 1032 l 309 350 l 355 123 l 406 350 l 608 1032 l 692 1032 l 897 350 l 954 125 l 998 349 l 1158 1032 l 1274 1032 z "},"Ẁ":{"ha":1295,"x_min":22,"x_max":1274,"o":"m 681 1078 q 543 1164 622 1107 q 418 1270 465 1221 l 494 1339 q 608 1233 513 1318 q 729 1126 703 1147 l 681 1078 m 1274 1032 l 1008 -11 l 895 -11 l 675 732 l 650 856 l 625 732 l 401 -11 l 301 -11 l 22 1032 l 140 1032 l 309 350 l 355 123 l 406 350 l 608 1032 l 692 1032 l 897 350 l 954 125 l 998 349 l 1158 1032 l 1274 1032 z "},"X":{"ha":902,"x_min":50,"x_max":852,"o":"m 852 0 l 722 0 l 509 341 l 445 444 l 383 341 l 174 0 l 50 0 l 382 530 l 54 1032 l 183 1033 l 383 718 l 456 598 l 527 718 l 719 1032 l 843 1032 l 517 514 l 852 0 z "},"Y":{"ha":847,"x_min":21,"x_max":827,"o":"m 488 398 l 488 0 l 372 0 l 372 397 l 21 1032 l 144 1032 l 397 557 l 432 479 l 462 557 l 705 1032 l 827 1032 l 488 398 z "},"Ý":{"ha":847,"x_min":21,"x_max":827,"o":"m 488 398 l 488 0 l 372 0 l 372 397 l 21 1032 l 144 1032 l 397 557 l 432 479 l 462 557 l 705 1032 l 827 1032 l 488 398 m 357 1126 q 479 1233 384 1147 q 593 1339 574 1318 l 668 1270 q 541 1162 614 1216 q 406 1078 468 1108 l 357 1126 z "},"Ŷ":{"ha":847,"x_min":21,"x_max":827,"o":"m 488 398 l 488 0 l 372 0 l 372 397 l 21 1032 l 144 1032 l 397 557 l 432 479 l 462 557 l 705 1032 l 827 1032 l 488 398 m 387 1344 l 488 1344 l 678 1143 l 604 1112 l 438 1263 l 270 1112 l 199 1142 l 387 1344 z "},"Ÿ":{"ha":847,"x_min":21,"x_max":827,"o":"m 488 398 l 488 0 l 372 0 l 372 397 l 21 1032 l 144 1032 l 397 557 l 432 479 l 462 557 l 705 1032 l 827 1032 l 488 398 m 199 1219 q 211 1263 199 1244 q 241 1293 222 1282 q 281 1303 260 1303 q 334 1284 317 1303 q 352 1230 352 1264 q 328 1169 352 1192 q 270 1146 304 1146 q 219 1165 239 1146 q 199 1219 199 1185 m 524 1219 q 536 1263 524 1244 q 566 1293 547 1282 q 606 1303 585 1303 q 660 1284 642 1303 q 677 1230 677 1264 q 653 1169 677 1192 q 595 1146 629 1146 q 545 1165 565 1146 q 524 1219 524 1185 z "},"Ẏ":{"ha":847,"x_min":21,"x_max":827,"o":"m 488 398 l 488 0 l 372 0 l 372 397 l 21 1032 l 144 1032 l 397 557 l 432 479 l 462 557 l 705 1032 l 827 1032 l 488 398 m 361 1221 q 373 1264 361 1244 q 405 1295 385 1284 q 444 1306 424 1306 q 497 1286 479 1306 q 515 1232 515 1265 q 491 1171 515 1194 q 433 1147 467 1147 q 382 1167 403 1147 q 361 1221 361 1187 z "},"Ỳ":{"ha":847,"x_min":21,"x_max":827,"o":"m 488 398 l 488 0 l 372 0 l 372 397 l 21 1032 l 144 1032 l 397 557 l 432 479 l 462 557 l 705 1032 l 827 1032 l 488 398 m 471 1078 q 334 1164 412 1107 q 209 1270 255 1221 l 284 1339 q 398 1233 303 1318 q 519 1126 493 1147 l 471 1078 z "},"Z":{"ha":888,"x_min":72,"x_max":827,"o":"m 620 865 l 677 941 l 128 941 l 128 1032 l 803 1032 l 827 989 l 281 162 l 223 90 l 799 90 l 799 0 l 96 0 l 72 45 l 620 865 z "},"Ź":{"ha":888,"x_min":72,"x_max":827,"o":"m 620 865 l 677 941 l 128 941 l 128 1032 l 803 1032 l 827 989 l 281 162 l 223 90 l 799 90 l 799 0 l 96 0 l 72 45 l 620 865 m 385 1126 q 506 1233 411 1147 q 620 1339 601 1318 l 695 1270 q 568 1162 641 1216 q 433 1078 495 1108 l 385 1126 z "},"Ž":{"ha":888,"x_min":72,"x_max":827,"o":"m 300 1344 l 465 1207 l 633 1344 l 696 1314 l 516 1131 l 416 1131 l 234 1313 l 300 1344 m 620 865 l 677 941 l 128 941 l 128 1032 l 803 1032 l 827 989 l 281 162 l 223 90 l 799 90 l 799 0 l 96 0 l 72 45 l 620 865 z "},"Ż":{"ha":888,"x_min":72,"x_max":827,"o":"m 389 1221 q 400 1264 389 1244 q 432 1295 412 1284 q 471 1306 451 1306 q 525 1286 507 1306 q 543 1232 543 1265 q 518 1171 543 1194 q 460 1147 494 1147 q 409 1167 430 1147 q 389 1221 389 1187 m 620 865 l 677 941 l 128 941 l 128 1032 l 803 1032 l 827 989 l 281 162 l 223 90 l 799 90 l 799 0 l 96 0 l 72 45 l 620 865 z "},"a":{"ha":777,"x_min":75,"x_max":656,"o":"m 392 785 q 535 765 477 785 q 624 693 592 745 q 656 547 656 641 l 656 -11 l 610 -11 q 575 -7 587 -11 q 556 7 563 -4 q 550 43 550 19 l 550 72 q 450 14 513 39 q 310 -11 386 -11 q 188 15 241 -11 q 104 90 134 41 q 75 204 75 138 q 117 333 75 279 q 241 417 159 387 q 388 451 304 440 q 543 463 472 463 l 543 552 q 523 644 543 612 q 464 687 503 676 q 363 699 426 699 q 280 688 326 699 q 196 663 235 678 q 136 633 157 648 l 108 707 q 170 737 125 719 q 275 770 216 755 q 392 785 335 785 m 343 74 q 430 86 388 74 q 503 114 472 98 q 543 141 533 130 l 543 390 q 419 381 490 390 q 304 354 348 372 q 216 297 245 332 q 186 213 186 263 q 225 111 186 149 q 343 74 263 74 z "},"á":{"ha":777,"x_min":75,"x_max":656,"o":"m 392 785 q 535 765 477 785 q 624 693 592 745 q 656 547 656 641 l 656 -11 l 610 -11 q 575 -7 587 -11 q 556 7 563 -4 q 550 43 550 19 l 550 72 q 450 14 513 39 q 310 -11 386 -11 q 188 15 241 -11 q 104 90 134 41 q 75 204 75 138 q 117 333 75 279 q 241 417 159 387 q 388 451 304 440 q 543 463 472 463 l 543 552 q 523 644 543 612 q 464 687 503 676 q 363 699 426 699 q 280 688 326 699 q 196 663 235 678 q 136 633 157 648 l 108 707 q 170 737 125 719 q 275 770 216 755 q 392 785 335 785 m 343 74 q 430 86 388 74 q 503 114 472 98 q 543 141 533 130 l 543 390 q 419 381 490 390 q 304 354 348 372 q 216 297 245 332 q 186 213 186 263 q 225 111 186 149 q 343 74 263 74 m 313 938 q 443 1084 392 1024 q 541 1208 494 1143 l 623 1138 q 552 1055 601 1105 q 452 957 504 1004 q 371 892 401 911 l 313 938 z "},"ă":{"ha":777,"x_min":75,"x_max":656,"o":"m 392 785 q 535 765 477 785 q 624 693 592 745 q 656 547 656 641 l 656 -11 l 610 -11 q 575 -7 587 -11 q 556 7 563 -4 q 550 43 550 19 l 550 72 q 450 14 513 39 q 310 -11 386 -11 q 188 15 241 -11 q 104 90 134 41 q 75 204 75 138 q 117 333 75 279 q 241 417 159 387 q 388 451 304 440 q 543 463 472 463 l 543 552 q 523 644 543 612 q 464 687 503 676 q 363 699 426 699 q 280 688 326 699 q 196 663 235 678 q 136 633 157 648 l 108 707 q 170 737 125 719 q 275 770 216 755 q 392 785 335 785 m 343 74 q 430 86 388 74 q 503 114 472 98 q 543 141 533 130 l 543 390 q 419 381 490 390 q 304 354 348 372 q 216 297 245 332 q 186 213 186 263 q 225 111 186 149 q 343 74 263 74 m 245 1149 q 257 1086 246 1121 q 302 1022 269 1051 q 395 994 335 994 q 488 1023 454 994 q 534 1088 522 1052 q 547 1149 547 1124 l 624 1149 q 625 1133 625 1143 q 595 1022 625 1075 q 513 938 566 970 q 395 905 460 905 q 273 938 326 905 q 193 1022 221 970 q 165 1133 165 1074 q 165 1149 165 1143 l 245 1149 z "},"ǎ":{"ha":777,"x_min":75,"x_max":656,"o":"m 392 785 q 535 765 477 785 q 624 693 592 745 q 656 547 656 641 l 656 -11 l 610 -11 q 575 -7 587 -11 q 556 7 563 -4 q 550 43 550 19 l 550 72 q 450 14 513 39 q 310 -11 386 -11 q 188 15 241 -11 q 104 90 134 41 q 75 204 75 138 q 117 333 75 279 q 241 417 159 387 q 388 451 304 440 q 543 463 472 463 l 543 552 q 523 644 543 612 q 464 687 503 676 q 363 699 426 699 q 280 688 326 699 q 196 663 235 678 q 136 633 157 648 l 108 707 q 170 737 125 719 q 275 770 216 755 q 392 785 335 785 m 343 74 q 430 86 388 74 q 503 114 472 98 q 543 141 533 130 l 543 390 q 419 381 490 390 q 304 354 348 372 q 216 297 245 332 q 186 213 186 263 q 225 111 186 149 q 343 74 263 74 m 396 983 l 574 1161 l 644 1131 l 447 897 l 346 897 l 144 1132 l 210 1161 l 396 983 z "},"â":{"ha":777,"x_min":75,"x_max":656,"o":"m 392 785 q 535 765 477 785 q 624 693 592 745 q 656 547 656 641 l 656 -11 l 610 -11 q 575 -7 587 -11 q 556 7 563 -4 q 550 43 550 19 l 550 72 q 450 14 513 39 q 310 -11 386 -11 q 188 15 241 -11 q 104 90 134 41 q 75 204 75 138 q 117 333 75 279 q 241 417 159 387 q 388 451 304 440 q 543 463 472 463 l 543 552 q 523 644 543 612 q 464 687 503 676 q 363 699 426 699 q 280 688 326 699 q 196 663 235 678 q 136 633 157 648 l 108 707 q 170 737 125 719 q 275 770 216 755 q 392 785 335 785 m 343 74 q 430 86 388 74 q 503 114 472 98 q 543 141 533 130 l 543 390 q 419 381 490 390 q 304 354 348 372 q 216 297 245 332 q 186 213 186 263 q 225 111 186 149 q 343 74 263 74 m 345 1147 l 446 1147 l 643 913 l 573 883 l 395 1061 l 209 883 l 143 912 l 345 1147 z "},"ä":{"ha":777,"x_min":75,"x_max":656,"o":"m 392 785 q 535 765 477 785 q 624 693 592 745 q 656 547 656 641 l 656 -11 l 610 -11 q 575 -7 587 -11 q 556 7 563 -4 q 550 43 550 19 l 550 72 q 450 14 513 39 q 310 -11 386 -11 q 188 15 241 -11 q 104 90 134 41 q 75 204 75 138 q 117 333 75 279 q 241 417 159 387 q 388 451 304 440 q 543 463 472 463 l 543 552 q 523 644 543 612 q 464 687 503 676 q 363 699 426 699 q 280 688 326 699 q 196 663 235 678 q 136 633 157 648 l 108 707 q 170 737 125 719 q 275 770 216 755 q 392 785 335 785 m 343 74 q 430 86 388 74 q 503 114 472 98 q 543 141 533 130 l 543 390 q 419 381 490 390 q 304 354 348 372 q 216 297 245 332 q 186 213 186 263 q 225 111 186 149 q 343 74 263 74 m 168 1027 q 180 1068 168 1050 q 210 1097 191 1086 q 248 1107 228 1107 q 299 1088 282 1107 q 315 1036 315 1069 q 292 977 315 1000 q 236 955 269 955 q 188 974 207 955 q 168 1027 168 994 m 475 1027 q 486 1068 475 1050 q 515 1097 497 1086 q 554 1107 534 1107 q 605 1088 588 1107 q 621 1036 621 1069 q 598 977 621 1000 q 542 955 574 955 q 494 974 513 955 q 475 1027 475 994 z "},"à":{"ha":777,"x_min":75,"x_max":656,"o":"m 392 785 q 535 765 477 785 q 624 693 592 745 q 656 547 656 641 l 656 -11 l 610 -11 q 575 -7 587 -11 q 556 7 563 -4 q 550 43 550 19 l 550 72 q 450 14 513 39 q 310 -11 386 -11 q 188 15 241 -11 q 104 90 134 41 q 75 204 75 138 q 117 333 75 279 q 241 417 159 387 q 388 451 304 440 q 543 463 472 463 l 543 552 q 523 644 543 612 q 464 687 503 676 q 363 699 426 699 q 280 688 326 699 q 196 663 235 678 q 136 633 157 648 l 108 707 q 170 737 125 719 q 275 770 216 755 q 392 785 335 785 m 343 74 q 430 86 388 74 q 503 114 472 98 q 543 141 533 130 l 543 390 q 419 381 490 390 q 304 354 348 372 q 216 297 245 332 q 186 213 186 263 q 225 111 186 149 q 343 74 263 74 m 409 892 q 277 1004 358 926 q 157 1138 196 1082 l 238 1208 q 328 1097 281 1153 q 450 956 376 1041 l 467 938 l 409 892 z "},"ā":{"ha":777,"x_min":75,"x_max":656,"o":"m 392 785 q 535 765 477 785 q 624 693 592 745 q 656 547 656 641 l 656 -11 l 610 -11 q 575 -7 587 -11 q 556 7 563 -4 q 550 43 550 19 l 550 72 q 450 14 513 39 q 310 -11 386 -11 q 188 15 241 -11 q 104 90 134 41 q 75 204 75 138 q 117 333 75 279 q 241 417 159 387 q 388 451 304 440 q 543 463 472 463 l 543 552 q 523 644 543 612 q 464 687 503 676 q 363 699 426 699 q 280 688 326 699 q 196 663 235 678 q 136 633 157 648 l 108 707 q 170 737 125 719 q 275 770 216 755 q 392 785 335 785 m 343 74 q 430 86 388 74 q 503 114 472 98 q 543 141 533 130 l 543 390 q 419 381 490 390 q 304 354 348 372 q 216 297 245 332 q 186 213 186 263 q 225 111 186 149 q 343 74 263 74 m 580 1069 l 580 985 l 212 985 l 212 1069 l 580 1069 z "},"ą":{"ha":777,"x_min":75,"x_max":714,"o":"m 605 -271 q 714 -243 660 -269 l 714 -305 q 644 -336 688 -326 q 555 -347 600 -347 q 438 -312 484 -347 q 392 -210 392 -277 q 418 -127 392 -168 q 483 -55 444 -87 q 564 -1 522 -22 q 550 43 550 10 l 550 72 q 450 14 513 39 q 310 -11 386 -11 q 188 15 241 -11 q 104 90 134 41 q 75 204 75 138 q 117 333 75 279 q 241 417 159 387 q 388 451 304 440 q 543 463 472 463 l 543 552 q 523 644 543 612 q 464 687 503 676 q 363 699 426 699 q 280 688 326 699 q 196 663 235 678 q 136 633 157 648 l 108 707 q 170 737 125 719 q 275 770 216 755 q 392 785 335 785 q 535 765 477 785 q 624 693 592 745 q 656 547 656 641 l 656 -11 l 646 -11 q 544 -93 585 -50 q 503 -189 503 -136 q 530 -252 503 -234 q 605 -271 557 -271 m 343 74 q 430 86 388 74 q 503 114 472 98 q 543 141 533 130 l 543 390 q 419 381 490 390 q 304 354 348 372 q 216 297 245 332 q 186 213 186 263 q 225 111 186 149 q 343 74 263 74 z "},"å":{"ha":777,"x_min":75,"x_max":656,"o":"m 392 785 q 535 765 477 785 q 624 693 592 745 q 656 547 656 641 l 656 -11 l 610 -11 q 575 -7 587 -11 q 556 7 563 -4 q 550 43 550 19 l 550 72 q 450 14 513 39 q 310 -11 386 -11 q 188 15 241 -11 q 104 90 134 41 q 75 204 75 138 q 117 333 75 279 q 241 417 159 387 q 388 451 304 440 q 543 463 472 463 l 543 552 q 523 644 543 612 q 464 687 503 676 q 363 699 426 699 q 280 688 326 699 q 196 663 235 678 q 136 633 157 648 l 108 707 q 170 737 125 719 q 275 770 216 755 q 392 785 335 785 m 343 74 q 430 86 388 74 q 503 114 472 98 q 543 141 533 130 l 543 390 q 419 381 490 390 q 304 354 348 372 q 216 297 245 332 q 186 213 186 263 q 225 111 186 149 q 343 74 263 74 m 185 1082 q 215 1182 185 1142 q 293 1241 245 1223 q 396 1260 341 1260 q 549 1214 492 1260 q 605 1086 605 1168 q 576 985 605 1026 q 499 924 547 944 q 393 903 451 903 q 283 925 330 903 q 211 988 236 947 q 185 1082 185 1028 m 525 1084 q 489 1166 525 1137 q 395 1196 454 1195 q 303 1169 341 1196 q 266 1084 266 1142 q 300 1001 266 1033 q 393 969 334 970 q 488 998 452 969 q 525 1084 525 1027 z "},"ã":{"ha":777,"x_min":75,"x_max":673,"o":"m 392 785 q 535 765 477 785 q 624 693 592 745 q 656 547 656 641 l 656 -11 l 610 -11 q 575 -7 587 -11 q 556 7 563 -4 q 550 43 550 19 l 550 72 q 450 14 513 39 q 310 -11 386 -11 q 188 15 241 -11 q 104 90 134 41 q 75 204 75 138 q 117 333 75 279 q 241 417 159 387 q 388 451 304 440 q 543 463 472 463 l 543 552 q 523 644 543 612 q 464 687 503 676 q 363 699 426 699 q 280 688 326 699 q 196 663 235 678 q 136 633 157 648 l 108 707 q 170 737 125 719 q 275 770 216 755 q 392 785 335 785 m 343 74 q 430 86 388 74 q 503 114 472 98 q 543 141 533 130 l 543 390 q 419 381 490 390 q 304 354 348 372 q 216 297 245 332 q 186 213 186 263 q 225 111 186 149 q 343 74 263 74 m 115 991 q 156 1049 130 1022 q 217 1094 182 1076 q 291 1111 252 1111 q 358 1096 332 1111 q 412 1055 384 1082 q 454 1021 436 1032 q 497 1010 472 1010 q 571 1030 540 1010 q 627 1081 602 1050 l 673 1043 q 601 959 647 993 q 497 924 554 924 q 444 932 467 924 q 407 952 422 941 q 373 981 391 963 q 332 1015 350 1004 q 290 1025 315 1025 q 218 1005 250 1025 q 160 955 185 984 l 115 991 z "},"æ":{"ha":1238,"x_min":75,"x_max":1167,"o":"m 655 375 l 655 348 q 909 75 664 75 q 1026 91 961 75 q 1121 126 1090 106 l 1143 60 q 1029 9 1105 29 q 880 -11 954 -11 q 715 24 785 -11 q 604 128 646 60 q 477 27 552 64 q 313 -11 403 -11 q 190 15 244 -11 q 105 90 136 41 q 75 204 75 138 q 118 333 75 279 q 241 417 161 387 q 384 452 303 441 q 542 463 464 463 l 542 543 q 522 643 542 609 q 465 687 501 676 q 371 699 429 699 q 288 688 334 699 q 202 662 243 677 q 138 631 161 646 l 110 707 q 175 737 128 719 q 282 770 222 755 q 399 785 342 785 q 547 758 491 785 q 627 661 603 730 q 741 752 673 720 q 895 784 808 784 q 1036 748 975 784 q 1131 646 1097 712 q 1167 494 1165 581 l 1167 468 q 1162 375 1167 404 l 655 375 m 883 703 q 733 641 793 703 q 659 451 674 579 l 1061 451 q 1061 482 1061 461 q 1019 644 1061 584 q 883 703 976 703 m 341 74 q 435 92 389 74 q 518 137 482 110 q 573 192 555 165 q 543 383 543 273 l 543 390 l 543 390 q 412 381 478 390 q 304 354 346 372 q 216 297 244 332 q 189 213 189 263 q 225 112 189 149 q 341 74 262 74 z "},"ǽ":{"ha":1238,"x_min":75,"x_max":1167,"o":"m 542 938 q 672 1084 621 1024 q 770 1208 724 1143 l 852 1138 q 782 1055 830 1105 q 682 957 733 1004 q 600 892 630 911 l 542 938 m 655 375 l 655 348 q 909 75 664 75 q 1026 91 961 75 q 1121 126 1090 106 l 1143 60 q 1029 9 1105 29 q 880 -11 954 -11 q 715 24 785 -11 q 604 128 646 60 q 477 27 552 64 q 313 -11 403 -11 q 190 15 244 -11 q 105 90 136 41 q 75 204 75 138 q 118 333 75 279 q 241 417 161 387 q 384 452 303 441 q 542 463 464 463 l 542 543 q 522 643 542 609 q 465 687 501 676 q 371 699 429 699 q 288 688 334 699 q 202 662 243 677 q 138 631 161 646 l 110 707 q 175 737 128 719 q 282 770 222 755 q 399 785 342 785 q 547 758 491 785 q 627 661 603 730 q 741 752 673 720 q 895 784 808 784 q 1036 748 975 784 q 1131 646 1097 712 q 1167 494 1165 581 l 1167 468 q 1162 375 1167 404 l 655 375 m 883 703 q 733 641 793 703 q 659 451 674 579 l 1061 451 q 1061 482 1061 461 q 1019 644 1061 584 q 883 703 976 703 m 341 74 q 435 92 389 74 q 518 137 482 110 q 573 192 555 165 q 543 383 543 273 l 543 390 l 543 390 q 412 381 478 390 q 304 354 346 372 q 216 297 244 332 q 189 213 189 263 q 225 112 189 149 q 341 74 262 74 z "},"b":{"ha":844,"x_min":125,"x_max":774,"o":"m 125 1126 l 238 1126 l 238 804 l 233 672 l 238 669 l 238 94 l 125 43 l 125 1126 m 125 43 q 181 20 139 33 q 277 -2 222 7 q 385 -12 332 -12 q 588 42 499 -12 q 725 193 676 96 q 774 415 774 290 q 733 618 774 535 q 624 743 693 701 q 469 784 555 784 q 319 751 378 784 q 218 674 261 718 l 237 615 q 325 671 271 646 q 438 695 379 695 q 602 621 546 695 q 659 405 659 547 q 623 222 659 297 q 528 110 587 147 q 397 72 468 72 q 301 81 344 72 q 238 105 258 90 l 125 43 z "},"ḃ":{"ha":844,"x_min":125,"x_max":774,"o":"m 125 1126 l 238 1126 l 238 804 l 233 672 l 238 669 l 238 94 l 125 43 l 125 1126 m 125 43 q 181 20 139 33 q 277 -2 222 7 q 385 -12 332 -12 q 588 42 499 -12 q 725 193 676 96 q 774 415 774 290 q 733 618 774 535 q 624 743 693 701 q 469 784 555 784 q 319 751 378 784 q 218 674 261 718 l 237 615 q 325 671 271 646 q 438 695 379 695 q 602 621 546 695 q 659 405 659 547 q 623 222 659 297 q 528 110 587 147 q 397 72 468 72 q 301 81 344 72 q 238 105 258 90 l 125 43 m 433 1019 q 445 1063 433 1043 q 476 1094 457 1082 q 517 1105 496 1105 q 571 1084 552 1105 q 589 1029 589 1063 q 578 983 589 1003 q 547 952 566 963 q 506 941 528 941 q 454 962 475 941 q 433 1019 433 983 z "},"c":{"ha":686,"x_min":71,"x_max":642,"o":"m 437 784 q 551 772 500 784 q 625 744 602 760 l 605 654 q 532 686 577 675 q 431 696 486 696 q 307 661 363 696 q 216 555 250 626 q 182 383 182 485 q 214 214 182 283 q 302 110 247 144 q 423 75 357 75 q 535 91 484 75 q 618 128 587 108 l 642 63 q 542 9 606 29 q 406 -11 479 -11 q 227 39 302 -11 q 112 176 151 89 q 72 375 72 264 q 114 586 71 493 q 239 731 157 679 q 437 784 321 784 z "},"ć":{"ha":686,"x_min":71,"x_max":645,"o":"m 335 938 q 466 1084 414 1024 q 564 1208 517 1143 l 645 1138 q 575 1055 623 1105 q 475 957 526 1004 q 393 892 423 911 l 335 938 m 437 784 q 551 772 500 784 q 625 744 602 760 l 605 654 q 532 686 577 675 q 431 696 486 696 q 307 661 363 696 q 216 555 250 626 q 182 383 182 485 q 214 214 182 283 q 302 110 247 144 q 423 75 357 75 q 535 91 484 75 q 618 128 587 108 l 642 63 q 542 9 606 29 q 406 -11 479 -11 q 227 39 302 -11 q 112 176 151 89 q 72 375 72 264 q 114 586 71 493 q 239 731 157 679 q 437 784 321 784 z "},"č":{"ha":686,"x_min":71,"x_max":667,"o":"m 418 983 l 597 1161 l 667 1131 l 469 897 l 368 897 l 167 1132 l 233 1161 l 418 983 m 437 784 q 551 772 500 784 q 625 744 602 760 l 605 654 q 532 686 577 675 q 431 696 486 696 q 307 661 363 696 q 216 555 250 626 q 182 383 182 485 q 214 214 182 283 q 302 110 247 144 q 423 75 357 75 q 535 91 484 75 q 618 128 587 108 l 642 63 q 542 9 606 29 q 406 -11 479 -11 q 227 39 302 -11 q 112 176 151 89 q 72 375 72 264 q 114 586 71 493 q 239 731 157 679 q 437 784 321 784 z "},"ç":{"ha":686,"x_min":71,"x_max":642,"o":"m 642 63 q 551 12 608 32 q 428 -10 494 -7 q 449 -129 449 -58 q 448 -157 449 -148 q 400 -276 444 -238 q 293 -315 357 -315 q 238 -309 267 -315 q 198 -296 210 -304 l 206 -222 q 232 -231 215 -227 q 267 -234 248 -234 q 336 -207 310 -234 q 364 -122 361 -180 q 366 -82 366 -100 q 356 -7 366 -39 q 203 57 267 5 q 105 191 139 109 q 72 375 72 273 q 114 586 71 493 q 239 731 157 679 q 437 784 321 784 q 551 772 500 784 q 625 744 602 760 l 605 654 q 532 686 577 675 q 431 696 486 696 q 307 661 363 696 q 216 555 250 626 q 182 383 182 485 q 214 214 182 283 q 302 110 247 144 q 423 75 357 75 q 535 91 484 75 q 618 128 587 108 l 642 63 z "},"ĉ":{"ha":686,"x_min":71,"x_max":666,"o":"m 368 1147 l 469 1147 l 666 913 l 596 883 l 418 1061 l 232 883 l 166 912 l 368 1147 m 437 784 q 551 772 500 784 q 625 744 602 760 l 605 654 q 532 686 577 675 q 431 696 486 696 q 307 661 363 696 q 216 555 250 626 q 182 383 182 485 q 214 214 182 283 q 302 110 247 144 q 423 75 357 75 q 535 91 484 75 q 618 128 587 108 l 642 63 q 542 9 606 29 q 406 -11 479 -11 q 227 39 302 -11 q 112 176 151 89 q 72 375 72 264 q 114 586 71 493 q 239 731 157 679 q 437 784 321 784 z "},"ċ":{"ha":686,"x_min":71,"x_max":642,"o":"m 437 784 q 551 772 500 784 q 625 744 602 760 l 605 654 q 532 686 577 675 q 431 696 486 696 q 307 661 363 696 q 216 555 250 626 q 182 383 182 485 q 214 214 182 283 q 302 110 247 144 q 423 75 357 75 q 535 91 484 75 q 618 128 587 108 l 642 63 q 542 9 606 29 q 406 -11 479 -11 q 227 39 302 -11 q 112 176 151 89 q 72 375 72 264 q 114 586 71 493 q 239 731 157 679 q 437 784 321 784 m 340 1019 q 352 1063 340 1043 q 383 1094 363 1082 q 423 1105 402 1105 q 477 1084 458 1105 q 496 1029 496 1063 q 484 983 496 1003 q 453 952 473 963 q 412 941 434 941 q 361 962 382 941 q 340 1019 340 983 z "},"d":{"ha":840,"x_min":69,"x_max":718,"o":"m 718 1128 l 718 -8 l 669 -8 q 626 1 640 -8 q 612 39 612 9 l 612 85 q 514 17 570 45 q 374 -11 458 -11 q 222 29 292 -11 q 111 153 153 69 q 69 361 69 237 q 118 580 69 484 q 254 730 166 676 q 457 784 342 784 q 607 758 540 784 l 605 804 l 605 1128 l 718 1128 m 185 377 q 241 154 183 229 q 405 78 299 78 q 517 101 465 78 q 605 155 568 125 l 605 664 q 545 691 585 681 q 446 701 505 701 q 313 663 372 701 q 220 551 254 625 q 185 377 186 477 z "},"ð":{"ha":819,"x_min":74,"x_max":757,"o":"m 449 1063 q 677 786 597 953 q 757 415 757 619 q 713 174 757 271 q 592 30 670 77 q 411 -18 515 -18 q 234 30 310 -18 q 116 168 157 79 q 74 378 74 258 q 118 595 74 503 q 240 735 161 686 q 419 783 318 783 q 518 763 472 783 q 600 707 564 743 q 515 872 570 795 q 388 1006 460 949 l 292 897 l 231 945 l 327 1048 q 245 1095 288 1074 q 166 1127 203 1116 l 193 1193 q 290 1156 241 1178 q 382 1108 339 1134 q 434 1169 404 1133 q 473 1216 464 1204 l 534 1169 q 496 1125 526 1159 q 443 1067 467 1092 q 449 1063 445 1065 m 644 435 q 637 577 644 522 q 600 638 628 611 q 526 682 571 666 q 425 699 481 699 q 297 660 351 699 q 215 549 243 621 q 186 382 186 477 q 216 208 186 281 q 299 98 246 136 q 422 60 353 60 q 532 96 482 60 q 613 207 583 133 q 644 389 644 281 l 644 435 z "},"ď":{"ha":1071,"x_min":69,"x_max":1019,"o":"m 718 1128 l 718 -8 l 669 -8 q 626 1 640 -8 q 612 39 612 9 l 612 85 q 514 17 570 45 q 374 -11 458 -11 q 222 29 292 -11 q 111 153 153 69 q 69 361 69 237 q 118 580 69 484 q 254 730 166 676 q 457 784 342 784 q 607 758 540 784 l 605 804 l 605 1128 l 718 1128 m 185 377 q 241 154 183 229 q 405 78 299 78 q 517 101 465 78 q 605 155 568 125 l 605 664 q 545 691 585 681 q 446 701 505 701 q 313 663 372 701 q 220 551 254 625 q 185 377 186 477 m 877 736 q 885 758 880 747 q 909 840 901 799 q 918 949 918 880 q 907 1030 918 988 q 882 1090 897 1072 l 888 1115 l 979 1143 q 1009 1081 999 1124 q 1019 981 1019 1037 q 996 821 1019 896 q 939 703 972 745 l 882 721 l 877 736 z "},"đ":{"ha":840,"x_min":69,"x_max":823,"o":"m 823 899 l 718 899 l 718 -8 l 669 -8 q 626 1 640 -8 q 612 39 612 9 l 612 85 q 514 17 570 45 q 374 -11 458 -11 q 222 29 292 -11 q 111 153 153 69 q 69 361 69 237 q 118 580 69 484 q 254 730 166 676 q 457 784 342 784 q 607 758 540 784 l 605 804 l 605 899 l 406 899 l 406 972 l 605 972 l 605 1128 l 718 1128 l 718 972 l 823 972 l 823 899 m 185 377 q 241 154 183 229 q 405 78 299 78 q 517 101 465 78 q 605 155 568 125 l 605 664 q 545 691 585 681 q 446 701 505 701 q 313 663 372 701 q 220 551 254 625 q 185 377 186 477 z "},"ḋ":{"ha":840,"x_min":69,"x_max":718,"o":"m 718 1128 l 718 -8 l 669 -8 q 626 1 640 -8 q 612 39 612 9 l 612 85 q 514 17 570 45 q 374 -11 458 -11 q 222 29 292 -11 q 111 153 153 69 q 69 361 69 237 q 118 580 69 484 q 254 730 166 676 q 457 784 342 784 q 607 758 540 784 l 605 804 l 605 1128 l 718 1128 m 185 377 q 241 154 183 229 q 405 78 299 78 q 517 101 465 78 q 605 155 568 125 l 605 664 q 545 691 585 681 q 446 701 505 701 q 313 663 372 701 q 220 551 254 625 q 185 377 186 477 m 177 1019 q 189 1063 177 1043 q 220 1094 201 1082 q 260 1105 239 1105 q 314 1084 296 1105 q 333 1029 333 1063 q 321 983 333 1003 q 291 952 310 963 q 250 941 271 941 q 198 962 219 941 q 177 1019 177 983 z "},"ǳ":{"ha":1567,"x_min":69,"x_max":1507,"o":"m 718 1128 l 718 -8 l 669 -8 q 626 1 640 -8 q 612 39 612 9 l 612 85 q 514 17 570 45 q 374 -11 458 -11 q 222 29 292 -11 q 111 153 153 69 q 69 361 69 237 q 118 580 69 484 q 254 730 166 676 q 457 784 342 784 q 607 758 540 784 l 605 804 l 605 1128 l 718 1128 m 185 377 q 241 154 183 229 q 405 78 299 78 q 517 101 465 78 q 605 155 568 125 l 605 664 q 545 691 585 681 q 446 701 505 701 q 313 663 372 701 q 220 551 254 625 q 185 377 186 477 m 1354 686 l 937 686 l 937 773 l 1487 773 l 1507 723 l 1104 149 l 1056 83 l 1500 83 l 1500 0 l 926 0 l 903 44 l 1354 686 z "},"ǆ":{"ha":1567,"x_min":69,"x_max":1507,"o":"m 718 1128 l 718 -8 l 669 -8 q 626 1 640 -8 q 612 39 612 9 l 612 85 q 514 17 570 45 q 374 -11 458 -11 q 222 29 292 -11 q 111 153 153 69 q 69 361 69 237 q 118 580 69 484 q 254 730 166 676 q 457 784 342 784 q 607 758 540 784 l 605 804 l 605 1128 l 718 1128 m 185 377 q 241 154 183 229 q 405 78 299 78 q 517 101 465 78 q 605 155 568 125 l 605 664 q 545 691 585 681 q 446 701 505 701 q 313 663 372 701 q 220 551 254 625 q 185 377 186 477 m 1354 686 l 937 686 l 937 773 l 1487 773 l 1507 723 l 1104 149 l 1056 83 l 1500 83 l 1500 0 l 926 0 l 903 44 l 1354 686 m 1214 983 l 1392 1161 l 1462 1131 l 1265 897 l 1164 897 l 962 1132 l 1028 1161 l 1214 983 z "},"e":{"ha":765,"x_min":71,"x_max":694,"o":"m 182 375 l 182 348 q 254 140 186 206 q 437 75 322 75 q 553 90 489 75 q 647 126 616 106 l 669 60 q 556 9 631 29 q 408 -11 481 -11 q 224 36 300 -11 q 110 171 149 83 q 71 383 71 260 q 112 592 71 501 q 232 733 153 682 q 421 784 311 784 q 562 748 501 784 q 658 646 623 712 q 694 494 692 581 q 693 422 694 448 q 688 375 692 397 l 182 375 m 410 703 q 260 641 319 703 q 186 451 201 579 l 588 451 q 589 482 589 461 q 546 644 589 584 q 410 703 503 703 z "},"é":{"ha":765,"x_min":71,"x_max":694,"o":"m 327 938 q 457 1084 406 1024 q 555 1208 509 1143 l 637 1138 q 567 1055 615 1105 q 467 957 518 1004 q 385 892 415 911 l 327 938 m 182 375 l 182 348 q 254 140 186 206 q 437 75 322 75 q 553 90 489 75 q 647 126 616 106 l 669 60 q 556 9 631 29 q 408 -11 481 -11 q 224 36 300 -11 q 110 171 149 83 q 71 383 71 260 q 112 592 71 501 q 232 733 153 682 q 421 784 311 784 q 562 748 501 784 q 658 646 623 712 q 694 494 692 581 q 693 422 694 448 q 688 375 692 397 l 182 375 m 410 703 q 260 641 319 703 q 186 451 201 579 l 588 451 q 589 482 589 461 q 546 644 589 584 q 410 703 503 703 z "},"ĕ":{"ha":765,"x_min":71,"x_max":694,"o":"m 182 375 l 182 348 q 254 140 186 206 q 437 75 322 75 q 553 90 489 75 q 647 126 616 106 l 669 60 q 556 9 631 29 q 408 -11 481 -11 q 224 36 300 -11 q 110 171 149 83 q 71 383 71 260 q 112 592 71 501 q 232 733 153 682 q 421 784 311 784 q 562 748 501 784 q 658 646 623 712 q 694 494 692 581 q 693 422 694 448 q 688 375 692 397 l 182 375 m 410 703 q 260 641 319 703 q 186 451 201 579 l 588 451 q 589 482 589 461 q 546 644 589 584 q 410 703 503 703 m 260 1149 q 272 1086 260 1121 q 316 1022 283 1051 q 410 994 349 994 q 502 1023 469 994 q 548 1088 536 1052 q 561 1149 561 1124 l 638 1149 q 639 1133 639 1143 q 609 1022 639 1075 q 527 938 580 970 q 409 905 475 905 q 288 938 340 905 q 207 1022 235 970 q 179 1133 179 1074 q 180 1149 179 1143 l 260 1149 z "},"ě":{"ha":765,"x_min":71,"x_max":694,"o":"m 410 983 l 589 1161 l 659 1131 l 461 897 l 360 897 l 159 1132 l 224 1161 l 410 983 m 182 375 l 182 348 q 254 140 186 206 q 437 75 322 75 q 553 90 489 75 q 647 126 616 106 l 669 60 q 556 9 631 29 q 408 -11 481 -11 q 224 36 300 -11 q 110 171 149 83 q 71 383 71 260 q 112 592 71 501 q 232 733 153 682 q 421 784 311 784 q 562 748 501 784 q 658 646 623 712 q 694 494 692 581 q 693 422 694 448 q 688 375 692 397 l 182 375 m 410 703 q 260 641 319 703 q 186 451 201 579 l 588 451 q 589 482 589 461 q 546 644 589 584 q 410 703 503 703 z "},"ê":{"ha":765,"x_min":71,"x_max":694,"o":"m 359 1147 l 460 1147 l 658 913 l 588 883 l 410 1061 l 224 883 l 158 912 l 359 1147 m 182 375 l 182 348 q 254 140 186 206 q 437 75 322 75 q 553 90 489 75 q 647 126 616 106 l 669 60 q 556 9 631 29 q 408 -11 481 -11 q 224 36 300 -11 q 110 171 149 83 q 71 383 71 260 q 112 592 71 501 q 232 733 153 682 q 421 784 311 784 q 562 748 501 784 q 658 646 623 712 q 694 494 692 581 q 693 422 694 448 q 688 375 692 397 l 182 375 m 410 703 q 260 641 319 703 q 186 451 201 579 l 588 451 q 589 482 589 461 q 546 644 589 584 q 410 703 503 703 z "},"ë":{"ha":765,"x_min":71,"x_max":694,"o":"m 183 1027 q 195 1068 183 1050 q 224 1097 206 1086 q 263 1107 243 1107 q 314 1088 297 1107 q 330 1036 330 1069 q 307 977 330 1000 q 251 955 283 955 q 202 974 222 955 q 183 1027 183 994 m 490 1027 q 501 1068 490 1050 q 530 1097 512 1086 q 569 1107 549 1107 q 620 1088 603 1107 q 636 1036 636 1069 q 613 977 636 1000 q 557 955 589 955 q 509 974 528 955 q 490 1027 490 994 m 182 375 l 182 348 q 254 140 186 206 q 437 75 322 75 q 553 90 489 75 q 647 126 616 106 l 669 60 q 556 9 631 29 q 408 -11 481 -11 q 224 36 300 -11 q 110 171 149 83 q 71 383 71 260 q 112 592 71 501 q 232 733 153 682 q 421 784 311 784 q 562 748 501 784 q 658 646 623 712 q 694 494 692 581 q 693 422 694 448 q 688 375 692 397 l 182 375 m 410 703 q 260 641 319 703 q 186 451 201 579 l 588 451 q 589 482 589 461 q 546 644 589 584 q 410 703 503 703 z "},"ė":{"ha":765,"x_min":71,"x_max":694,"o":"m 182 375 l 182 348 q 254 140 186 206 q 437 75 322 75 q 553 90 489 75 q 647 126 616 106 l 669 60 q 556 9 631 29 q 408 -11 481 -11 q 224 36 300 -11 q 110 171 149 83 q 71 383 71 260 q 112 592 71 501 q 232 733 153 682 q 421 784 311 784 q 562 748 501 784 q 658 646 623 712 q 694 494 692 581 q 693 422 694 448 q 688 375 692 397 l 182 375 m 410 703 q 260 641 319 703 q 186 451 201 579 l 588 451 q 589 482 589 461 q 546 644 589 584 q 410 703 503 703 m 331 1019 q 343 1063 331 1043 q 374 1094 355 1082 q 414 1105 393 1105 q 468 1084 450 1105 q 487 1029 487 1063 q 475 983 487 1003 q 445 952 464 963 q 404 941 425 941 q 352 962 373 941 q 331 1019 331 983 z "},"è":{"ha":765,"x_min":71,"x_max":694,"o":"m 182 375 l 182 348 q 254 140 186 206 q 437 75 322 75 q 553 90 489 75 q 647 126 616 106 l 669 60 q 556 9 631 29 q 408 -11 481 -11 q 224 36 300 -11 q 110 171 149 83 q 71 383 71 260 q 112 592 71 501 q 232 733 153 682 q 421 784 311 784 q 562 748 501 784 q 658 646 623 712 q 694 494 692 581 q 693 422 694 448 q 688 375 692 397 l 182 375 m 410 703 q 260 641 319 703 q 186 451 201 579 l 588 451 q 589 482 589 461 q 546 644 589 584 q 410 703 503 703 m 423 892 q 291 1004 372 926 q 171 1138 210 1082 l 252 1208 q 342 1097 295 1153 q 465 956 390 1041 l 481 938 l 423 892 z "},"ē":{"ha":765,"x_min":71,"x_max":694,"o":"m 182 375 l 182 348 q 254 140 186 206 q 437 75 322 75 q 553 90 489 75 q 647 126 616 106 l 669 60 q 556 9 631 29 q 408 -11 481 -11 q 224 36 300 -11 q 110 171 149 83 q 71 383 71 260 q 112 592 71 501 q 232 733 153 682 q 421 784 311 784 q 562 748 501 784 q 658 646 623 712 q 694 494 692 581 q 693 422 694 448 q 688 375 692 397 l 182 375 m 410 703 q 260 641 319 703 q 186 451 201 579 l 588 451 q 589 482 589 461 q 546 644 589 584 q 410 703 503 703 m 594 1069 l 594 985 l 226 985 l 226 1069 l 594 1069 z "},"ę":{"ha":765,"x_min":71,"x_max":694,"o":"m 182 375 l 182 348 q 254 140 186 206 q 437 75 322 75 q 553 90 489 75 q 647 126 616 106 l 669 60 q 652 48 664 56 l 653 47 q 570 -18 612 22 q 498 -104 527 -58 q 470 -189 470 -149 q 498 -252 470 -233 q 573 -271 526 -271 q 683 -243 629 -269 l 683 -305 q 613 -336 656 -326 q 524 -347 569 -347 q 405 -312 451 -347 q 358 -210 358 -277 q 379 -136 358 -175 q 433 -62 399 -97 q 503 -2 466 -26 q 408 -11 457 -11 q 224 36 300 -11 q 110 171 149 83 q 71 383 71 260 q 112 592 71 501 q 232 733 153 682 q 421 784 311 784 q 562 748 501 784 q 658 646 623 712 q 694 494 692 581 q 693 422 694 448 q 688 375 692 397 l 182 375 m 410 703 q 260 641 319 703 q 186 451 201 579 l 588 451 q 589 482 589 461 q 546 644 589 584 q 410 703 503 703 z "},"f":{"ha":543,"x_min":52,"x_max":543,"o":"m 52 688 l 52 750 l 184 773 l 184 836 q 223 1012 184 943 q 322 1111 262 1080 q 450 1141 382 1141 q 504 1136 478 1141 q 543 1126 529 1132 l 543 1036 q 498 1046 524 1043 q 435 1050 473 1050 q 335 1001 372 1050 q 298 860 298 951 l 298 773 l 503 773 l 503 688 l 298 688 l 298 0 l 184 0 l 184 688 l 52 688 z "},"ḟ":{"ha":543,"x_min":52,"x_max":543,"o":"m 184 1261 q 196 1305 184 1286 q 228 1337 208 1325 q 268 1348 247 1348 q 322 1327 303 1348 q 340 1272 340 1306 q 329 1226 340 1246 q 298 1195 317 1206 q 257 1184 279 1184 q 205 1205 227 1184 q 184 1261 184 1226 m 52 688 l 52 750 l 184 773 l 184 836 q 223 1012 184 943 q 322 1111 262 1080 q 450 1141 382 1141 q 504 1136 478 1141 q 543 1126 529 1132 l 543 1036 q 498 1046 524 1043 q 435 1050 473 1050 q 335 1001 372 1050 q 298 860 298 951 l 298 773 l 503 773 l 503 688 l 298 688 l 298 0 l 184 0 l 184 688 l 52 688 z "},"g":{"ha":830,"x_min":82,"x_max":808,"o":"m 808 680 l 650 680 q 697 528 697 617 q 657 382 697 443 q 547 289 616 321 q 391 258 477 258 q 287 272 336 258 q 251 230 266 256 q 235 176 235 203 q 246 124 235 142 q 280 97 256 105 q 346 90 304 90 l 513 90 q 722 37 665 90 q 779 -102 779 -16 q 730 -233 779 -177 q 596 -320 681 -290 q 408 -351 511 -351 q 168 -297 254 -351 q 82 -132 82 -244 q 115 -35 82 -78 q 190 31 147 7 q 144 78 157 50 q 132 143 132 106 q 157 225 132 183 q 224 298 182 268 q 130 387 164 332 q 96 514 96 443 q 137 665 96 604 q 247 755 178 726 q 404 784 317 784 q 587 738 511 784 q 654 761 613 751 q 735 771 696 771 l 808 771 l 808 680 m 393 334 q 534 379 483 334 q 585 524 585 425 q 537 660 585 614 q 404 707 489 707 q 263 664 317 707 q 209 519 209 621 q 230 424 209 466 q 293 358 252 382 q 393 334 334 334 m 363 0 q 255 7 296 0 q 193 -118 193 -45 q 246 -236 193 -199 q 410 -273 299 -273 q 539 -256 479 -273 q 634 -207 598 -240 q 671 -126 671 -174 q 651 -53 671 -81 q 588 -13 632 -26 q 467 0 543 0 l 363 0 z "},"ğ":{"ha":830,"x_min":82,"x_max":808,"o":"m 808 680 l 650 680 q 697 528 697 617 q 657 382 697 443 q 547 289 616 321 q 391 258 477 258 q 287 272 336 258 q 251 230 266 256 q 235 176 235 203 q 246 124 235 142 q 280 97 256 105 q 346 90 304 90 l 513 90 q 722 37 665 90 q 779 -102 779 -16 q 730 -233 779 -177 q 596 -320 681 -290 q 408 -351 511 -351 q 168 -297 254 -351 q 82 -132 82 -244 q 115 -35 82 -78 q 190 31 147 7 q 144 78 157 50 q 132 143 132 106 q 157 225 132 183 q 224 298 182 268 q 130 387 164 332 q 96 514 96 443 q 137 665 96 604 q 247 755 178 726 q 404 784 317 784 q 587 738 511 784 q 654 761 613 751 q 735 771 696 771 l 808 771 l 808 680 m 393 334 q 534 379 483 334 q 585 524 585 425 q 537 660 585 614 q 404 707 489 707 q 263 664 317 707 q 209 519 209 621 q 230 424 209 466 q 293 358 252 382 q 393 334 334 334 m 363 0 q 255 7 296 0 q 193 -118 193 -45 q 246 -236 193 -199 q 410 -273 299 -273 q 539 -256 479 -273 q 634 -207 598 -240 q 671 -126 671 -174 q 651 -53 671 -81 q 588 -13 632 -26 q 467 0 543 0 l 363 0 m 262 1149 q 274 1086 262 1121 q 318 1022 285 1051 q 412 994 351 994 q 504 1023 471 994 q 550 1088 538 1052 q 563 1149 563 1124 l 640 1149 q 641 1133 641 1143 q 611 1022 641 1075 q 529 938 582 970 q 411 905 477 905 q 290 938 342 905 q 209 1022 237 970 q 181 1133 181 1074 q 182 1149 181 1143 l 262 1149 z "},"ǧ":{"ha":830,"x_min":82,"x_max":808,"o":"m 808 680 l 650 680 q 697 528 697 617 q 657 382 697 443 q 547 289 616 321 q 391 258 477 258 q 287 272 336 258 q 251 230 266 256 q 235 176 235 203 q 246 124 235 142 q 280 97 256 105 q 346 90 304 90 l 513 90 q 722 37 665 90 q 779 -102 779 -16 q 730 -233 779 -177 q 596 -320 681 -290 q 408 -351 511 -351 q 168 -297 254 -351 q 82 -132 82 -244 q 115 -35 82 -78 q 190 31 147 7 q 144 78 157 50 q 132 143 132 106 q 157 225 132 183 q 224 298 182 268 q 130 387 164 332 q 96 514 96 443 q 137 665 96 604 q 247 755 178 726 q 404 784 317 784 q 587 738 511 784 q 654 761 613 751 q 735 771 696 771 l 808 771 l 808 680 m 393 334 q 534 379 483 334 q 585 524 585 425 q 537 660 585 614 q 404 707 489 707 q 263 664 317 707 q 209 519 209 621 q 230 424 209 466 q 293 358 252 382 q 393 334 334 334 m 363 0 q 255 7 296 0 q 193 -118 193 -45 q 246 -236 193 -199 q 410 -273 299 -273 q 539 -256 479 -273 q 634 -207 598 -240 q 671 -126 671 -174 q 651 -53 671 -81 q 588 -13 632 -26 q 467 0 543 0 l 363 0 m 412 983 l 591 1161 l 661 1131 l 463 897 l 362 897 l 161 1132 l 227 1161 l 412 983 z "},"ĝ":{"ha":830,"x_min":82,"x_max":808,"o":"m 361 1147 l 462 1147 l 659 913 l 589 883 l 411 1061 l 225 883 l 159 912 l 361 1147 m 808 680 l 650 680 q 697 528 697 617 q 657 382 697 443 q 547 289 616 321 q 391 258 477 258 q 287 272 336 258 q 251 230 266 256 q 235 176 235 203 q 246 124 235 142 q 280 97 256 105 q 346 90 304 90 l 513 90 q 722 37 665 90 q 779 -102 779 -16 q 730 -233 779 -177 q 596 -320 681 -290 q 408 -351 511 -351 q 168 -297 254 -351 q 82 -132 82 -244 q 115 -35 82 -78 q 190 31 147 7 q 144 78 157 50 q 132 143 132 106 q 157 225 132 183 q 224 298 182 268 q 130 387 164 332 q 96 514 96 443 q 137 665 96 604 q 247 755 178 726 q 404 784 317 784 q 587 738 511 784 q 654 761 613 751 q 735 771 696 771 l 808 771 l 808 680 m 393 334 q 534 379 483 334 q 585 524 585 425 q 537 660 585 614 q 404 707 489 707 q 263 664 317 707 q 209 519 209 621 q 230 424 209 466 q 293 358 252 382 q 393 334 334 334 m 363 0 q 255 7 296 0 q 193 -118 193 -45 q 246 -236 193 -199 q 410 -273 299 -273 q 539 -256 479 -273 q 634 -207 598 -240 q 671 -126 671 -174 q 651 -53 671 -81 q 588 -13 632 -26 q 467 0 543 0 l 363 0 z "},"ģ":{"ha":830,"x_min":82,"x_max":808,"o":"m 395 903 q 346 952 366 913 q 326 1043 326 991 q 343 1126 326 1088 q 384 1191 359 1165 q 431 1227 408 1217 l 469 1205 l 469 1191 q 437 1143 452 1177 q 423 1070 423 1109 q 439 1008 423 1036 q 475 975 454 980 l 475 949 l 395 903 m 808 680 l 650 680 q 697 528 697 617 q 657 382 697 443 q 547 289 616 321 q 391 258 477 258 q 287 272 336 258 q 251 230 266 256 q 235 176 235 203 q 246 124 235 142 q 280 97 256 105 q 346 90 304 90 l 513 90 q 722 37 665 90 q 779 -102 779 -16 q 730 -233 779 -177 q 596 -320 681 -290 q 408 -351 511 -351 q 168 -297 254 -351 q 82 -132 82 -244 q 115 -35 82 -78 q 190 31 147 7 q 144 78 157 50 q 132 143 132 106 q 157 225 132 183 q 224 298 182 268 q 130 387 164 332 q 96 514 96 443 q 137 665 96 604 q 247 755 178 726 q 404 784 317 784 q 587 738 511 784 q 654 761 613 751 q 735 771 696 771 l 808 771 l 808 680 m 393 334 q 534 379 483 334 q 585 524 585 425 q 537 660 585 614 q 404 707 489 707 q 263 664 317 707 q 209 519 209 621 q 230 424 209 466 q 293 358 252 382 q 393 334 334 334 m 363 0 q 255 7 296 0 q 193 -118 193 -45 q 246 -236 193 -199 q 410 -273 299 -273 q 539 -256 479 -273 q 634 -207 598 -240 q 671 -126 671 -174 q 651 -53 671 -81 q 588 -13 632 -26 q 467 0 543 0 l 363 0 z "},"ġ":{"ha":830,"x_min":82,"x_max":808,"o":"m 808 680 l 650 680 q 697 528 697 617 q 657 382 697 443 q 547 289 616 321 q 391 258 477 258 q 287 272 336 258 q 251 230 266 256 q 235 176 235 203 q 246 124 235 142 q 280 97 256 105 q 346 90 304 90 l 513 90 q 722 37 665 90 q 779 -102 779 -16 q 730 -233 779 -177 q 596 -320 681 -290 q 408 -351 511 -351 q 168 -297 254 -351 q 82 -132 82 -244 q 115 -35 82 -78 q 190 31 147 7 q 144 78 157 50 q 132 143 132 106 q 157 225 132 183 q 224 298 182 268 q 130 387 164 332 q 96 514 96 443 q 137 665 96 604 q 247 755 178 726 q 404 784 317 784 q 587 738 511 784 q 654 761 613 751 q 735 771 696 771 l 808 771 l 808 680 m 393 334 q 534 379 483 334 q 585 524 585 425 q 537 660 585 614 q 404 707 489 707 q 263 664 317 707 q 209 519 209 621 q 230 424 209 466 q 293 358 252 382 q 393 334 334 334 m 363 0 q 255 7 296 0 q 193 -118 193 -45 q 246 -236 193 -199 q 410 -273 299 -273 q 539 -256 479 -273 q 634 -207 598 -240 q 671 -126 671 -174 q 651 -53 671 -81 q 588 -13 632 -26 q 467 0 543 0 l 363 0 m 333 1019 q 345 1063 333 1043 q 376 1094 357 1082 q 416 1105 395 1105 q 470 1084 452 1105 q 489 1029 489 1063 q 477 983 489 1003 q 447 952 466 963 q 406 941 427 941 q 354 962 375 941 q 333 1019 333 983 z "},"ḡ":{"ha":830,"x_min":82,"x_max":808,"o":"m 808 680 l 650 680 q 697 528 697 617 q 657 382 697 443 q 547 289 616 321 q 391 258 477 258 q 287 272 336 258 q 251 230 266 256 q 235 176 235 203 q 246 124 235 142 q 280 97 256 105 q 346 90 304 90 l 513 90 q 722 37 665 90 q 779 -102 779 -16 q 730 -233 779 -177 q 596 -320 681 -290 q 408 -351 511 -351 q 168 -297 254 -351 q 82 -132 82 -244 q 115 -35 82 -78 q 190 31 147 7 q 144 78 157 50 q 132 143 132 106 q 157 225 132 183 q 224 298 182 268 q 130 387 164 332 q 96 514 96 443 q 137 665 96 604 q 247 755 178 726 q 404 784 317 784 q 587 738 511 784 q 654 761 613 751 q 735 771 696 771 l 808 771 l 808 680 m 393 334 q 534 379 483 334 q 585 524 585 425 q 537 660 585 614 q 404 707 489 707 q 263 664 317 707 q 209 519 209 621 q 230 424 209 466 q 293 358 252 382 q 393 334 334 334 m 363 0 q 255 7 296 0 q 193 -118 193 -45 q 246 -236 193 -199 q 410 -273 299 -273 q 539 -256 479 -273 q 634 -207 598 -240 q 671 -126 671 -174 q 651 -53 671 -81 q 588 -13 632 -26 q 467 0 543 0 l 363 0 m 596 1069 l 596 985 l 228 985 l 228 1069 l 596 1069 z "},"h":{"ha":888,"x_min":131,"x_max":762,"o":"m 530 785 q 664 753 614 785 q 739 650 715 721 q 762 459 762 578 l 762 0 l 648 0 l 648 467 q 633 601 649 553 q 580 671 617 650 q 477 690 543 692 q 358 661 422 688 q 244 596 294 634 l 244 0 l 131 0 l 131 1128 l 244 1128 l 244 785 l 239 679 q 372 752 291 720 q 530 785 452 785 z "},"ħ":{"ha":888,"x_min":30,"x_max":762,"o":"m 530 785 q 664 753 614 785 q 739 650 715 721 q 762 459 762 578 l 762 0 l 648 0 l 648 467 q 633 601 649 553 q 580 671 617 650 q 477 690 543 692 q 358 661 422 688 q 244 596 294 634 l 244 0 l 131 0 l 131 888 l 30 888 l 30 956 l 131 956 l 131 1128 l 244 1128 l 244 956 l 428 956 l 428 888 l 244 888 l 244 785 l 239 679 q 372 752 291 720 q 530 785 452 785 z "},"ĥ":{"ha":888,"x_min":131,"x_max":762,"o":"m 530 785 q 664 753 614 785 q 739 650 715 721 q 762 459 762 578 l 762 0 l 648 0 l 648 467 q 633 601 649 553 q 580 671 617 650 q 477 690 543 692 q 358 661 422 688 q 244 596 294 634 l 244 0 l 131 0 l 131 1128 l 244 1128 l 244 785 l 239 679 q 372 752 291 720 q 530 785 452 785 m 463 1344 l 564 1344 l 754 1143 l 680 1112 l 514 1263 l 346 1112 l 275 1142 l 463 1344 z "},"i":{"ha":399,"x_min":121,"x_max":277,"o":"m 256 772 l 256 0 l 143 0 l 143 772 l 256 772 m 121 1019 q 133 1063 121 1043 q 164 1094 144 1082 q 204 1105 183 1105 q 258 1084 239 1105 q 277 1029 277 1063 q 265 983 277 1003 q 234 952 254 963 q 193 941 215 941 q 142 962 163 941 q 121 1019 121 983 z "},"ı":{"ha":399,"x_min":143,"x_max":256,"o":"m 256 772 l 256 0 l 143 0 l 143 772 l 256 772 z "},"í":{"ha":399,"x_min":117,"x_max":427,"o":"m 117 938 q 247 1084 196 1024 q 345 1208 298 1143 l 427 1138 q 356 1055 405 1105 q 256 957 308 1004 q 175 892 205 911 l 117 938 m 256 772 l 256 0 l 143 0 l 143 772 l 256 772 z "},"ĭ":{"ha":399,"x_min":-31,"x_max":429,"o":"m 256 772 l 256 0 l 143 0 l 143 772 l 256 772 m 50 1149 q 61 1086 50 1121 q 106 1022 73 1051 q 199 994 139 994 q 292 1023 258 994 q 338 1088 326 1052 q 351 1149 351 1124 l 428 1149 q 429 1133 429 1143 q 399 1022 429 1075 q 317 938 370 970 q 199 905 264 905 q 77 938 130 905 q -3 1022 25 970 q -31 1133 -31 1074 q -31 1149 -31 1143 l 50 1149 z "},"ǐ":{"ha":399,"x_min":-52,"x_max":448,"o":"m 256 772 l 256 0 l 143 0 l 143 772 l 256 772 m 200 983 l 378 1161 l 448 1131 l 251 897 l 150 897 l -52 1132 l 14 1161 l 200 983 z "},"î":{"ha":399,"x_min":-52,"x_max":448,"o":"m 149 1147 l 250 1147 l 448 913 l 378 883 l 199 1061 l 14 883 l -52 912 l 149 1147 m 256 772 l 256 0 l 143 0 l 143 772 l 256 772 z "},"ï":{"ha":399,"x_min":-12,"x_max":411,"o":"m -12 1027 q 0 1068 -12 1050 q 30 1097 12 1086 q 68 1107 48 1107 q 119 1088 102 1107 q 135 1036 135 1069 q 112 977 135 1000 q 56 955 89 955 q 8 974 27 955 q -12 1027 -12 994 m 264 1027 q 275 1068 264 1050 q 305 1097 286 1086 q 344 1107 323 1107 q 394 1088 378 1107 q 411 1036 411 1069 q 388 977 411 1000 q 332 955 364 955 q 283 974 302 955 q 264 1027 264 994 m 256 772 l 256 0 l 143 0 l 143 772 l 256 772 z "},"ì":{"ha":399,"x_min":-39,"x_max":271,"o":"m 256 772 l 256 0 l 143 0 l 143 772 l 256 772 m 213 892 q 81 1004 162 926 q -39 1138 0 1082 l 42 1208 q 132 1097 85 1153 q 254 956 180 1041 l 271 938 l 213 892 z "},"ĳ":{"ha":780,"x_min":121,"x_max":685,"o":"m 256 772 l 256 0 l 143 0 l 143 772 l 256 772 m 121 1019 q 133 1063 121 1043 q 164 1094 144 1082 q 204 1105 183 1105 q 258 1084 239 1105 q 277 1029 277 1063 q 265 983 277 1003 q 234 952 254 963 q 193 941 215 941 q 142 962 163 941 q 121 1019 121 983 m 334 -251 q 370 -260 345 -256 q 413 -264 394 -264 q 511 -208 481 -264 q 542 -28 542 -152 l 542 772 l 654 772 l 654 16 q 598 -258 654 -172 q 425 -344 541 -344 q 372 -341 402 -344 q 334 -335 341 -338 l 334 -251 m 529 1019 q 541 1063 529 1043 q 572 1094 553 1082 q 612 1105 591 1105 q 666 1084 648 1105 q 685 1029 685 1063 q 673 983 685 1003 q 643 952 662 963 q 602 941 623 941 q 550 962 571 941 q 529 1019 529 983 z "},"ī":{"ha":399,"x_min":16,"x_max":384,"o":"m 256 772 l 256 0 l 143 0 l 143 772 l 256 772 m 384 1069 l 384 985 l 16 985 l 16 1069 l 384 1069 z "},"į":{"ha":399,"x_min":14,"x_max":340,"o":"m 196 941 q 144 962 165 941 q 123 1019 123 983 q 135 1063 123 1043 q 166 1094 147 1082 q 207 1105 186 1105 q 261 1084 242 1105 q 279 1029 279 1063 q 268 983 279 1003 q 237 952 256 963 q 196 941 218 941 m 231 -271 q 340 -243 286 -269 l 340 -305 q 272 -336 314 -326 q 186 -347 231 -347 q 99 -330 138 -347 q 37 -279 60 -313 q 14 -201 14 -246 q 57 -88 14 -142 q 155 0 100 -34 l 143 0 l 143 772 l 256 772 l 256 0 l 243 0 q 159 -78 193 -31 q 125 -180 125 -125 q 155 -248 125 -224 q 231 -271 184 -271 z "},"ĩ":{"ha":399,"x_min":-81,"x_max":477,"o":"m 256 772 l 256 0 l 143 0 l 143 772 l 256 772 m -81 991 q -40 1049 -66 1022 q 21 1094 -14 1076 q 95 1111 56 1111 q 162 1096 136 1111 q 216 1055 188 1082 q 258 1021 240 1032 q 301 1010 276 1010 q 375 1030 344 1010 q 431 1081 406 1050 l 477 1043 q 405 959 451 993 q 301 924 358 924 q 248 932 271 924 q 211 952 226 941 q 177 981 195 963 q 136 1015 154 1004 q 94 1025 119 1025 q 22 1005 54 1025 q -36 955 -11 984 l -81 991 z "},"j":{"ha":381,"x_min":-64,"x_max":286,"o":"m -64 -251 q -29 -260 -54 -256 q 14 -264 -5 -264 q 113 -208 82 -264 q 143 -28 143 -152 l 143 772 l 256 772 l 256 16 q 199 -258 256 -172 q 26 -344 142 -344 q -27 -341 3 -344 q -64 -335 -58 -338 l -64 -251 m 130 1019 q 142 1063 130 1043 q 173 1094 154 1082 q 214 1105 193 1105 q 268 1084 249 1105 q 286 1029 286 1063 q 275 983 286 1003 q 244 952 263 963 q 203 941 224 941 q 151 962 172 941 q 130 1019 130 983 z "},"ȷ":{"ha":381,"x_min":-64,"x_max":256,"o":"m -64 -251 q -29 -260 -54 -256 q 14 -264 -5 -264 q 113 -208 82 -264 q 143 -28 143 -152 l 143 772 l 256 772 l 256 16 q 199 -258 256 -172 q 26 -344 142 -344 q -27 -341 3 -344 q -64 -335 -58 -338 l -64 -251 z "},"ĵ":{"ha":381,"x_min":-64,"x_max":456,"o":"m -64 -251 q -29 -260 -54 -256 q 14 -264 -5 -264 q 113 -208 82 -264 q 143 -28 143 -152 l 143 772 l 256 772 l 256 16 q 199 -258 256 -172 q 26 -344 142 -344 q -27 -341 3 -344 q -64 -335 -58 -338 l -64 -251 m 158 1147 l 259 1147 l 456 913 l 387 883 l 208 1061 l 22 883 l -43 912 l 158 1147 z "},"k":{"ha":791,"x_min":127,"x_max":769,"o":"m 359 394 l 237 273 l 240 152 l 240 0 l 127 0 l 127 1126 l 240 1126 l 240 480 l 237 397 l 602 772 l 736 772 l 434 469 l 769 0 l 640 0 l 359 394 z "},"ķ":{"ha":791,"x_min":127,"x_max":769,"o":"m 358 -345 q 383 -301 372 -332 q 394 -234 394 -270 q 379 -172 394 -199 q 345 -139 365 -144 l 345 -113 l 427 -66 q 472 -116 453 -78 q 491 -207 491 -155 q 476 -286 491 -250 q 439 -347 461 -322 q 397 -380 418 -371 l 358 -358 l 358 -345 m 359 394 l 237 273 l 240 152 l 240 0 l 127 0 l 127 1126 l 240 1126 l 240 480 l 237 397 l 602 772 l 736 772 l 434 469 l 769 0 l 640 0 l 359 394 z "},"ĸ":{"ha":794,"x_min":134,"x_max":777,"o":"m 372 376 l 245 243 l 248 136 l 248 0 l 135 0 l 134 773 l 247 773 l 247 434 l 245 367 l 621 772 l 751 772 l 446 453 l 777 0 l 648 0 l 372 376 z "},"l":{"ha":403,"x_min":145,"x_max":258,"o":"m 258 1128 l 258 0 l 145 0 l 145 1128 l 258 1128 z "},"ĺ":{"ha":412,"x_min":145,"x_max":456,"o":"m 146 1126 q 267 1233 172 1147 q 381 1339 362 1318 l 456 1270 q 329 1162 402 1216 q 195 1078 256 1108 l 146 1126 m 258 1040 l 258 0 l 145 0 l 145 1040 l 258 1040 z "},"ľ":{"ha":508,"x_min":145,"x_max":522,"o":"m 258 1128 l 258 0 l 145 0 l 145 1128 l 258 1128 m 379 736 q 387 758 382 747 q 411 840 403 799 q 420 949 420 880 q 409 1030 420 988 q 384 1090 399 1072 l 391 1115 l 481 1143 q 511 1081 501 1124 q 522 981 522 1037 q 498 821 522 896 q 441 703 475 745 l 384 721 l 379 736 z "},"ļ":{"ha":403,"x_min":125,"x_max":271,"o":"m 138 -345 q 163 -301 152 -332 q 174 -234 174 -270 q 159 -172 174 -199 q 125 -139 144 -144 l 125 -113 l 206 -66 q 252 -116 233 -78 q 271 -207 271 -155 q 256 -286 271 -250 q 219 -347 241 -322 q 177 -380 197 -371 l 138 -358 l 138 -345 m 258 1128 l 258 0 l 145 0 l 145 1128 l 258 1128 z "},"ŀ":{"ha":670,"x_min":145,"x_max":618,"o":"m 258 1128 l 258 0 l 145 0 l 145 1128 l 258 1128 m 460 582 q 472 629 460 608 q 503 664 484 651 q 543 676 522 676 q 599 651 579 676 q 618 588 618 626 q 607 541 618 562 q 576 508 595 520 q 536 496 557 496 q 499 507 516 496 q 471 538 481 518 q 460 582 460 557 z "},"ǉ":{"ha":784,"x_min":145,"x_max":689,"o":"m 258 1128 l 258 0 l 145 0 l 145 1128 l 258 1128 m 338 -251 q 374 -260 349 -256 q 417 -264 398 -264 q 515 -208 485 -264 q 546 -28 546 -152 l 546 772 l 659 772 l 659 16 q 602 -258 659 -172 q 429 -344 545 -344 q 376 -341 406 -344 q 338 -335 345 -338 l 338 -251 m 533 1019 q 545 1063 533 1043 q 576 1094 557 1082 q 616 1105 595 1105 q 670 1084 652 1105 q 689 1029 689 1063 q 677 983 689 1003 q 647 952 666 963 q 606 941 627 941 q 554 962 575 941 q 533 1019 533 983 z "},"ł":{"ha":403,"x_min":10,"x_max":389,"o":"m 389 695 l 258 645 l 258 0 l 145 0 l 145 602 l 10 549 l 10 627 l 145 682 l 145 1128 l 258 1128 l 258 726 l 389 779 l 389 695 z "},"m":{"ha":1341,"x_min":131,"x_max":1215,"o":"m 995 785 q 1123 755 1076 785 q 1193 658 1171 725 q 1215 477 1215 591 l 1215 0 l 1103 0 l 1103 471 q 1091 597 1103 551 q 1046 668 1080 644 q 946 690 1012 692 q 836 665 895 689 q 728 607 777 640 q 736 480 736 553 l 736 0 l 623 0 l 623 473 q 611 602 623 555 q 567 670 600 648 q 471 689 534 692 q 355 660 420 687 q 244 595 290 633 l 244 0 l 131 0 l 131 772 l 232 772 l 233 673 q 311 724 264 699 q 412 766 358 749 q 517 785 467 784 q 638 762 592 786 q 708 682 684 739 q 840 753 762 722 q 995 785 918 785 z "},"ṁ":{"ha":1341,"x_min":131,"x_max":1215,"o":"m 995 785 q 1123 755 1076 785 q 1193 658 1171 725 q 1215 477 1215 591 l 1215 0 l 1103 0 l 1103 471 q 1091 597 1103 551 q 1046 668 1080 644 q 946 690 1012 692 q 836 665 895 689 q 728 607 777 640 q 736 480 736 553 l 736 0 l 623 0 l 623 473 q 611 602 623 555 q 567 670 600 648 q 471 689 534 692 q 355 660 420 687 q 244 595 290 633 l 244 0 l 131 0 l 131 772 l 232 772 l 233 673 q 311 724 264 699 q 412 766 358 749 q 517 785 467 784 q 638 762 592 786 q 708 682 684 739 q 840 753 762 722 q 995 785 918 785 m 602 1019 q 614 1063 602 1043 q 645 1094 626 1082 q 686 1105 665 1105 q 740 1084 721 1105 q 758 1029 758 1063 q 747 983 758 1003 q 716 952 735 963 q 675 941 696 941 q 623 962 644 941 q 602 1019 602 983 z "},"n":{"ha":873,"x_min":131,"x_max":748,"o":"m 232 772 l 233 673 q 368 750 288 715 q 525 785 448 785 q 655 754 607 785 q 726 658 704 724 q 748 478 748 591 l 748 0 l 635 0 l 635 479 q 621 605 635 559 q 571 672 607 651 q 470 690 536 693 q 355 662 418 690 q 244 595 292 633 l 244 0 l 131 0 l 131 772 l 232 772 z "},"ń":{"ha":873,"x_min":131,"x_max":748,"o":"m 391 938 q 521 1084 470 1024 q 619 1208 572 1143 l 701 1138 q 630 1055 679 1105 q 530 957 582 1004 q 449 892 479 911 l 391 938 m 232 772 l 233 673 q 368 750 288 715 q 525 785 448 785 q 655 754 607 785 q 726 658 704 724 q 748 478 748 591 l 748 0 l 635 0 l 635 479 q 621 605 635 559 q 571 672 607 651 q 470 690 536 693 q 355 662 418 690 q 244 595 292 633 l 244 0 l 131 0 l 131 772 l 232 772 z "},"ŉ":{"ha":873,"x_min":131,"x_max":748,"o":"m 386 -345 q 411 -301 400 -332 q 422 -234 422 -270 q 407 -172 422 -199 q 373 -139 393 -144 l 373 -113 l 454 -66 q 500 -116 481 -78 q 519 -207 519 -155 q 504 -286 519 -250 q 467 -347 489 -322 q 425 -380 446 -371 l 386 -358 l 386 -345 m 232 772 l 233 673 q 368 750 288 715 q 525 785 448 785 q 655 754 607 785 q 726 658 704 724 q 748 478 748 591 l 748 0 l 635 0 l 635 479 q 621 605 635 559 q 571 672 607 651 q 470 690 536 693 q 355 662 418 690 q 244 595 292 633 l 244 0 l 131 0 l 131 772 l 232 772 z "},"ň":{"ha":873,"x_min":131,"x_max":748,"o":"m 474 983 l 652 1161 l 722 1131 l 525 897 l 424 897 l 222 1132 l 288 1161 l 474 983 m 232 772 l 233 673 q 368 750 288 715 q 525 785 448 785 q 655 754 607 785 q 726 658 704 724 q 748 478 748 591 l 748 0 l 635 0 l 635 479 q 621 605 635 559 q 571 672 607 651 q 470 690 536 693 q 355 662 418 690 q 244 595 292 633 l 244 0 l 131 0 l 131 772 l 232 772 z "},"ņ":{"ha":873,"x_min":131,"x_max":748,"o":"m 386 -345 q 411 -301 400 -332 q 422 -234 422 -270 q 407 -172 422 -199 q 373 -139 393 -144 l 373 -113 l 454 -66 q 500 -116 481 -78 q 519 -207 519 -155 q 504 -286 519 -250 q 467 -347 489 -322 q 425 -380 446 -371 l 386 -358 l 386 -345 m 232 772 l 233 673 q 368 750 288 715 q 525 785 448 785 q 655 754 607 785 q 726 658 704 724 q 748 478 748 591 l 748 0 l 635 0 l 635 479 q 621 605 635 559 q 571 672 607 651 q 470 690 536 693 q 355 662 418 690 q 244 595 292 633 l 244 0 l 131 0 l 131 772 l 232 772 z "},"ŋ":{"ha":878,"x_min":131,"x_max":751,"o":"m 232 772 l 232 673 q 371 749 288 714 q 534 785 454 785 q 662 755 614 785 q 730 659 709 725 q 751 480 751 593 l 751 -9 q 697 -257 751 -170 q 536 -344 644 -344 q 482 -341 515 -344 q 441 -334 448 -338 l 441 -256 q 473 -261 450 -259 q 513 -264 497 -264 q 587 -240 559 -263 q 627 -164 614 -216 q 639 -24 639 -113 l 639 477 q 624 608 639 562 q 574 673 608 654 q 479 690 539 692 q 359 661 426 688 q 245 596 292 633 l 245 0 l 131 0 l 131 772 l 232 772 z "},"ǌ":{"ha":1255,"x_min":131,"x_max":1160,"o":"m 232 772 l 233 673 q 368 750 288 715 q 525 785 448 785 q 655 754 607 785 q 726 658 704 724 q 748 478 748 591 l 748 0 l 635 0 l 635 479 q 621 605 635 559 q 571 672 607 651 q 470 690 536 693 q 355 662 418 690 q 244 595 292 633 l 244 0 l 131 0 l 131 772 l 232 772 m 809 -251 q 844 -260 820 -256 q 888 -264 869 -264 q 986 -208 956 -264 q 1017 -28 1017 -152 l 1017 772 l 1129 772 l 1129 16 q 1073 -258 1129 -172 q 899 -344 1016 -344 q 846 -341 877 -344 q 809 -335 816 -338 l 809 -251 m 1004 1019 q 1016 1063 1004 1043 q 1047 1094 1027 1082 q 1087 1105 1066 1105 q 1141 1084 1122 1105 q 1160 1029 1160 1063 q 1148 983 1160 1003 q 1117 952 1137 963 q 1076 941 1098 941 q 1025 962 1046 941 q 1004 1019 1004 983 z "},"ñ":{"ha":873,"x_min":131,"x_max":751,"o":"m 232 772 l 233 673 q 368 750 288 715 q 525 785 448 785 q 655 754 607 785 q 726 658 704 724 q 748 478 748 591 l 748 0 l 635 0 l 635 479 q 621 605 635 559 q 571 672 607 651 q 470 690 536 693 q 355 662 418 690 q 244 595 292 633 l 244 0 l 131 0 l 131 772 l 232 772 m 193 991 q 234 1049 208 1022 q 295 1094 260 1076 q 369 1111 330 1111 q 436 1096 410 1111 q 490 1055 462 1082 q 532 1021 514 1032 q 575 1010 550 1010 q 649 1030 618 1010 q 705 1081 680 1050 l 751 1043 q 679 959 725 993 q 575 924 632 924 q 522 932 545 924 q 485 952 500 941 q 451 981 469 963 q 410 1015 428 1004 q 368 1025 393 1025 q 296 1005 328 1025 q 238 955 263 984 l 193 991 z "},"o":{"ha":829,"x_min":71,"x_max":758,"o":"m 71 392 q 117 603 71 515 q 242 738 162 692 q 422 784 321 784 q 612 731 536 784 q 723 587 687 677 q 758 385 758 497 q 713 172 758 262 q 589 36 669 83 q 408 -11 510 -11 q 217 43 292 -11 q 106 188 141 98 q 71 392 71 279 m 644 383 q 619 547 644 475 q 543 660 594 618 q 416 702 492 702 q 293 666 345 702 q 214 561 241 629 q 186 397 186 492 q 211 231 186 305 q 287 114 236 157 q 414 70 338 70 q 538 108 487 70 q 617 216 590 146 q 644 383 644 287 z "},"ó":{"ha":829,"x_min":71,"x_max":758,"o":"m 338 938 q 469 1084 418 1024 q 567 1208 520 1143 l 648 1138 q 578 1055 627 1105 q 478 957 530 1004 q 397 892 427 911 l 338 938 m 71 392 q 117 603 71 515 q 242 738 162 692 q 422 784 321 784 q 612 731 536 784 q 723 587 687 677 q 758 385 758 497 q 713 172 758 262 q 589 36 669 83 q 408 -11 510 -11 q 217 43 292 -11 q 106 188 141 98 q 71 392 71 279 m 644 383 q 619 547 644 475 q 543 660 594 618 q 416 702 492 702 q 293 666 345 702 q 214 561 241 629 q 186 397 186 492 q 211 231 186 305 q 287 114 236 157 q 414 70 338 70 q 538 108 487 70 q 617 216 590 146 q 644 383 644 287 z "},"ŏ":{"ha":829,"x_min":71,"x_max":758,"o":"m 71 392 q 117 603 71 515 q 242 738 162 692 q 422 784 321 784 q 612 731 536 784 q 723 587 687 677 q 758 385 758 497 q 713 172 758 262 q 589 36 669 83 q 408 -11 510 -11 q 217 43 292 -11 q 106 188 141 98 q 71 392 71 279 m 644 383 q 619 547 644 475 q 543 660 594 618 q 416 702 492 702 q 293 666 345 702 q 214 561 241 629 q 186 397 186 492 q 211 231 186 305 q 287 114 236 157 q 414 70 338 70 q 538 108 487 70 q 617 216 590 146 q 644 383 644 287 m 271 1149 q 283 1086 272 1121 q 328 1022 294 1051 q 421 994 361 994 q 514 1023 480 994 q 560 1088 547 1052 q 572 1149 572 1124 l 650 1149 q 650 1133 650 1143 q 621 1022 650 1075 q 539 938 591 970 q 420 905 486 905 q 299 938 351 905 q 219 1022 247 970 q 191 1133 191 1074 q 191 1149 191 1143 l 271 1149 z "},"ǒ":{"ha":829,"x_min":71,"x_max":758,"o":"m 71 392 q 117 603 71 515 q 242 738 162 692 q 422 784 321 784 q 612 731 536 784 q 723 587 687 677 q 758 385 758 497 q 713 172 758 262 q 589 36 669 83 q 408 -11 510 -11 q 217 43 292 -11 q 106 188 141 98 q 71 392 71 279 m 644 383 q 619 547 644 475 q 543 660 594 618 q 416 702 492 702 q 293 666 345 702 q 214 561 241 629 q 186 397 186 492 q 211 231 186 305 q 287 114 236 157 q 414 70 338 70 q 538 108 487 70 q 617 216 590 146 q 644 383 644 287 m 422 983 l 600 1161 l 670 1131 l 473 897 l 372 897 l 170 1132 l 236 1161 l 422 983 z "},"ô":{"ha":829,"x_min":71,"x_max":758,"o":"m 371 1147 l 472 1147 l 669 913 l 600 883 l 421 1061 l 235 883 l 170 912 l 371 1147 m 71 392 q 117 603 71 515 q 242 738 162 692 q 422 784 321 784 q 612 731 536 784 q 723 587 687 677 q 758 385 758 497 q 713 172 758 262 q 589 36 669 83 q 408 -11 510 -11 q 217 43 292 -11 q 106 188 141 98 q 71 392 71 279 m 644 383 q 619 547 644 475 q 543 660 594 618 q 416 702 492 702 q 293 666 345 702 q 214 561 241 629 q 186 397 186 492 q 211 231 186 305 q 287 114 236 157 q 414 70 338 70 q 538 108 487 70 q 617 216 590 146 q 644 383 644 287 z "},"ö":{"ha":829,"x_min":71,"x_max":758,"o":"m 195 1027 q 206 1068 195 1050 q 236 1097 218 1086 q 275 1107 254 1107 q 325 1088 309 1107 q 342 1036 342 1069 q 318 977 342 1000 q 262 955 295 955 q 214 974 233 955 q 195 1027 195 994 m 501 1027 q 512 1068 501 1050 q 542 1097 524 1086 q 581 1107 560 1107 q 631 1088 614 1107 q 648 1036 648 1069 q 624 977 648 1000 q 568 955 601 955 q 520 974 539 955 q 501 1027 501 994 m 71 392 q 117 603 71 515 q 242 738 162 692 q 422 784 321 784 q 612 731 536 784 q 723 587 687 677 q 758 385 758 497 q 713 172 758 262 q 589 36 669 83 q 408 -11 510 -11 q 217 43 292 -11 q 106 188 141 98 q 71 392 71 279 m 644 383 q 619 547 644 475 q 543 660 594 618 q 416 702 492 702 q 293 666 345 702 q 214 561 241 629 q 186 397 186 492 q 211 231 186 305 q 287 114 236 157 q 414 70 338 70 q 538 108 487 70 q 617 216 590 146 q 644 383 644 287 z "},"ò":{"ha":829,"x_min":71,"x_max":758,"o":"m 71 392 q 117 603 71 515 q 242 738 162 692 q 422 784 321 784 q 612 731 536 784 q 723 587 687 677 q 758 385 758 497 q 713 172 758 262 q 589 36 669 83 q 408 -11 510 -11 q 217 43 292 -11 q 106 188 141 98 q 71 392 71 279 m 644 383 q 619 547 644 475 q 543 660 594 618 q 416 702 492 702 q 293 666 345 702 q 214 561 241 629 q 186 397 186 492 q 211 231 186 305 q 287 114 236 157 q 414 70 338 70 q 538 108 487 70 q 617 216 590 146 q 644 383 644 287 m 435 892 q 303 1004 384 926 q 182 1138 222 1082 l 264 1208 q 354 1097 307 1153 q 476 956 401 1041 l 492 938 l 435 892 z "},"ő":{"ha":829,"x_min":71,"x_max":783,"o":"m 184 955 q 273 1090 197 972 q 363 1232 349 1208 l 447 1175 q 347 1036 412 1116 q 237 918 281 956 l 184 955 m 517 955 q 610 1089 532 973 q 703 1226 689 1204 l 783 1168 q 684 1034 751 1113 q 570 918 616 956 l 517 955 m 71 392 q 117 603 71 515 q 242 738 162 692 q 422 784 321 784 q 612 731 536 784 q 723 587 687 677 q 758 385 758 497 q 713 172 758 262 q 589 36 669 83 q 408 -11 510 -11 q 217 43 292 -11 q 106 188 141 98 q 71 392 71 279 m 644 383 q 619 547 644 475 q 543 660 594 618 q 416 702 492 702 q 293 666 345 702 q 214 561 241 629 q 186 397 186 492 q 211 231 186 305 q 287 114 236 157 q 414 70 338 70 q 538 108 487 70 q 617 216 590 146 q 644 383 644 287 z "},"ō":{"ha":829,"x_min":71,"x_max":758,"o":"m 606 1069 l 606 985 l 237 985 l 237 1069 l 606 1069 m 71 392 q 117 603 71 515 q 242 738 162 692 q 422 784 321 784 q 612 731 536 784 q 723 587 687 677 q 758 385 758 497 q 713 172 758 262 q 589 36 669 83 q 408 -11 510 -11 q 217 43 292 -11 q 106 188 141 98 q 71 392 71 279 m 644 383 q 619 547 644 475 q 543 660 594 618 q 416 702 492 702 q 293 666 345 702 q 214 561 241 629 q 186 397 186 492 q 211 231 186 305 q 287 114 236 157 q 414 70 338 70 q 538 108 487 70 q 617 216 590 146 q 644 383 644 287 z "},"ø":{"ha":831,"x_min":70,"x_max":762,"o":"m 574 753 q 716 608 669 708 q 761 376 762 507 q 713 168 759 255 q 589 35 668 81 q 409 -11 509 -11 q 321 -1 363 -11 l 277 -132 l 212 -114 l 256 20 q 116 163 162 64 q 70 392 70 262 q 116 603 70 515 q 241 738 161 692 q 423 784 321 784 q 510 774 469 784 l 554 906 l 619 887 l 574 753 m 185 395 q 211 228 185 302 q 288 113 237 154 l 482 693 q 417 702 450 702 q 292 666 345 702 q 213 561 240 629 q 185 395 185 492 m 646 384 q 620 549 646 476 q 543 661 594 621 l 348 80 q 415 70 383 70 q 539 108 488 70 q 618 217 591 146 q 646 384 646 288 z "},"ǿ":{"ha":831,"x_min":70,"x_max":762,"o":"m 574 753 q 716 608 669 708 q 761 376 762 507 q 713 168 759 255 q 589 35 668 81 q 409 -11 509 -11 q 321 -1 363 -11 l 277 -132 l 212 -114 l 256 20 q 116 163 162 64 q 70 392 70 262 q 116 603 70 515 q 241 738 161 692 q 423 784 321 784 q 510 774 469 784 l 554 906 l 619 887 l 574 753 m 185 395 q 211 228 185 302 q 288 113 237 154 l 482 693 q 417 702 450 702 q 292 666 345 702 q 213 561 240 629 q 185 395 185 492 m 646 384 q 620 549 646 476 q 543 661 594 621 l 348 80 q 415 70 383 70 q 539 108 488 70 q 618 217 591 146 q 646 384 646 288 m 260 938 q 391 1084 340 1024 q 489 1208 442 1143 l 570 1138 q 500 1055 549 1105 q 400 957 452 1004 q 319 892 349 911 l 260 938 z "},"õ":{"ha":829,"x_min":71,"x_max":758,"o":"m 71 392 q 117 603 71 515 q 242 738 162 692 q 422 784 321 784 q 612 731 536 784 q 723 587 687 677 q 758 385 758 497 q 713 172 758 262 q 589 36 669 83 q 408 -11 510 -11 q 217 43 292 -11 q 106 188 141 98 q 71 392 71 279 m 644 383 q 619 547 644 475 q 543 660 594 618 q 416 702 492 702 q 293 666 345 702 q 214 561 241 629 q 186 397 186 492 q 211 231 186 305 q 287 114 236 157 q 414 70 338 70 q 538 108 487 70 q 617 216 590 146 q 644 383 644 287 m 141 991 q 182 1049 156 1022 q 243 1094 208 1076 q 317 1111 278 1111 q 384 1096 358 1111 q 438 1055 410 1082 q 480 1021 462 1032 q 523 1010 498 1010 q 596 1030 566 1010 q 653 1081 627 1050 l 699 1043 q 626 959 673 993 q 523 924 580 924 q 470 932 492 924 q 432 952 448 941 q 399 981 417 963 q 358 1015 376 1004 q 315 1025 340 1025 q 243 1005 276 1025 q 186 955 211 984 l 141 991 z "},"œ":{"ha":1342,"x_min":71,"x_max":1271,"o":"m 759 375 q 759 359 758 366 q 759 348 759 353 q 830 141 763 206 q 1012 75 898 75 q 1129 91 1064 75 q 1224 126 1194 106 l 1246 60 q 1133 9 1208 29 q 984 -11 1057 -11 q 812 29 884 -11 q 699 146 740 69 q 578 30 653 70 q 408 -11 503 -11 q 217 43 292 -11 q 106 188 141 98 q 71 392 71 279 q 117 603 71 515 q 243 738 163 692 q 425 784 323 784 q 595 742 526 784 q 706 625 665 700 q 824 742 750 701 q 998 784 899 784 q 1139 748 1078 784 q 1235 646 1200 712 q 1271 494 1269 581 q 1270 422 1271 448 q 1265 375 1269 397 l 759 375 m 986 703 q 837 641 896 703 q 763 451 777 579 l 1164 451 q 1165 479 1165 460 q 1122 643 1165 583 q 986 703 1079 703 m 648 381 l 648 383 l 648 385 q 622 547 647 475 q 545 661 596 619 q 418 702 493 702 q 294 666 346 702 q 214 561 242 629 q 186 397 186 492 q 211 231 186 305 q 288 114 236 157 q 415 70 339 70 q 539 107 487 70 q 620 215 592 145 q 648 380 648 285 l 648 381 z "},"p":{"ha":846,"x_min":127,"x_max":776,"o":"m 471 784 q 623 744 554 784 q 734 621 692 704 q 776 412 776 537 q 728 193 776 289 q 591 43 680 97 q 389 -11 503 -11 q 237 15 308 -11 l 239 -94 l 239 -343 l 127 -343 l 127 773 l 229 773 l 229 683 q 328 754 271 724 q 471 784 385 784 m 661 404 q 603 622 661 548 q 440 695 545 695 q 327 671 380 695 q 239 616 275 648 l 239 111 q 300 82 260 93 q 399 72 340 72 q 534 111 475 72 q 627 225 593 151 q 661 404 661 300 z "},"ṗ":{"ha":846,"x_min":127,"x_max":776,"o":"m 471 784 q 623 744 554 784 q 734 621 692 704 q 776 412 776 537 q 728 193 776 289 q 591 43 680 97 q 389 -11 503 -11 q 237 15 308 -11 l 239 -94 l 239 -343 l 127 -343 l 127 773 l 229 773 l 229 683 q 328 754 271 724 q 471 784 385 784 m 661 404 q 603 622 661 548 q 440 695 545 695 q 327 671 380 695 q 239 616 275 648 l 239 111 q 300 82 260 93 q 399 72 340 72 q 534 111 475 72 q 627 225 593 151 q 661 404 661 300 m 394 1019 q 406 1063 394 1043 q 437 1094 418 1082 q 477 1105 456 1105 q 531 1084 513 1105 q 550 1029 550 1063 q 538 983 550 1003 q 508 952 527 963 q 467 941 488 941 q 415 962 436 941 q 394 1019 394 983 z "},"þ":{"ha":846,"x_min":127,"x_max":777,"o":"m 127 1126 l 241 1126 l 241 804 l 235 672 l 241 669 l 241 94 l 127 43 l 127 1126 m 127 43 q 183 20 142 33 q 280 -2 225 7 q 387 -12 334 -12 q 590 42 502 -12 q 728 193 679 96 q 777 415 777 290 q 736 618 777 535 q 627 743 696 701 q 471 784 558 784 q 322 751 380 784 q 221 674 264 718 l 239 615 q 328 671 273 646 q 441 695 382 695 q 605 621 549 695 q 661 405 661 547 q 626 222 661 297 q 530 110 590 147 q 399 72 471 72 q 303 81 347 72 q 241 105 260 90 l 127 43 m 241 -102 l 241 -344 l 127 -344 l 127 43 l 233 20 l 241 -102 z "},"q":{"ha":840,"x_min":69,"x_max":719,"o":"m 719 776 l 719 -343 l 606 -343 l 606 -94 l 608 82 q 374 -11 511 -11 q 222 29 292 -11 q 111 153 153 69 q 69 361 69 237 q 118 580 69 484 q 254 730 166 676 q 457 784 342 784 q 546 776 503 784 q 621 755 589 768 l 621 757 l 719 776 m 185 377 q 241 154 183 229 q 405 78 299 78 q 517 101 465 78 q 606 155 569 125 l 606 663 q 546 691 587 680 q 446 701 505 701 q 313 663 372 701 q 220 551 254 625 q 185 377 186 477 z "},"r":{"ha":560,"x_min":125,"x_max":537,"o":"m 464 784 q 537 775 516 784 l 537 669 q 444 684 507 684 q 328 657 382 684 q 239 595 274 630 l 239 0 l 125 0 l 125 772 l 222 772 l 229 669 q 284 719 246 692 q 369 765 321 746 q 464 784 417 784 z "},"ŕ":{"ha":560,"x_min":125,"x_max":560,"o":"m 250 938 q 381 1084 330 1024 q 479 1208 432 1143 l 560 1138 q 490 1055 538 1105 q 390 957 441 1004 q 309 892 338 911 l 250 938 m 464 784 q 537 775 516 784 l 537 669 q 444 684 507 684 q 328 657 382 684 q 239 595 274 630 l 239 0 l 125 0 l 125 772 l 222 772 l 229 669 q 284 719 246 692 q 369 765 321 746 q 464 784 417 784 z "},"ř":{"ha":560,"x_min":82,"x_max":582,"o":"m 334 983 l 512 1161 l 582 1131 l 385 897 l 283 897 l 82 1132 l 148 1161 l 334 983 m 464 784 q 537 775 516 784 l 537 669 q 444 684 507 684 q 328 657 382 684 q 239 595 274 630 l 239 0 l 125 0 l 125 772 l 222 772 l 229 669 q 284 719 246 692 q 369 765 321 746 q 464 784 417 784 z "},"ŗ":{"ha":560,"x_min":112,"x_max":537,"o":"m 125 -345 q 150 -301 139 -332 q 161 -234 161 -270 q 146 -172 161 -199 q 112 -139 132 -144 l 112 -113 l 193 -66 q 239 -116 220 -78 q 258 -207 258 -155 q 243 -286 258 -250 q 206 -347 228 -322 q 164 -380 184 -371 l 125 -358 l 125 -345 m 464 784 q 537 775 516 784 l 537 669 q 444 684 507 684 q 328 657 382 684 q 239 595 274 630 l 239 0 l 125 0 l 125 772 l 222 772 l 229 669 q 284 719 246 692 q 369 765 321 746 q 464 784 417 784 z "},"s":{"ha":667,"x_min":83,"x_max":599,"o":"m 101 130 q 153 106 117 119 q 234 83 189 93 q 323 73 280 74 q 447 104 400 73 q 493 193 493 135 q 468 259 493 231 q 407 304 443 286 q 309 348 372 322 q 148 445 206 390 q 90 586 90 500 q 126 696 90 651 q 224 762 163 741 q 363 784 286 784 q 479 771 423 784 q 558 744 534 758 l 539 658 q 468 687 518 674 q 363 700 418 700 q 238 670 282 700 q 195 593 195 641 q 215 527 195 555 q 272 478 236 498 q 363 436 308 457 q 479 382 429 410 q 564 308 529 353 q 599 201 599 263 q 566 86 599 134 q 472 14 533 39 q 329 -11 412 -11 q 188 5 257 -11 q 83 45 119 22 l 101 130 z "},"ś":{"ha":667,"x_min":83,"x_max":599,"o":"m 267 938 q 397 1084 346 1024 q 495 1208 448 1143 l 576 1138 q 506 1055 555 1105 q 406 957 458 1004 q 325 892 355 911 l 267 938 m 101 130 q 153 106 117 119 q 234 83 189 93 q 323 73 280 74 q 447 104 400 73 q 493 193 493 135 q 468 259 493 231 q 407 304 443 286 q 309 348 372 322 q 148 445 206 390 q 90 586 90 500 q 126 696 90 651 q 224 762 163 741 q 363 784 286 784 q 479 771 423 784 q 558 744 534 758 l 539 658 q 468 687 518 674 q 363 700 418 700 q 238 670 282 700 q 195 593 195 641 q 215 527 195 555 q 272 478 236 498 q 363 436 308 457 q 479 382 429 410 q 564 308 529 353 q 599 201 599 263 q 566 86 599 134 q 472 14 533 39 q 329 -11 412 -11 q 188 5 257 -11 q 83 45 119 22 l 101 130 z "},"š":{"ha":667,"x_min":83,"x_max":599,"o":"m 350 983 l 528 1161 l 598 1131 l 401 897 l 300 897 l 98 1132 l 164 1161 l 350 983 m 101 130 q 153 106 117 119 q 234 83 189 93 q 323 73 280 74 q 447 104 400 73 q 493 193 493 135 q 468 259 493 231 q 407 304 443 286 q 309 348 372 322 q 148 445 206 390 q 90 586 90 500 q 126 696 90 651 q 224 762 163 741 q 363 784 286 784 q 479 771 423 784 q 558 744 534 758 l 539 658 q 468 687 518 674 q 363 700 418 700 q 238 670 282 700 q 195 593 195 641 q 215 527 195 555 q 272 478 236 498 q 363 436 308 457 q 479 382 429 410 q 564 308 529 353 q 599 201 599 263 q 566 86 599 134 q 472 14 533 39 q 329 -11 412 -11 q 188 5 257 -11 q 83 45 119 22 l 101 130 z "},"ş":{"ha":667,"x_min":83,"x_max":599,"o":"m 599 201 q 538 55 599 110 q 372 -9 478 1 q 393 -129 393 -56 q 392 -157 393 -148 q 344 -276 387 -238 q 237 -315 301 -315 q 182 -309 211 -315 q 142 -296 153 -304 l 150 -222 q 175 -231 159 -227 q 211 -234 192 -234 q 279 -207 254 -234 q 308 -122 305 -180 q 310 -83 310 -101 q 300 -10 310 -42 q 175 9 235 -7 q 83 45 115 24 l 101 130 q 153 106 117 119 q 234 83 189 93 q 323 73 280 74 q 447 104 400 73 q 493 193 493 135 q 468 259 493 231 q 407 304 443 286 q 309 348 372 322 q 148 445 206 390 q 90 586 90 500 q 126 696 90 651 q 224 762 163 741 q 363 784 286 784 q 479 771 423 784 q 558 744 534 758 l 539 658 q 468 687 518 674 q 363 700 418 700 q 238 670 282 700 q 195 593 195 641 q 215 527 195 555 q 272 478 236 498 q 363 436 308 457 q 479 382 429 410 q 564 308 529 353 q 599 201 599 263 z "},"ŝ":{"ha":667,"x_min":83,"x_max":599,"o":"m 298 1147 l 399 1147 l 597 913 l 527 883 l 349 1061 l 163 883 l 97 912 l 298 1147 m 101 130 q 153 106 117 119 q 234 83 189 93 q 323 73 280 74 q 447 104 400 73 q 493 193 493 135 q 468 259 493 231 q 407 304 443 286 q 309 348 372 322 q 148 445 206 390 q 90 586 90 500 q 126 696 90 651 q 224 762 163 741 q 363 784 286 784 q 479 771 423 784 q 558 744 534 758 l 539 658 q 468 687 518 674 q 363 700 418 700 q 238 670 282 700 q 195 593 195 641 q 215 527 195 555 q 272 478 236 498 q 363 436 308 457 q 479 382 429 410 q 564 308 529 353 q 599 201 599 263 q 566 86 599 134 q 472 14 533 39 q 329 -11 412 -11 q 188 5 257 -11 q 83 45 119 22 l 101 130 z "},"ș":{"ha":667,"x_min":83,"x_max":599,"o":"m 278 -345 q 303 -301 292 -332 q 314 -234 314 -270 q 299 -172 314 -199 q 265 -139 285 -144 l 265 -113 l 347 -66 q 392 -116 373 -78 q 411 -207 411 -155 q 396 -286 411 -250 q 359 -347 381 -322 q 317 -380 338 -371 l 278 -358 l 278 -345 m 101 130 q 153 106 117 119 q 234 83 189 93 q 323 73 280 74 q 447 104 400 73 q 493 193 493 135 q 468 259 493 231 q 407 304 443 286 q 309 348 372 322 q 148 445 206 390 q 90 586 90 500 q 126 696 90 651 q 224 762 163 741 q 363 784 286 784 q 479 771 423 784 q 558 744 534 758 l 539 658 q 468 687 518 674 q 363 700 418 700 q 238 670 282 700 q 195 593 195 641 q 215 527 195 555 q 272 478 236 498 q 363 436 308 457 q 479 382 429 410 q 564 308 529 353 q 599 201 599 263 q 566 86 599 134 q 472 14 533 39 q 329 -11 412 -11 q 188 5 257 -11 q 83 45 119 22 l 101 130 z "},"ṡ":{"ha":667,"x_min":83,"x_max":599,"o":"m 101 130 q 153 106 117 119 q 234 83 189 93 q 323 73 280 74 q 447 104 400 73 q 493 193 493 135 q 468 259 493 231 q 407 304 443 286 q 309 348 372 322 q 148 445 206 390 q 90 586 90 500 q 126 696 90 651 q 224 762 163 741 q 363 784 286 784 q 479 771 423 784 q 558 744 534 758 l 539 658 q 468 687 518 674 q 363 700 418 700 q 238 670 282 700 q 195 593 195 641 q 215 527 195 555 q 272 478 236 498 q 363 436 308 457 q 479 382 429 410 q 564 308 529 353 q 599 201 599 263 q 566 86 599 134 q 472 14 533 39 q 329 -11 412 -11 q 188 5 257 -11 q 83 45 119 22 l 101 130 m 271 1019 q 282 1063 271 1043 q 314 1094 294 1082 q 354 1105 333 1105 q 408 1084 389 1105 q 427 1029 427 1063 q 415 983 427 1003 q 384 952 404 963 q 343 941 365 941 q 292 962 313 941 q 271 1019 271 983 z "},"ß":{"ha":862,"x_min":30,"x_max":832,"o":"m 581 593 q 594 541 581 564 q 628 498 608 517 q 684 452 648 480 q 761 386 732 415 q 811 313 790 357 q 832 211 832 269 q 793 84 832 134 q 693 12 754 35 q 565 -11 633 -11 q 473 -4 517 -11 q 408 12 430 2 l 408 101 q 473 79 433 88 q 569 69 514 69 q 642 83 608 69 q 697 127 676 98 q 718 199 718 156 q 702 267 718 237 q 665 319 687 296 q 604 373 642 341 q 536 433 562 408 q 493 496 511 459 q 475 580 475 532 q 493 650 475 620 q 546 719 511 680 q 586 767 571 747 q 611 814 601 787 q 621 873 621 840 q 578 962 621 933 q 467 990 535 990 q 303 911 363 990 q 243 661 243 833 l 243 0 l 130 0 l 130 669 l 130 688 l 30 688 l 30 755 l 138 775 q 205 941 156 875 q 327 1039 255 1007 q 486 1071 399 1071 q 609 1050 552 1071 q 700 988 665 1030 q 734 887 734 947 q 721 812 734 845 q 690 755 708 779 q 642 700 671 731 q 595 644 610 667 q 581 593 581 621 z "},"t":{"ha":576,"x_min":55,"x_max":543,"o":"m 163 688 l 55 688 l 55 749 q 94 759 66 753 q 149 775 131 768 q 174 799 168 783 q 188 861 178 810 q 208 949 199 921 l 275 949 l 275 773 l 515 773 l 515 688 l 275 688 l 275 247 q 285 136 275 171 q 315 91 294 101 q 378 80 336 80 q 458 93 412 80 q 524 119 504 105 l 543 53 q 452 9 513 28 q 339 -11 391 -11 q 247 4 286 -11 q 186 62 209 20 q 163 183 163 104 l 163 688 z "},"ŧ":{"ha":576,"x_min":54,"x_max":543,"o":"m 543 53 q 452 9 513 28 q 339 -11 391 -11 q 247 4 286 -11 q 186 62 209 20 q 163 183 163 104 l 163 418 l 54 418 l 54 503 l 163 503 l 163 688 l 55 688 l 55 749 q 94 759 66 753 q 149 775 131 768 q 174 799 168 783 q 188 861 178 810 q 208 949 199 921 l 275 949 l 275 773 l 515 773 l 515 688 l 275 688 l 275 503 l 515 503 l 515 418 l 275 418 l 275 247 q 285 136 275 171 q 315 91 294 101 q 378 80 336 80 q 458 93 412 80 q 524 119 504 105 l 543 53 z "},"ť":{"ha":675,"x_min":55,"x_max":634,"o":"m 163 688 l 55 688 l 55 749 q 94 759 66 753 q 149 775 131 768 q 174 799 168 783 q 188 861 178 810 q 208 949 199 921 l 275 949 l 275 773 l 515 773 l 515 688 l 275 688 l 275 247 q 285 136 275 171 q 315 91 294 101 q 378 80 336 80 q 458 93 412 80 q 524 119 504 105 l 543 53 q 452 9 513 28 q 339 -11 391 -11 q 247 4 286 -11 q 186 62 209 20 q 163 183 163 104 l 163 688 m 492 844 q 500 866 495 855 q 524 947 515 907 q 532 1057 532 988 q 522 1138 532 1096 q 496 1198 511 1179 l 503 1223 l 593 1251 q 624 1188 614 1232 q 634 1089 634 1145 q 611 928 634 1004 q 553 811 587 853 l 496 829 l 492 844 z "},"ţ":{"ha":576,"x_min":55,"x_max":543,"o":"m 543 53 q 456 10 514 29 q 347 -11 398 -9 q 368 -130 368 -58 q 367 -157 368 -148 q 319 -276 362 -238 q 212 -315 276 -315 q 157 -309 186 -315 q 117 -296 128 -304 l 125 -222 q 150 -231 134 -227 q 186 -234 167 -234 q 254 -207 229 -234 q 283 -122 280 -180 q 285 -83 285 -101 q 273 -4 285 -37 q 192 52 221 8 q 163 183 163 95 l 163 688 l 55 688 l 55 749 q 94 759 66 753 q 149 775 131 768 q 174 799 168 783 q 188 861 178 810 q 208 949 199 921 l 275 949 l 275 773 l 515 773 l 515 688 l 275 688 l 275 247 q 285 136 275 171 q 315 91 294 101 q 378 80 336 80 q 458 93 412 80 q 524 119 504 105 l 543 53 z "},"ț":{"ha":576,"x_min":55,"x_max":543,"o":"m 253 -345 q 278 -301 267 -332 q 289 -234 289 -270 q 274 -172 289 -199 q 240 -139 260 -144 l 240 -113 l 321 -66 q 367 -116 348 -78 q 386 -207 386 -155 q 371 -286 386 -250 q 334 -347 356 -322 q 292 -380 313 -371 l 253 -358 l 253 -345 m 163 688 l 55 688 l 55 749 q 94 759 66 753 q 149 775 131 768 q 174 799 168 783 q 188 861 178 810 q 208 949 199 921 l 275 949 l 275 773 l 515 773 l 515 688 l 275 688 l 275 247 q 285 136 275 171 q 315 91 294 101 q 378 80 336 80 q 458 93 412 80 q 524 119 504 105 l 543 53 q 452 9 513 28 q 339 -11 391 -11 q 247 4 286 -11 q 186 62 209 20 q 163 183 163 104 l 163 688 z "},"ṫ":{"ha":576,"x_min":55,"x_max":543,"o":"m 163 688 l 55 688 l 55 749 q 94 759 66 753 q 149 775 131 768 q 174 799 168 783 q 188 861 178 810 q 208 949 199 921 l 275 949 l 275 773 l 515 773 l 515 688 l 275 688 l 275 247 q 285 136 275 171 q 315 91 294 101 q 378 80 336 80 q 458 93 412 80 q 524 119 504 105 l 543 53 q 452 9 513 28 q 339 -11 391 -11 q 247 4 286 -11 q 186 62 209 20 q 163 183 163 104 l 163 688 m 161 1134 q 173 1178 161 1158 q 204 1209 184 1198 q 244 1221 223 1221 q 298 1200 279 1221 q 317 1144 317 1179 q 305 1098 317 1118 q 274 1067 294 1078 q 233 1057 255 1057 q 182 1078 203 1057 q 161 1134 161 1099 z "},"u":{"ha":847,"x_min":124,"x_max":722,"o":"m 722 773 l 722 -8 l 678 -8 q 634 1 648 -8 q 621 38 621 9 l 621 80 q 491 15 566 41 q 351 -11 416 -11 q 206 29 255 -11 q 140 139 157 69 q 124 319 124 209 l 124 773 l 237 773 l 237 315 q 251 169 237 218 q 299 101 266 119 q 395 83 332 83 q 511 105 450 83 q 608 155 572 127 l 608 773 l 722 773 z "},"ú":{"ha":847,"x_min":124,"x_max":722,"o":"m 353 938 q 484 1084 433 1024 q 582 1208 535 1143 l 663 1138 q 593 1055 642 1105 q 493 957 545 1004 q 412 892 441 911 l 353 938 m 722 773 l 722 -8 l 678 -8 q 634 1 648 -8 q 621 38 621 9 l 621 80 q 491 15 566 41 q 351 -11 416 -11 q 206 29 255 -11 q 140 139 157 69 q 124 319 124 209 l 124 773 l 237 773 l 237 315 q 251 169 237 218 q 299 101 266 119 q 395 83 332 83 q 511 105 450 83 q 608 155 572 127 l 608 773 l 722 773 z "},"ŭ":{"ha":847,"x_min":124,"x_max":722,"o":"m 722 773 l 722 -8 l 678 -8 q 634 1 648 -8 q 621 38 621 9 l 621 80 q 491 15 566 41 q 351 -11 416 -11 q 206 29 255 -11 q 140 139 157 69 q 124 319 124 209 l 124 773 l 237 773 l 237 315 q 251 169 237 218 q 299 101 266 119 q 395 83 332 83 q 511 105 450 83 q 608 155 572 127 l 608 773 l 722 773 m 287 1149 q 299 1086 288 1121 q 343 1022 310 1051 q 437 994 376 994 q 529 1023 496 994 q 575 1088 563 1052 q 588 1149 588 1124 l 665 1149 q 666 1133 666 1143 q 636 1022 666 1075 q 554 938 607 970 q 436 905 502 905 q 315 938 367 905 q 234 1022 262 970 q 206 1133 206 1074 q 207 1149 206 1143 l 287 1149 z "},"ǔ":{"ha":847,"x_min":124,"x_max":722,"o":"m 722 773 l 722 -8 l 678 -8 q 634 1 648 -8 q 621 38 621 9 l 621 80 q 491 15 566 41 q 351 -11 416 -11 q 206 29 255 -11 q 140 139 157 69 q 124 319 124 209 l 124 773 l 237 773 l 237 315 q 251 169 237 218 q 299 101 266 119 q 395 83 332 83 q 511 105 450 83 q 608 155 572 127 l 608 773 l 722 773 m 437 983 l 616 1161 l 686 1131 l 488 897 l 387 897 l 186 1132 l 252 1161 l 437 983 z "},"û":{"ha":847,"x_min":124,"x_max":722,"o":"m 386 1147 l 487 1147 l 684 913 l 614 883 l 436 1061 l 250 883 l 184 912 l 386 1147 m 722 773 l 722 -8 l 678 -8 q 634 1 648 -8 q 621 38 621 9 l 621 80 q 491 15 566 41 q 351 -11 416 -11 q 206 29 255 -11 q 140 139 157 69 q 124 319 124 209 l 124 773 l 237 773 l 237 315 q 251 169 237 218 q 299 101 266 119 q 395 83 332 83 q 511 105 450 83 q 608 155 572 127 l 608 773 l 722 773 z "},"ü":{"ha":847,"x_min":124,"x_max":722,"o":"m 210 1027 q 221 1068 210 1050 q 251 1097 233 1086 q 290 1107 269 1107 q 340 1088 323 1107 q 357 1036 357 1069 q 333 977 357 1000 q 277 955 310 955 q 229 974 248 955 q 210 1027 210 994 m 516 1027 q 527 1068 516 1050 q 557 1097 538 1086 q 595 1107 575 1107 q 646 1088 629 1107 q 663 1036 663 1069 q 639 977 663 1000 q 583 955 616 955 q 535 974 554 955 q 516 1027 516 994 m 722 773 l 722 -8 l 678 -8 q 634 1 648 -8 q 621 38 621 9 l 621 80 q 491 15 566 41 q 351 -11 416 -11 q 206 29 255 -11 q 140 139 157 69 q 124 319 124 209 l 124 773 l 237 773 l 237 315 q 251 169 237 218 q 299 101 266 119 q 395 83 332 83 q 511 105 450 83 q 608 155 572 127 l 608 773 l 722 773 z "},"ù":{"ha":847,"x_min":124,"x_max":722,"o":"m 722 773 l 722 -8 l 678 -8 q 634 1 648 -8 q 621 38 621 9 l 621 80 q 491 15 566 41 q 351 -11 416 -11 q 206 29 255 -11 q 140 139 157 69 q 124 319 124 209 l 124 773 l 237 773 l 237 315 q 251 169 237 218 q 299 101 266 119 q 395 83 332 83 q 511 105 450 83 q 608 155 572 127 l 608 773 l 722 773 m 450 892 q 318 1004 399 926 q 198 1138 237 1082 l 279 1208 q 370 1097 322 1153 q 492 956 417 1041 l 508 938 l 450 892 z "},"ű":{"ha":847,"x_min":124,"x_max":798,"o":"m 722 773 l 722 -8 l 678 -8 q 634 1 648 -8 q 621 38 621 9 l 621 80 q 491 15 566 41 q 351 -11 416 -11 q 206 29 255 -11 q 140 139 157 69 q 124 319 124 209 l 124 773 l 237 773 l 237 315 q 251 169 237 218 q 299 101 266 119 q 395 83 332 83 q 511 105 450 83 q 608 155 572 127 l 608 773 l 722 773 m 199 955 q 288 1090 212 972 q 378 1232 363 1208 l 462 1175 q 361 1036 427 1116 q 252 918 296 956 l 199 955 m 532 955 q 625 1089 547 973 q 718 1226 704 1204 l 798 1168 q 699 1034 766 1113 q 585 918 631 956 l 532 955 z "},"ū":{"ha":847,"x_min":124,"x_max":722,"o":"m 722 773 l 722 -8 l 678 -8 q 634 1 648 -8 q 621 38 621 9 l 621 80 q 491 15 566 41 q 351 -11 416 -11 q 206 29 255 -11 q 140 139 157 69 q 124 319 124 209 l 124 773 l 237 773 l 237 315 q 251 169 237 218 q 299 101 266 119 q 395 83 332 83 q 511 105 450 83 q 608 155 572 127 l 608 773 l 722 773 m 621 1069 l 621 985 l 253 985 l 253 1069 l 621 1069 z "},"ų":{"ha":847,"x_min":124,"x_max":776,"o":"m 668 -271 q 776 -243 722 -269 l 776 -305 q 707 -336 750 -325 q 619 -347 663 -347 q 501 -312 547 -347 q 455 -210 455 -277 q 482 -126 455 -168 q 549 -52 509 -85 q 633 2 590 -19 q 621 38 621 12 l 621 80 q 491 15 566 41 q 351 -11 416 -11 q 206 29 255 -11 q 140 139 157 69 q 124 319 124 209 l 124 773 l 237 773 l 237 315 q 251 169 237 218 q 299 101 266 119 q 395 83 332 83 q 511 105 450 83 q 608 155 572 127 l 608 773 l 722 773 l 722 -8 l 713 -8 q 610 -91 653 -46 q 567 -188 567 -135 q 594 -252 567 -233 q 668 -271 621 -271 z "},"ů":{"ha":847,"x_min":124,"x_max":722,"o":"m 227 1082 q 256 1182 227 1142 q 334 1241 286 1223 q 437 1260 382 1260 q 590 1214 534 1260 q 646 1086 646 1168 q 617 985 646 1026 q 541 924 589 944 q 434 903 492 903 q 324 925 371 903 q 252 988 277 947 q 227 1082 227 1028 m 566 1084 q 531 1166 566 1137 q 437 1196 495 1195 q 345 1169 382 1196 q 307 1084 307 1142 q 341 1001 307 1033 q 435 969 375 970 q 530 998 493 969 q 566 1084 566 1027 m 722 773 l 722 -8 l 678 -8 q 634 1 648 -8 q 621 38 621 9 l 621 80 q 491 15 566 41 q 351 -11 416 -11 q 206 29 255 -11 q 140 139 157 69 q 124 319 124 209 l 124 773 l 237 773 l 237 315 q 251 169 237 218 q 299 101 266 119 q 395 83 332 83 q 511 105 450 83 q 608 155 572 127 l 608 773 l 722 773 z "},"ũ":{"ha":847,"x_min":124,"x_max":722,"o":"m 722 773 l 722 -8 l 678 -8 q 634 1 648 -8 q 621 38 621 9 l 621 80 q 491 15 566 41 q 351 -11 416 -11 q 206 29 255 -11 q 140 139 157 69 q 124 319 124 209 l 124 773 l 237 773 l 237 315 q 251 169 237 218 q 299 101 266 119 q 395 83 332 83 q 511 105 450 83 q 608 155 572 127 l 608 773 l 722 773 m 157 991 q 198 1049 172 1022 q 259 1094 224 1076 q 332 1111 294 1111 q 399 1096 374 1111 q 454 1055 425 1082 q 495 1021 477 1032 q 538 1010 513 1010 q 612 1030 581 1010 q 669 1081 643 1050 l 714 1043 q 642 959 688 993 q 538 924 595 924 q 486 932 508 924 q 448 952 463 941 q 414 981 433 963 q 374 1015 391 1004 q 331 1025 356 1025 q 259 1005 292 1025 q 201 955 227 984 l 157 991 z "},"v":{"ha":755,"x_min":25,"x_max":730,"o":"m 730 773 l 431 -12 l 334 -12 l 25 773 l 147 773 l 323 293 l 384 105 l 441 293 l 610 773 l 730 773 z "},"w":{"ha":1109,"x_min":26,"x_max":1082,"o":"m 1082 773 l 842 -12 l 737 -12 l 576 555 l 557 655 l 534 555 l 377 -12 l 270 -12 l 26 773 l 140 773 l 295 242 l 324 121 l 351 242 l 501 773 l 613 773 l 764 242 l 793 117 l 822 239 l 972 773 l 1082 773 z "},"ẃ":{"ha":1109,"x_min":26,"x_max":1082,"o":"m 477 943 q 607 1089 556 1029 q 705 1213 659 1149 l 787 1143 q 716 1060 765 1111 q 616 963 668 1009 q 535 897 565 916 l 477 943 m 1082 773 l 842 -12 l 737 -12 l 576 555 l 557 655 l 534 555 l 377 -12 l 270 -12 l 26 773 l 140 773 l 295 242 l 324 121 l 351 242 l 501 773 l 613 773 l 764 242 l 793 117 l 822 239 l 972 773 l 1082 773 z "},"ŵ":{"ha":1109,"x_min":26,"x_max":1082,"o":"m 509 1153 l 610 1153 l 808 918 l 738 888 l 559 1067 l 374 888 l 308 918 l 509 1153 m 1082 773 l 842 -12 l 737 -12 l 576 555 l 557 655 l 534 555 l 377 -12 l 270 -12 l 26 773 l 140 773 l 295 242 l 324 121 l 351 242 l 501 773 l 613 773 l 764 242 l 793 117 l 822 239 l 972 773 l 1082 773 z "},"ẅ":{"ha":1109,"x_min":26,"x_max":1082,"o":"m 333 1032 q 345 1074 333 1055 q 374 1102 356 1092 q 413 1113 393 1113 q 464 1094 447 1113 q 480 1042 480 1075 q 457 983 480 1005 q 401 960 433 960 q 352 980 372 960 q 333 1032 333 999 m 640 1032 q 651 1074 640 1055 q 680 1102 662 1092 q 719 1113 699 1113 q 769 1094 753 1113 q 786 1042 786 1075 q 763 983 786 1005 q 707 960 739 960 q 659 980 677 960 q 640 1032 640 999 m 1082 773 l 842 -12 l 737 -12 l 576 555 l 557 655 l 534 555 l 377 -12 l 270 -12 l 26 773 l 140 773 l 295 242 l 324 121 l 351 242 l 501 773 l 613 773 l 764 242 l 793 117 l 822 239 l 972 773 l 1082 773 z "},"ẁ":{"ha":1109,"x_min":26,"x_max":1082,"o":"m 1082 773 l 842 -12 l 737 -12 l 576 555 l 557 655 l 534 555 l 377 -12 l 270 -12 l 26 773 l 140 773 l 295 242 l 324 121 l 351 242 l 501 773 l 613 773 l 764 242 l 793 117 l 822 239 l 972 773 l 1082 773 m 573 897 q 441 1009 522 931 q 321 1143 360 1087 l 402 1213 q 492 1102 445 1158 q 614 962 540 1046 l 631 943 l 573 897 z "},"x":{"ha":771,"x_min":50,"x_max":726,"o":"m 726 0 l 595 0 l 409 276 l 382 319 l 357 271 l 180 0 l 50 0 l 326 391 l 50 773 l 178 773 l 363 503 l 389 461 l 413 507 l 597 773 l 724 773 l 448 393 l 726 0 z "},"y":{"ha":751,"x_min":38,"x_max":724,"o":"m 724 773 l 458 -20 q 356 -238 411 -161 q 227 -335 301 -314 q 191 -341 211 -338 q 157 -344 172 -344 q 113 -341 139 -344 q 81 -334 87 -338 l 81 -241 q 113 -247 92 -245 q 149 -250 133 -250 q 361 0 298 -250 l 328 0 l 38 773 l 159 773 l 345 243 l 396 91 l 441 243 l 602 773 l 724 773 z "},"ý":{"ha":751,"x_min":38,"x_max":724,"o":"m 724 773 l 458 -20 q 356 -238 411 -161 q 227 -335 301 -314 q 191 -341 211 -338 q 157 -344 172 -344 q 113 -341 139 -344 q 81 -334 87 -338 l 81 -241 q 113 -247 92 -245 q 149 -250 133 -250 q 361 0 298 -250 l 328 0 l 38 773 l 159 773 l 345 243 l 396 91 l 441 243 l 602 773 l 724 773 m 313 938 q 443 1084 392 1024 q 541 1208 494 1143 l 623 1138 q 552 1055 601 1105 q 452 957 504 1004 q 371 892 401 911 l 313 938 z "},"ŷ":{"ha":751,"x_min":38,"x_max":724,"o":"m 724 773 l 458 -20 q 356 -238 411 -161 q 227 -335 301 -314 q 191 -341 211 -338 q 157 -344 172 -344 q 113 -341 139 -344 q 81 -334 87 -338 l 81 -241 q 113 -247 92 -245 q 149 -250 133 -250 q 361 0 298 -250 l 328 0 l 38 773 l 159 773 l 345 243 l 396 91 l 441 243 l 602 773 l 724 773 m 345 1147 l 446 1147 l 643 913 l 573 883 l 395 1061 l 209 883 l 143 912 l 345 1147 z "},"ÿ":{"ha":751,"x_min":38,"x_max":724,"o":"m 724 773 l 458 -20 q 356 -238 411 -161 q 227 -335 301 -314 q 191 -341 211 -338 q 157 -344 172 -344 q 113 -341 139 -344 q 81 -334 87 -338 l 81 -241 q 113 -247 92 -245 q 149 -250 133 -250 q 361 0 298 -250 l 328 0 l 38 773 l 159 773 l 345 243 l 396 91 l 441 243 l 602 773 l 724 773 m 168 1027 q 180 1068 168 1050 q 210 1097 191 1086 q 248 1107 228 1107 q 299 1088 282 1107 q 315 1036 315 1069 q 292 977 315 1000 q 236 955 269 955 q 188 974 207 955 q 168 1027 168 994 m 475 1027 q 486 1068 475 1050 q 515 1097 497 1086 q 554 1107 534 1107 q 605 1088 588 1107 q 621 1036 621 1069 q 598 977 621 1000 q 542 955 574 955 q 494 974 513 955 q 475 1027 475 994 z "},"ẏ":{"ha":751,"x_min":38,"x_max":724,"o":"m 724 773 l 458 -20 q 356 -238 411 -161 q 227 -335 301 -314 q 191 -341 211 -338 q 157 -344 172 -344 q 113 -341 139 -344 q 81 -334 87 -338 l 81 -241 q 113 -247 92 -245 q 149 -250 133 -250 q 361 0 298 -250 l 328 0 l 38 773 l 159 773 l 345 243 l 396 91 l 441 243 l 602 773 l 724 773 m 317 1019 q 329 1063 317 1043 q 360 1094 340 1082 q 400 1105 379 1105 q 454 1084 435 1105 q 473 1029 473 1063 q 461 983 473 1003 q 430 952 450 963 q 389 941 411 941 q 338 962 359 941 q 317 1019 317 983 z "},"ỳ":{"ha":751,"x_min":38,"x_max":724,"o":"m 724 773 l 458 -20 q 356 -238 411 -161 q 227 -335 301 -314 q 191 -341 211 -338 q 157 -344 172 -344 q 113 -341 139 -344 q 81 -334 87 -338 l 81 -241 q 113 -247 92 -245 q 149 -250 133 -250 q 361 0 298 -250 l 328 0 l 38 773 l 159 773 l 345 243 l 396 91 l 441 243 l 602 773 l 724 773 m 409 892 q 277 1004 358 926 q 157 1138 196 1082 l 238 1208 q 328 1097 281 1153 q 450 956 376 1041 l 467 938 l 409 892 z "},"z":{"ha":727,"x_min":63,"x_max":667,"o":"m 514 686 l 96 686 l 96 773 l 647 773 l 667 723 l 264 149 l 216 83 l 660 83 l 660 0 l 86 0 l 63 44 l 514 686 z "},"ź":{"ha":727,"x_min":63,"x_max":667,"o":"m 290 938 q 421 1084 370 1024 q 519 1208 472 1143 l 600 1138 q 530 1055 578 1105 q 430 957 481 1004 q 349 892 378 911 l 290 938 m 514 686 l 96 686 l 96 773 l 647 773 l 667 723 l 264 149 l 216 83 l 660 83 l 660 0 l 86 0 l 63 44 l 514 686 z "},"ž":{"ha":727,"x_min":63,"x_max":667,"o":"m 387 983 l 566 1161 l 635 1131 l 438 897 l 337 897 l 136 1132 l 201 1161 l 387 983 m 514 686 l 96 686 l 96 773 l 647 773 l 667 723 l 264 149 l 216 83 l 660 83 l 660 0 l 86 0 l 63 44 l 514 686 z "},"ż":{"ha":727,"x_min":63,"x_max":667,"o":"m 514 686 l 96 686 l 96 773 l 647 773 l 667 723 l 264 149 l 216 83 l 660 83 l 660 0 l 86 0 l 63 44 l 514 686 m 294 1019 q 306 1063 294 1043 q 337 1094 318 1082 q 378 1105 357 1105 q 432 1084 413 1105 q 450 1029 450 1063 q 439 983 450 1003 q 408 952 427 963 q 367 941 389 941 q 315 962 336 941 q 294 1019 294 983 z "},"ﬁ":{"ha":942,"x_min":52,"x_max":820,"o":"m 52 688 l 52 750 l 184 773 l 184 836 q 223 1012 184 943 q 322 1111 262 1080 q 450 1141 382 1141 q 504 1136 478 1141 q 543 1126 529 1132 l 543 1036 q 498 1046 524 1043 q 435 1050 473 1050 q 335 1001 372 1050 q 298 860 298 951 l 298 773 l 503 773 l 503 688 l 298 688 l 298 0 l 184 0 l 184 688 l 52 688 m 799 772 l 799 0 l 686 0 l 686 772 l 799 772 m 664 1019 q 676 1063 664 1043 q 707 1094 688 1082 q 747 1105 726 1105 q 801 1084 783 1105 q 820 1029 820 1063 q 808 983 820 1003 q 778 952 797 963 q 736 941 758 941 q 685 962 706 941 q 664 1019 664 983 z "},"ﬂ":{"ha":946,"x_min":52,"x_max":802,"o":"m 52 688 l 52 750 l 184 773 l 184 836 q 223 1012 184 943 q 322 1111 262 1080 q 450 1141 382 1141 q 504 1136 478 1141 q 543 1126 529 1132 l 543 1036 q 498 1046 524 1043 q 435 1050 473 1050 q 335 1001 372 1050 q 298 860 298 951 l 298 773 l 503 773 l 503 688 l 298 688 l 298 0 l 184 0 l 184 688 l 52 688 m 802 1128 l 802 0 l 688 0 l 688 1128 l 802 1128 z "},"ª":{"ha":700,"x_min":94,"x_max":589,"o":"m 363 1083 q 531 1038 473 1083 q 589 884 589 994 l 589 465 l 552 465 q 516 466 527 465 q 499 475 505 467 q 492 503 492 484 l 492 524 q 408 479 462 498 q 302 460 354 460 q 194 479 241 460 q 120 536 146 498 q 94 627 94 574 q 126 729 94 690 q 216 790 157 768 q 345 820 271 811 q 486 829 419 829 l 486 882 q 471 957 486 930 q 425 993 456 983 q 340 1003 393 1003 q 266 993 307 1003 q 190 969 224 983 q 140 945 155 956 l 111 1008 q 166 1039 124 1021 q 261 1070 208 1057 q 363 1083 314 1083 m 195 633 q 228 562 195 588 q 320 536 262 536 q 411 551 362 536 q 486 584 460 567 l 486 765 q 357 760 412 765 q 268 738 302 754 q 213 698 232 721 q 195 633 195 675 z "},"º":{"ha":701,"x_min":77,"x_max":623,"o":"m 361 1083 q 503 1045 444 1083 q 592 937 562 1006 q 623 774 623 867 q 584 595 623 666 q 483 491 545 524 q 347 458 420 458 q 202 496 263 458 q 110 606 142 535 q 77 773 77 677 q 119 949 77 880 q 225 1051 161 1019 q 361 1083 290 1083 m 350 535 q 472 592 427 535 q 516 768 516 648 q 475 944 516 880 q 357 1007 433 1007 q 270 983 309 1007 q 208 908 231 960 q 185 776 185 857 q 205 649 185 703 q 262 565 225 595 q 350 535 299 535 z "},"Δ":{"ha":1069,"x_min":37,"x_max":1031,"o":"m 504 1023 l 524 1023 l 1031 17 l 1021 0 l 46 0 l 37 14 l 504 1023 m 518 827 l 184 90 l 878 90 l 518 827 z "},"Ω":{"ha":1231,"x_min":134,"x_max":1098,"o":"m 1098 80 l 1098 0 l 718 0 l 717 77 q 836 190 781 116 q 925 365 891 263 q 959 585 959 467 q 909 799 959 714 q 779 924 859 884 q 610 964 700 964 q 431 922 513 964 q 299 795 349 880 q 250 585 250 710 q 287 369 250 471 q 383 192 325 267 q 502 77 441 117 l 502 0 l 142 0 l 142 80 l 380 80 q 260 208 317 128 q 169 387 203 287 q 134 589 134 486 q 202 842 135 738 q 378 997 270 945 q 610 1048 486 1048 q 848 994 743 1048 q 1014 837 954 941 q 1074 589 1074 734 q 1043 386 1074 484 q 958 209 1012 288 q 838 80 905 130 l 1098 80 z "},"μ":{"ha":922,"x_min":146,"x_max":850,"o":"m 850 59 q 824 31 844 47 q 777 3 804 15 q 721 -9 749 -9 q 648 94 644 -9 q 428 -11 545 -11 q 314 8 362 -11 q 236 77 267 28 l 252 -252 l 146 -252 l 146 773 l 259 773 l 259 260 q 304 123 259 168 q 437 78 349 79 q 543 104 489 78 q 633 159 596 131 l 633 773 l 745 773 l 745 155 q 752 97 745 112 q 773 82 758 82 q 800 89 784 82 q 834 111 816 95 l 850 59 z "},"π":{"ha":1063,"x_min":87,"x_max":979,"o":"m 800 73 q 849 90 825 73 q 891 134 873 108 q 920 186 909 161 l 976 162 q 940 78 969 119 q 866 10 911 37 q 768 -16 821 -16 q 670 25 702 -16 q 637 144 637 67 q 638 169 637 161 l 673 677 l 435 678 l 412 290 q 395 170 408 216 q 361 96 382 124 q 304 35 341 68 q 205 -16 266 0 l 135 47 q 171 61 147 50 q 218 89 194 72 q 276 152 256 118 q 302 225 295 186 q 314 330 309 264 l 339 678 l 291 678 q 197 654 236 678 q 146 594 157 630 l 87 621 q 96 656 87 633 q 115 696 104 679 q 190 755 142 736 q 309 773 238 773 l 800 773 q 868 785 843 773 q 905 824 893 796 l 979 824 q 928 713 972 749 q 796 677 884 677 l 765 677 l 741 170 q 754 99 739 125 q 800 73 769 73 z "},"⁄":{"ha":696,"x_min":109,"x_max":577,"o":"m 474 1038 l 577 1038 l 210 0 l 109 0 l 474 1038 z "},"½":{"ha":1647,"x_min":146,"x_max":1544,"o":"m 146 1013 q 232 1049 184 1024 q 323 1102 281 1075 q 384 1145 366 1129 l 439 1131 l 439 449 l 330 449 l 330 1008 q 267 985 309 1003 q 216 964 238 972 q 168 951 194 956 l 146 1013 m 987 1038 l 620 0 l 518 0 l 884 1038 l 987 1038 m 1544 83 l 1544 -2 l 1019 -2 l 996 56 q 1172 164 1082 98 q 1325 310 1263 231 q 1388 465 1388 389 q 1348 570 1388 534 q 1236 606 1309 606 q 1124 579 1176 606 q 1029 498 1072 552 l 982 555 q 1045 620 1004 589 q 1140 669 1085 650 q 1255 688 1194 688 q 1391 660 1336 688 q 1472 585 1445 631 q 1498 484 1498 539 q 1410 270 1498 372 q 1174 81 1322 168 l 1544 83 z "},"¼":{"ha":1647,"x_min":146,"x_max":1535,"o":"m 146 1013 q 232 1049 184 1024 q 323 1102 281 1075 q 384 1145 366 1129 l 439 1131 l 439 449 l 330 449 l 330 1008 q 267 985 309 1003 q 216 964 238 972 q 168 951 194 956 l 146 1013 m 986 1038 l 619 0 l 517 0 l 883 1038 l 986 1038 m 1404 154 l 1404 -38 l 1298 -38 l 1299 154 l 932 154 l 904 203 l 1225 767 l 1261 767 l 1328 727 l 1067 300 l 1029 233 l 1299 233 l 1299 234 l 1303 424 l 1404 435 l 1404 233 l 1534 233 l 1535 154 l 1404 154 z "},"¾":{"ha":1647,"x_min":73,"x_max":1535,"o":"m 375 807 q 485 779 441 805 q 549 714 529 753 q 570 633 570 675 q 536 513 570 566 q 433 429 502 460 q 264 399 364 399 q 186 406 228 399 q 109 425 144 413 l 102 499 q 174 481 142 487 q 248 476 206 476 q 410 518 359 476 q 460 631 460 560 q 440 699 460 669 q 383 746 420 729 q 296 764 346 763 l 215 741 l 195 808 q 252 823 220 813 q 309 843 283 833 q 390 898 361 864 q 418 975 418 932 q 403 1026 418 1002 q 359 1063 389 1049 q 288 1078 330 1078 l 272 1077 q 185 1058 231 1075 q 105 1017 140 1042 l 73 1079 q 174 1130 111 1110 q 283 1152 237 1150 q 414 1133 360 1154 q 495 1075 468 1112 q 522 991 522 1038 q 485 884 522 932 q 375 807 448 837 m 986 1038 l 619 0 l 517 0 l 883 1038 l 986 1038 m 1404 154 l 1404 -38 l 1298 -38 l 1299 154 l 932 154 l 904 203 l 1225 767 l 1261 767 l 1328 727 l 1067 300 l 1029 233 l 1299 233 l 1299 234 l 1303 424 l 1404 435 l 1404 233 l 1534 233 l 1535 154 l 1404 154 z "},"*":{"ha":831,"x_min":94,"x_max":737,"o":"m 393 743 l 306 669 l 146 566 l 96 650 l 263 741 l 370 782 q 317 802 353 789 q 262 821 281 814 l 94 909 l 142 994 l 303 892 l 392 821 q 383 877 389 840 q 372 932 376 913 l 363 1124 l 462 1124 l 455 934 l 437 822 l 524 895 l 686 998 l 734 914 l 567 824 l 461 783 l 568 744 l 737 657 l 687 570 l 528 671 l 437 742 q 457 630 439 738 l 468 440 l 369 439 l 376 630 l 393 743 z "},"\\":{"ha":579,"x_min":45,"x_max":534,"o":"m 534 -246 l 432 -246 l 45 1084 l 147 1084 l 534 -246 z "},"·":{"ha":401,"x_min":121,"x_max":279,"o":"m 121 497 q 133 545 121 523 q 164 579 144 566 q 204 591 183 591 q 260 566 240 591 q 279 503 279 541 q 268 456 279 477 q 237 424 256 435 q 197 412 218 412 q 160 422 177 412 q 132 453 142 433 q 121 497 121 473 z "},"•":{"ha":578,"x_min":173,"x_max":405,"o":"m 173 485 q 190 549 173 519 q 234 595 206 578 q 294 612 262 612 q 350 597 325 612 q 390 557 376 583 q 405 500 405 531 q 388 436 405 465 q 344 389 372 406 q 283 372 316 372 q 228 387 253 372 q 188 428 203 402 q 173 485 173 454 z "},":":{"ha":408,"x_min":125,"x_max":283,"o":"m 125 75 q 136 122 125 100 q 167 156 148 144 q 208 169 186 169 q 263 144 243 169 q 283 81 283 119 q 271 34 283 55 q 241 1 260 13 q 200 -11 222 -11 q 163 0 180 -11 q 135 31 146 11 q 125 75 125 50 m 125 633 q 136 681 125 659 q 167 715 148 703 q 208 728 186 728 q 263 703 243 728 q 283 640 283 677 q 271 593 283 614 q 241 560 260 572 q 200 548 222 548 q 163 559 180 548 q 135 589 146 570 q 125 633 125 609 z "},",":{"ha":408,"x_min":111,"x_max":315,"o":"m 111 -277 q 158 -233 136 -264 q 194 -159 180 -202 q 208 -65 208 -115 q 198 -7 208 -37 q 172 46 189 23 q 136 75 155 68 l 136 108 l 208 175 q 289 91 263 149 q 315 -31 315 33 q 293 -168 315 -104 q 232 -275 270 -231 q 150 -338 194 -319 l 112 -292 l 111 -277 z "},"…":{"ha":1345,"x_min":145,"x_max":1200,"o":"m 145 73 q 157 119 145 98 q 188 153 168 140 q 228 165 207 165 q 283 141 264 165 q 303 81 303 116 q 292 34 303 55 q 261 1 280 14 q 220 -11 241 -11 q 183 0 200 -11 q 155 30 165 11 q 145 73 145 50 m 593 75 q 605 120 593 99 q 635 153 616 140 q 675 165 654 165 q 731 141 711 165 q 751 79 751 116 q 739 34 751 54 q 709 1 728 13 q 668 -11 690 -11 q 615 14 637 -11 q 593 75 593 38 m 1042 75 q 1053 120 1042 99 q 1084 153 1065 140 q 1124 165 1103 165 q 1180 141 1160 165 q 1200 82 1200 117 q 1188 35 1200 56 q 1158 1 1177 14 q 1117 -11 1139 -11 q 1064 14 1086 -11 q 1042 75 1042 38 z "},"!":{"ha":408,"x_min":125,"x_max":283,"o":"m 270 1207 l 258 321 l 157 321 l 143 1207 l 270 1207 m 125 76 q 136 122 125 101 q 167 156 148 144 q 207 169 186 169 q 263 144 243 169 q 283 82 283 119 q 271 34 283 56 q 241 1 260 13 q 200 -11 222 -11 q 147 14 169 -11 q 125 76 125 38 z "},"‼":{"ha":907,"x_min":145,"x_max":758,"o":"m 290 1207 l 278 321 l 178 321 l 163 1207 l 290 1207 m 145 76 q 157 122 145 101 q 187 156 168 144 q 227 169 206 169 q 283 144 264 169 q 303 82 303 119 q 292 34 303 56 q 261 1 280 13 q 220 -11 242 -11 q 167 14 189 -11 q 145 76 145 38 m 745 1207 l 733 321 l 633 321 l 618 1207 l 745 1207 m 600 76 q 612 122 600 101 q 642 156 623 144 q 682 169 661 169 q 739 144 719 169 q 758 82 758 119 q 747 34 758 56 q 716 1 735 13 q 675 -11 697 -11 q 622 14 644 -11 q 600 76 600 38 z "},"¡":{"ha":408,"x_min":125,"x_max":283,"o":"m 283 836 q 271 789 283 810 q 241 755 260 768 q 201 743 222 743 q 144 767 164 743 q 125 829 125 792 q 136 877 125 856 q 167 910 148 899 q 208 922 186 922 q 261 898 239 922 q 283 836 283 873 m 138 -296 l 150 591 l 250 591 l 264 -296 l 138 -296 z "},"#":{"ha":1055,"x_min":138,"x_max":928,"o":"m 765 620 l 738 323 l 897 323 l 897 243 l 730 243 l 708 0 l 613 0 l 635 243 l 379 243 l 357 0 l 260 0 l 282 243 l 138 243 l 138 323 l 290 323 l 316 620 l 162 620 l 162 699 l 323 699 l 345 928 l 443 928 l 422 699 l 675 699 l 695 928 l 793 928 l 772 699 l 928 699 l 928 620 l 765 620 m 668 620 l 414 620 l 387 323 l 642 323 l 668 620 z "},".":{"ha":408,"x_min":125,"x_max":283,"o":"m 125 75 q 136 122 125 100 q 167 156 148 144 q 208 169 186 169 q 263 144 243 169 q 283 81 283 119 q 271 34 283 55 q 241 1 260 13 q 200 -11 222 -11 q 163 0 180 -11 q 135 31 146 11 q 125 75 125 50 z "},"?":{"ha":710,"x_min":91,"x_max":632,"o":"m 200 517 q 221 583 200 553 q 273 636 242 613 q 355 692 304 660 q 436 747 406 724 q 488 800 466 770 q 515 863 511 829 q 520 920 520 890 q 484 1044 520 992 q 379 1123 448 1096 q 215 1150 310 1150 q 140 1145 172 1150 q 91 1134 107 1141 l 91 1217 q 145 1236 102 1226 q 233 1246 189 1246 q 457 1203 368 1246 q 589 1087 547 1160 q 632 926 632 1015 q 628 869 632 897 q 594 773 622 814 q 530 704 566 732 q 437 640 494 676 q 370 594 395 613 q 328 553 345 576 q 310 503 311 530 q 309 484 309 497 q 318 414 309 449 q 344 330 327 380 q 349 316 347 323 l 262 315 q 220 405 239 347 q 200 517 200 463 m 264 74 q 275 119 264 98 q 306 152 287 140 q 345 164 324 164 q 399 140 380 164 q 418 80 418 117 q 407 33 418 54 q 377 1 396 12 q 337 -11 359 -11 q 286 13 307 -11 q 264 74 264 37 z "},"¿":{"ha":710,"x_min":77,"x_max":618,"o":"m 446 960 q 434 915 446 935 q 404 882 422 894 q 365 869 385 869 q 310 893 330 869 q 291 954 291 917 q 302 1000 291 979 q 332 1033 313 1021 q 372 1044 351 1044 q 424 1021 402 1044 q 446 960 446 997 m 509 516 q 488 451 509 481 q 436 397 467 420 q 354 341 406 374 q 274 286 304 309 q 221 234 243 263 q 195 171 199 205 q 189 113 189 144 q 225 -11 189 41 q 331 -90 262 -62 q 494 -117 399 -117 q 570 -112 537 -117 q 618 -100 602 -107 l 618 -184 q 564 -202 608 -193 q 477 -212 520 -212 q 252 -169 342 -212 q 120 -54 163 -126 q 77 108 77 18 q 81 165 77 136 q 116 260 87 219 q 179 330 144 302 q 272 394 215 357 q 339 439 315 420 q 381 480 364 458 q 399 530 398 503 q 400 549 400 536 q 391 619 400 585 q 366 704 382 654 q 361 718 363 710 l 447 718 q 490 629 470 688 q 509 516 509 571 z "},"\"":{"ha":823,"x_min":186,"x_max":637,"o":"m 310 1143 l 294 655 l 203 655 l 186 1143 l 310 1143 m 637 1143 l 621 655 l 530 655 l 513 1143 l 637 1143 z "},"'":{"ha":496,"x_min":186,"x_max":310,"o":"m 310 1143 l 294 655 l 203 655 l 186 1143 l 310 1143 z "},";":{"ha":408,"x_min":104,"x_max":308,"o":"m 104 -277 q 150 -233 128 -264 q 186 -159 172 -202 q 201 -65 201 -115 q 191 -7 201 -37 q 164 46 181 23 q 129 75 148 68 l 129 108 l 200 175 q 282 91 256 149 q 308 -31 308 33 q 285 -168 308 -104 q 224 -275 262 -231 q 142 -338 186 -319 l 104 -292 l 104 -277 m 125 633 q 136 681 125 659 q 167 715 148 703 q 208 728 186 728 q 263 703 243 728 q 283 640 283 677 q 271 593 283 614 q 241 560 260 572 q 200 548 222 548 q 163 559 180 548 q 135 589 146 570 q 125 633 125 609 z "},"/":{"ha":579,"x_min":45,"x_max":534,"o":"m 534 1084 l 146 -246 l 45 -246 l 431 1084 l 534 1084 z "},"_":{"ha":1147,"x_min":-27,"x_max":1175,"o":"m 1175 -201 l 1175 -273 l -27 -273 l -27 -201 l 1175 -201 z "},"{":{"ha":669,"x_min":80,"x_max":558,"o":"m 358 659 q 333 605 358 626 q 277 568 318 590 q 192 528 235 547 q 275 487 231 511 q 335 446 319 463 q 358 395 358 423 l 358 -56 l 558 -56 l 558 -113 q 357 -132 477 -132 q 292 -120 315 -132 q 260 -80 269 -109 q 250 1 250 -52 l 250 397 q 201 445 250 418 q 80 491 151 471 l 80 566 q 208 614 165 593 q 250 657 250 635 l 250 1047 q 260 1128 250 1100 q 292 1169 269 1157 q 357 1181 314 1181 q 558 1167 436 1181 l 558 1105 l 358 1105 l 358 659 z "},"}":{"ha":669,"x_min":111,"x_max":589,"o":"m 418 657 q 461 614 418 635 q 589 566 504 593 l 589 491 q 468 445 517 471 q 418 397 418 418 l 418 1 q 409 -80 418 -52 q 377 -120 399 -109 q 312 -132 354 -132 q 111 -113 192 -132 l 111 -56 l 311 -56 l 311 395 q 334 446 311 423 q 394 487 350 463 q 477 528 437 511 q 392 568 433 547 q 336 605 351 590 q 311 659 311 626 l 311 1105 l 111 1105 l 111 1167 q 312 1181 233 1181 q 377 1169 355 1181 q 409 1128 399 1157 q 418 1047 418 1100 l 418 657 z "},"[":{"ha":570,"x_min":153,"x_max":467,"o":"m 153 1047 q 162 1128 153 1101 q 192 1167 170 1156 q 255 1178 213 1178 q 467 1164 330 1178 l 467 1103 l 262 1103 l 262 -56 l 467 -57 l 467 -116 q 255 -130 372 -130 q 192 -118 213 -130 q 162 -80 170 -107 q 153 1 153 -52 l 153 1047 z "},"]":{"ha":570,"x_min":104,"x_max":417,"o":"m 417 1 q 409 -80 417 -52 q 379 -118 400 -107 q 315 -130 357 -130 q 104 -116 199 -130 l 104 -57 l 309 -56 l 309 1103 l 104 1103 l 104 1164 q 315 1178 241 1178 q 379 1167 357 1178 q 409 1128 400 1156 q 417 1047 417 1101 l 417 1 z "},"(":{"ha":575,"x_min":96,"x_max":484,"o":"m 96 491 q 155 815 96 668 q 289 1057 214 963 q 406 1175 363 1151 l 484 1136 q 379 1024 442 1106 q 263 804 317 942 q 207 491 210 667 l 207 467 q 258 147 207 284 q 372 -69 309 9 q 484 -183 435 -148 l 406 -222 q 286 -106 357 -191 q 155 132 214 -20 q 96 491 96 285 z "},")":{"ha":575,"x_min":92,"x_max":479,"o":"m 479 477 q 420 152 479 300 q 287 -89 361 5 q 170 -207 212 -183 l 92 -168 q 196 -56 133 -138 q 312 163 258 26 q 368 477 365 301 l 368 501 q 317 821 368 684 q 203 1037 266 958 q 92 1151 140 1116 l 170 1190 q 290 1074 218 1159 q 420 836 361 988 q 479 477 479 683 z "},"—":{"ha":1589,"x_min":163,"x_max":1426,"o":"m 1426 570 l 1426 478 l 163 478 l 163 570 l 1426 570 z "},"–":{"ha":1147,"x_min":163,"x_max":985,"o":"m 985 570 l 985 478 l 163 478 l 163 570 l 985 570 z "},"-":{"ha":916,"x_min":168,"x_max":748,"o":"m 748 570 l 748 478 l 168 478 l 168 570 l 748 570 z "},"«":{"ha":1310,"x_min":166,"x_max":1131,"o":"m 277 417 l 639 154 l 609 72 l 166 368 l 166 463 l 609 767 l 639 682 l 277 417 m 769 417 l 1131 154 l 1101 72 l 659 368 l 659 463 l 1101 767 l 1131 682 l 769 417 z "},"»":{"ha":1310,"x_min":178,"x_max":1143,"o":"m 208 767 l 650 463 l 650 368 l 208 72 l 178 154 l 540 417 l 178 682 l 208 767 m 1143 463 l 1143 368 l 700 72 l 670 154 l 1032 417 l 670 682 l 700 767 l 1143 463 z "},"‹":{"ha":817,"x_min":166,"x_max":639,"o":"m 277 417 l 639 154 l 609 72 l 166 368 l 166 463 l 609 767 l 639 682 l 277 417 z "},"›":{"ha":817,"x_min":178,"x_max":650,"o":"m 650 463 l 650 368 l 208 72 l 178 154 l 540 417 l 178 682 l 208 767 l 650 463 z "},"„":{"ha":665,"x_min":83,"x_max":594,"o":"m 83 -302 q 118 -250 100 -285 q 146 -171 135 -216 q 158 -80 158 -126 q 148 -12 158 -45 q 122 48 138 22 q 85 83 105 73 l 85 115 l 159 174 q 236 97 208 153 q 264 -38 264 41 q 243 -181 264 -117 q 192 -287 222 -245 q 132 -351 162 -329 l 83 -319 l 83 -302 m 413 -302 q 447 -250 430 -285 q 476 -171 465 -216 q 488 -80 488 -126 q 478 -12 488 -45 q 451 48 468 22 q 415 83 435 73 l 415 115 l 488 174 q 566 97 538 153 q 594 -38 594 41 q 573 -181 594 -117 q 522 -287 552 -245 q 462 -351 492 -329 l 413 -319 l 413 -302 z "},"“":{"ha":665,"x_min":68,"x_max":591,"o":"m 68 886 q 91 1015 68 956 q 146 1115 114 1074 q 211 1178 179 1157 l 260 1146 l 260 1129 q 220 1079 239 1113 q 188 999 200 1044 q 175 907 175 954 q 186 841 175 874 q 216 784 197 808 q 258 750 235 760 l 258 718 l 199 653 q 130 701 160 667 q 84 784 100 736 q 68 886 68 832 m 399 886 q 422 1015 399 956 q 477 1115 445 1074 q 542 1178 510 1157 l 591 1146 l 591 1129 q 551 1079 570 1113 q 518 999 531 1044 q 506 907 506 954 q 517 841 506 874 q 547 784 528 808 q 589 750 566 760 l 589 718 l 530 653 q 461 701 491 667 q 415 784 431 736 q 399 886 399 832 z "},"”":{"ha":665,"x_min":83,"x_max":595,"o":"m 83 702 q 118 753 100 719 q 146 833 135 788 q 158 924 158 878 q 148 992 158 958 q 122 1052 138 1026 q 85 1086 105 1077 l 85 1118 l 159 1178 q 236 1101 208 1157 q 264 966 264 1045 q 243 823 264 886 q 192 717 222 759 q 132 653 162 675 l 83 685 l 83 702 m 414 702 q 449 753 431 719 q 477 833 466 788 q 489 924 489 878 q 479 992 489 958 q 453 1052 469 1026 q 416 1086 436 1077 l 416 1118 l 490 1178 q 567 1101 539 1157 q 595 966 595 1045 q 574 823 595 886 q 523 717 553 759 q 463 653 493 675 l 414 685 l 414 702 z "},"‘":{"ha":338,"x_min":68,"x_max":260,"o":"m 68 886 q 91 1015 68 956 q 146 1115 114 1074 q 211 1178 179 1157 l 260 1146 l 260 1129 q 220 1079 239 1113 q 188 999 200 1044 q 175 907 175 954 q 186 841 175 874 q 216 784 197 808 q 258 750 235 760 l 258 718 l 199 653 q 130 701 160 667 q 84 784 100 736 q 68 886 68 832 z "},"‛":{"ha":338,"x_min":65,"x_max":260,"o":"m 254 1082 q 213 1047 232 1072 q 183 990 194 1023 q 172 924 172 957 q 185 832 172 878 q 218 753 198 787 q 260 702 239 718 l 260 685 l 211 653 q 145 716 178 674 q 88 817 111 758 q 65 945 65 876 q 81 1047 65 999 q 127 1130 97 1095 q 196 1178 157 1164 l 254 1113 l 254 1082 z "},"’":{"ha":338,"x_min":83,"x_max":264,"o":"m 83 702 q 118 753 100 719 q 146 833 135 788 q 158 924 158 878 q 148 992 158 958 q 122 1052 138 1026 q 85 1086 105 1077 l 85 1118 l 159 1178 q 236 1101 208 1157 q 264 966 264 1045 q 243 823 264 886 q 192 717 222 759 q 132 653 162 675 l 83 685 l 83 702 z "},"‚":{"ha":338,"x_min":83,"x_max":264,"o":"m 83 -315 q 118 -263 100 -298 q 146 -184 135 -229 q 158 -93 158 -139 q 148 -24 158 -58 q 122 35 138 9 q 85 70 105 60 l 85 102 l 159 161 q 236 84 208 140 q 264 -51 264 28 q 243 -194 264 -130 q 192 -300 222 -258 q 132 -363 162 -342 l 83 -332 l 83 -315 z "}," ":{"ha":444,"x_min":0,"x_max":0,"o":""},"₵":{"ha":939,"x_min":73,"x_max":814,"o":"m 537 1231 l 614 1231 l 597 1042 q 704 1031 661 1039 q 789 1010 747 1023 l 814 1004 l 798 902 q 778 909 793 903 q 699 935 741 924 q 589 948 656 945 l 511 81 q 530 80 520 80 q 544 80 541 80 q 658 90 604 80 q 752 114 712 100 q 812 141 791 127 l 813 43 l 781 33 q 672 1 724 12 q 539 -11 620 -11 q 503 -9 529 -11 l 483 -240 l 406 -240 l 427 1 q 238 95 318 25 q 116 271 159 164 q 73 511 73 378 q 132 790 73 672 q 293 972 191 908 q 520 1042 395 1037 l 537 1231 m 511 947 q 341 885 414 938 q 227 740 268 833 q 186 519 186 646 q 216 328 186 415 q 301 181 245 241 q 435 96 357 121 l 511 947 z "},"¢":{"ha":810,"x_min":115,"x_max":686,"o":"m 686 63 q 601 14 654 33 q 486 -9 548 -5 l 483 -146 l 405 -146 l 408 -9 q 250 53 316 1 q 150 189 184 105 q 115 375 115 272 q 152 573 115 485 q 261 716 189 662 q 434 782 333 771 l 438 931 l 515 931 l 512 783 q 607 769 565 780 q 668 744 648 758 l 648 654 q 575 686 621 675 q 474 696 530 696 q 350 661 407 696 q 259 555 294 626 q 225 383 225 485 q 258 214 225 283 q 345 110 290 144 q 467 75 400 75 q 579 91 527 75 q 662 128 631 108 l 686 63 z "},"₡":{"ha":896,"x_min":73,"x_max":814,"o":"m 73 511 q 117 758 73 650 q 241 933 162 865 q 421 1027 319 1001 l 435 1231 l 496 1231 l 483 1039 q 545 1043 513 1043 q 604 1042 568 1043 l 617 1231 l 679 1231 l 666 1036 q 727 1025 701 1031 q 785 1011 753 1020 q 814 1004 787 1010 l 798 902 q 780 909 795 903 q 725 928 751 920 q 659 942 699 937 l 602 83 q 728 106 671 89 q 812 141 785 123 l 813 43 l 783 33 q 695 5 736 16 q 596 -9 654 -5 l 581 -240 l 519 -240 l 534 -11 q 414 4 469 -9 l 398 -240 l 337 -240 l 355 23 q 203 129 267 59 q 106 296 140 198 q 73 511 73 393 m 598 948 q 551 949 568 949 q 477 943 511 949 l 420 101 q 541 80 477 80 l 598 948 m 414 925 q 247 780 308 884 q 186 519 186 675 q 232 287 186 389 q 361 131 277 184 l 414 925 z "},"¤":{"ha":1038,"x_min":146,"x_max":894,"o":"m 818 509 q 802 412 818 458 q 756 327 786 366 l 891 191 l 826 126 l 689 264 q 609 224 652 238 q 517 210 565 210 q 429 223 472 210 q 350 261 387 237 l 212 122 l 146 188 l 283 324 q 235 410 252 363 q 218 509 218 457 q 235 608 218 561 q 282 694 252 656 l 146 829 l 211 896 l 349 757 q 428 795 385 782 q 517 808 471 808 q 608 795 564 808 q 689 755 652 781 l 828 894 l 894 829 l 756 691 q 802 606 786 652 q 818 509 818 560 m 518 295 q 622 324 574 295 q 698 402 670 353 q 726 509 726 452 q 698 617 726 568 q 623 695 670 666 q 518 724 575 724 q 414 695 462 724 q 338 617 366 666 q 310 509 310 568 q 338 402 310 452 q 414 324 366 353 q 518 295 462 295 z "},"$":{"ha":937,"x_min":161,"x_max":793,"o":"m 793 261 q 714 70 793 138 q 499 -9 635 1 l 497 -159 l 413 -159 l 414 -9 q 261 13 332 -5 q 161 50 191 31 l 189 144 q 304 99 233 118 q 447 81 376 81 q 619 123 557 81 q 681 248 681 165 q 651 343 681 304 q 573 410 621 382 q 434 479 526 437 q 164 788 164 602 q 203 922 164 868 q 304 1004 241 976 q 443 1040 368 1033 l 446 1188 l 530 1188 l 528 1042 q 657 1024 604 1040 q 741 987 710 1008 l 718 897 q 624 938 676 924 q 496 953 572 953 q 388 936 439 953 q 306 886 337 920 q 274 803 274 852 q 299 708 274 747 q 371 639 325 669 q 503 568 418 609 q 652 487 593 525 q 752 393 711 450 q 793 261 793 337 z "},"₫":{"ha":901,"x_min":77,"x_max":873,"o":"m 347 1031 l 581 1031 l 581 1149 l 693 1149 l 693 1031 l 873 1031 l 873 945 l 693 945 l 693 197 l 614 197 q 602 207 605 197 q 600 224 600 216 l 600 272 q 518 219 567 241 q 389 197 469 197 q 247 231 311 197 q 145 332 183 264 q 106 499 106 400 q 147 686 106 608 q 265 805 188 764 q 450 846 342 846 q 583 833 522 846 l 581 920 l 581 945 l 347 945 l 347 1031 m 581 725 q 540 744 570 736 q 448 753 509 753 q 278 686 328 753 q 227 502 227 619 q 252 382 227 429 q 315 313 277 335 q 395 291 353 291 q 514 308 477 291 q 565 339 552 325 q 581 356 578 353 l 581 725 m 77 102 l 826 102 l 826 0 l 77 0 l 77 102 z "},"€":{"ha":1032,"x_min":81,"x_max":930,"o":"m 930 41 q 896 32 914 39 q 875 24 878 26 q 769 -7 823 5 q 623 -19 714 -19 q 425 27 509 -19 q 290 158 341 73 q 220 357 239 242 l 81 357 l 81 432 l 212 432 q 211 488 211 469 q 219 610 211 553 l 102 610 l 102 684 l 233 684 q 319 874 260 795 q 465 997 378 954 q 660 1043 551 1040 l 683 1044 q 786 1035 745 1044 q 873 1012 827 1027 q 910 1000 903 1002 l 882 909 q 788 944 839 932 q 657 957 736 956 q 523 927 585 957 q 417 835 462 897 q 351 684 372 774 l 749 684 l 749 610 l 339 610 q 334 520 334 571 q 338 432 334 468 l 727 432 l 727 357 l 346 357 q 637 64 393 64 q 786 83 720 64 q 899 127 852 101 l 930 41 z "},"ƒ":{"ha":759,"x_min":149,"x_max":710,"o":"m 149 687 l 153 747 l 305 774 l 311 820 q 411 1065 331 987 q 610 1143 491 1143 q 675 1140 650 1143 q 710 1132 700 1136 l 703 1039 q 667 1048 694 1044 q 596 1052 639 1052 q 481 1004 526 1052 q 425 852 436 957 l 415 774 l 632 774 l 626 687 l 408 687 l 332 -241 l 220 -241 l 298 687 l 149 687 z "},"₣":{"ha":780,"x_min":20,"x_max":739,"o":"m 20 272 l 161 272 l 161 1032 l 739 1032 l 739 943 l 277 943 l 277 563 l 622 563 l 622 474 l 277 474 l 277 272 l 458 272 l 458 180 l 277 180 l 277 0 l 161 0 l 161 180 l 20 180 l 20 272 z "},"₲":{"ha":1008,"x_min":75,"x_max":896,"o":"m 493 1195 l 601 1195 l 601 1042 q 695 1033 656 1039 q 785 1014 733 1026 q 809 1008 793 1012 q 838 1002 825 1004 l 833 899 q 546 953 719 953 q 368 903 448 953 q 241 756 288 853 q 194 522 194 659 q 235 292 194 393 q 355 134 276 191 q 543 77 433 77 q 685 91 618 77 q 785 123 751 105 l 785 418 l 571 426 l 571 509 l 896 509 l 896 62 q 869 57 883 61 q 827 42 854 52 q 718 7 770 21 q 590 -9 665 -6 l 589 -175 l 481 -175 l 483 -7 q 264 77 356 7 q 123 258 172 146 q 75 509 75 370 q 129 782 75 667 q 277 962 182 897 q 493 1040 372 1027 l 493 1195 z "},"₤":{"ha":1013,"x_min":96,"x_max":945,"o":"m 239 132 q 248 145 241 134 q 285 222 271 184 q 300 315 300 261 l 300 404 l 142 404 l 142 475 l 300 475 l 300 589 l 157 589 l 157 661 l 300 661 l 300 717 q 338 886 300 812 q 447 1002 376 960 q 614 1043 518 1043 q 837 979 755 1043 l 783 897 q 708 941 750 925 q 602 957 665 957 q 508 932 551 957 q 439 851 465 908 q 413 702 412 795 l 413 661 l 706 661 l 706 589 l 413 589 l 414 475 l 691 475 l 691 404 l 413 404 q 342 115 408 184 q 405 110 375 115 q 479 93 435 104 q 567 72 528 79 q 652 65 606 65 q 838 222 838 65 q 821 291 838 256 q 777 339 804 326 l 858 380 q 900 342 880 368 q 932 283 920 316 q 945 215 945 250 q 877 45 945 107 q 666 -16 809 -16 q 548 -5 602 -16 q 427 26 494 5 q 356 45 384 39 q 304 52 328 52 q 265 46 281 52 q 216 9 246 24 q 154 -7 185 -7 q 114 6 133 -7 q 96 37 96 18 q 132 101 96 75 q 239 132 168 127 z "},"₺":{"ha":957,"x_min":57,"x_max":882,"o":"m 882 457 q 814 214 882 318 q 629 55 746 111 q 367 0 511 0 l 256 0 l 256 399 l 62 315 l 62 402 l 256 486 l 256 663 l 57 576 l 57 667 l 256 754 l 256 1043 l 367 1043 l 367 803 l 700 949 l 700 857 l 367 711 l 367 534 l 689 675 l 689 588 l 367 448 l 367 92 q 572 134 480 92 q 718 264 663 176 q 772 488 772 353 l 882 488 l 882 457 z "},"₦":{"ha":1232,"x_min":35,"x_max":1213,"o":"m 52 692 l 207 692 l 207 1032 l 313 1032 l 549 692 l 926 692 l 926 1032 l 1032 1032 l 1032 692 l 1213 692 l 1213 616 l 1032 616 l 1032 422 l 1192 422 l 1192 345 l 1032 345 l 1032 0 l 926 0 l 685 345 l 312 345 l 312 0 l 207 0 l 207 345 l 35 345 l 35 422 l 207 422 l 207 616 l 52 616 l 52 692 m 304 895 l 311 692 l 442 692 l 436 701 l 304 895 m 312 422 l 631 422 l 496 616 l 312 616 l 312 422 m 738 422 l 926 422 l 926 616 l 603 616 l 738 422 m 813 313 l 935 134 l 926 345 l 791 345 l 813 313 z "},"₧":{"ha":922,"x_min":7,"x_max":922,"o":"m 7 722 l 140 722 l 140 1032 l 195 1032 q 313 1037 241 1032 q 369 1040 326 1038 q 452 1042 413 1042 q 712 965 620 1042 q 808 722 804 889 l 922 722 l 922 646 l 804 646 q 743 490 792 554 q 611 392 693 425 q 422 357 530 359 q 300 361 382 357 q 254 363 271 363 l 254 0 l 140 0 l 140 646 l 7 646 l 7 722 m 694 722 q 622 905 690 848 q 418 959 554 962 l 397 958 q 340 956 388 958 q 254 948 292 954 l 254 722 l 694 722 m 254 450 q 331 444 283 446 q 415 442 380 442 q 600 492 527 444 q 690 646 673 540 l 254 646 l 254 450 z "},"₱":{"ha":924,"x_min":16,"x_max":922,"o":"m 16 797 l 140 797 l 140 1032 l 195 1032 q 313 1037 241 1032 q 369 1040 326 1038 q 452 1042 413 1042 q 802 797 759 1042 l 922 797 l 922 740 l 808 740 q 809 709 809 720 q 804 641 809 675 l 922 641 l 922 584 l 791 584 q 661 416 756 474 q 422 357 566 358 q 300 361 382 357 q 254 363 271 363 l 254 0 l 140 0 l 140 584 l 16 584 l 16 641 l 140 641 l 140 740 l 16 740 l 16 797 m 685 797 q 599 923 665 884 q 418 959 533 962 l 397 958 q 340 956 388 958 q 254 948 292 954 l 254 797 l 685 797 m 254 740 l 254 641 l 689 641 q 694 708 694 675 q 693 740 694 720 l 254 740 m 254 450 q 331 444 283 446 q 415 442 380 442 q 673 584 617 446 l 254 584 l 254 450 z "},"₹":{"ha":939,"x_min":115,"x_max":899,"o":"m 693 0 q 656 40 677 0 q 598 166 635 80 q 517 338 551 274 q 449 431 484 403 q 271 420 363 420 q 115 428 180 420 l 115 501 q 301 496 158 496 l 366 496 q 489 524 431 496 q 588 600 547 551 q 640 711 628 649 l 115 711 l 115 794 l 645 794 q 612 911 642 869 q 501 955 581 953 l 115 955 l 115 1032 l 899 1032 l 899 955 l 681 955 q 745 794 739 895 l 878 794 l 878 711 l 741 711 q 696 598 730 648 q 616 513 661 547 q 526 460 572 479 q 594 396 563 438 q 650 308 625 355 q 707 186 674 260 q 763 70 741 113 q 810 0 785 27 l 693 0 z "},"₪":{"ha":1094,"x_min":92,"x_max":1002,"o":"m 92 0 l 92 1032 l 529 1032 q 661 1005 615 1032 q 725 917 707 977 q 743 745 743 856 l 743 248 l 642 248 l 642 792 q 607 912 642 869 q 490 955 572 955 l 199 955 l 199 0 l 92 0 m 1002 1032 l 1002 1 l 626 0 q 473 28 532 0 q 387 120 415 57 q 358 288 358 182 l 358 792 l 466 792 l 466 220 q 517 113 466 149 q 678 78 569 78 l 902 78 l 902 1032 l 1002 1032 z "},"£":{"ha":1048,"x_min":96,"x_max":945,"o":"m 858 380 q 900 342 880 368 q 932 283 920 316 q 945 215 945 250 q 877 45 945 107 q 666 -16 809 -16 q 548 -5 602 -16 q 427 26 494 5 q 356 45 384 39 q 304 52 328 52 q 265 46 281 52 q 216 9 246 24 q 154 -7 185 -7 q 114 6 133 -7 q 96 37 96 18 q 132 101 96 75 q 239 132 168 127 q 248 145 241 134 q 285 222 271 184 q 300 315 300 261 l 300 518 l 176 518 l 176 597 l 300 597 l 300 717 q 338 886 300 812 q 447 1002 376 960 q 614 1043 518 1043 q 837 979 755 1043 l 783 897 q 708 941 750 925 q 602 957 665 957 q 508 932 551 957 q 439 851 465 908 q 413 702 412 795 l 413 597 l 674 597 l 674 518 l 414 518 l 414 447 q 342 115 416 191 q 405 110 375 115 q 479 93 435 104 q 567 72 528 79 q 652 65 606 65 q 838 222 838 65 q 821 291 838 256 q 777 339 804 326 l 858 380 z "},"₩":{"ha":1359,"x_min":30,"x_max":1329,"o":"m 1329 313 l 1120 313 l 1040 -11 l 931 -11 l 836 313 l 528 313 l 433 -11 l 334 -11 l 249 313 l 30 313 l 30 388 l 229 388 l 178 583 l 30 583 l 30 657 l 159 657 l 60 1032 l 172 1032 l 264 657 l 528 657 l 640 1032 l 724 1032 l 836 657 l 1102 657 l 1190 1032 l 1299 1032 l 1206 657 l 1329 657 l 1329 583 l 1187 583 l 1139 388 l 1329 388 l 1329 313 m 627 657 l 735 657 l 713 732 l 682 876 l 650 732 l 627 657 m 331 388 l 449 388 l 507 583 l 283 583 l 331 388 m 549 388 l 814 388 l 757 583 l 606 583 l 549 388 m 917 388 l 1038 388 l 1084 583 l 859 583 l 917 388 m 387 123 l 430 313 l 348 313 l 387 123 m 986 124 l 1023 313 l 938 313 l 986 124 z "},"¥":{"ha":1046,"x_min":127,"x_max":920,"o":"m 597 542 l 844 542 l 844 467 l 580 467 l 580 293 l 844 293 l 844 218 l 580 218 l 580 0 l 467 0 l 467 218 l 192 218 l 192 293 l 467 293 l 467 467 l 192 467 l 192 542 l 446 542 l 127 1032 l 251 1032 l 475 670 l 524 576 l 571 673 l 799 1032 l 920 1032 l 597 542 z "},"Ω":{"ha":1231,"x_min":136,"x_max":1100,"o":"m 1100 80 l 1100 0 l 720 0 l 719 77 q 838 190 783 116 q 927 365 893 263 q 961 585 961 467 q 911 799 961 714 q 781 924 861 884 q 612 964 702 964 q 433 922 515 964 q 301 795 351 880 q 252 585 252 710 q 289 369 252 471 q 385 192 327 267 q 504 77 443 117 l 504 0 l 144 0 l 144 80 l 382 80 q 262 208 319 128 q 171 387 205 287 q 136 589 136 486 q 204 842 137 738 q 380 997 272 945 q 612 1048 488 1048 q 850 994 745 1048 q 1016 837 956 941 q 1076 589 1076 734 q 1045 386 1076 484 q 960 209 1014 288 q 840 80 907 130 l 1100 80 z "},"≈":{"ha":967,"x_min":146,"x_max":820,"o":"m 146 287 q 189 348 159 316 q 262 400 219 379 q 355 422 305 422 q 413 413 387 422 q 458 392 439 404 q 503 358 477 379 q 561 318 536 331 q 617 305 585 305 q 766 390 706 305 l 820 338 q 777 275 806 305 q 705 227 748 245 q 611 208 663 208 q 553 217 578 208 q 509 238 528 226 q 465 272 490 251 q 408 312 431 299 q 351 326 384 326 q 268 302 303 326 q 206 240 233 279 l 146 287 m 146 596 q 189 657 159 625 q 262 710 219 688 q 355 731 305 731 q 413 722 387 731 q 458 701 439 713 q 503 667 477 688 q 561 627 536 640 q 617 614 585 614 q 766 699 706 614 l 820 648 q 777 585 806 614 q 705 536 748 555 q 611 517 663 517 q 553 526 578 517 q 509 548 528 535 q 465 581 490 560 q 408 622 431 608 q 351 635 384 635 q 268 611 303 635 q 206 549 233 588 l 146 596 z "},"~":{"ha":975,"x_min":151,"x_max":824,"o":"m 151 526 q 193 587 163 555 q 266 640 223 618 q 359 661 309 661 q 417 652 391 661 q 463 631 444 644 q 507 597 481 618 q 565 557 541 570 q 621 545 589 545 q 770 629 710 545 l 824 578 q 781 515 810 545 q 709 466 752 485 q 615 448 667 448 q 557 456 583 448 q 513 478 532 465 q 469 511 494 490 q 412 552 435 538 q 355 565 388 565 q 272 542 307 565 q 210 479 237 518 l 151 526 z "},"∙":{"ha":444,"x_min":124,"x_max":319,"o":"m 124 489 q 139 543 124 518 q 177 582 153 568 q 227 597 201 597 q 295 568 271 597 q 319 494 319 538 q 305 440 319 465 q 267 402 291 416 q 216 388 243 388 q 170 401 191 388 q 137 437 149 414 q 124 489 124 460 z "},"÷":{"ha":945,"x_min":157,"x_max":787,"o":"m 398 793 q 410 839 398 819 q 441 870 422 859 q 482 881 460 881 q 537 860 518 881 q 555 804 555 839 q 544 759 555 779 q 512 728 532 739 q 471 718 493 718 q 419 738 439 718 q 398 793 398 758 m 787 569 l 787 481 l 157 481 l 157 569 l 787 569 m 397 253 q 409 297 397 277 q 440 329 421 317 q 481 340 460 340 q 536 319 517 340 q 555 264 555 298 q 530 201 555 225 q 470 177 505 177 q 418 197 439 177 q 397 253 397 218 z "},"∕":{"ha":579,"x_min":-23,"x_max":602,"o":"m 602 1084 l 77 -246 l -23 -246 l 503 1084 l 602 1084 z "},"=":{"ha":947,"x_min":163,"x_max":784,"o":"m 784 755 l 784 669 l 163 669 l 163 755 l 784 755 m 784 376 l 784 290 l 163 290 l 163 376 l 784 376 z "},">":{"ha":928,"x_min":159,"x_max":812,"o":"m 812 566 l 812 483 l 159 172 l 159 280 l 694 524 l 159 771 l 159 877 l 812 566 z "},"≥":{"ha":928,"x_min":156,"x_max":810,"o":"m 810 566 l 810 482 l 156 178 l 156 283 l 697 524 l 156 765 l 156 869 l 810 566 m 156 84 l 810 84 l 810 0 l 156 0 l 156 84 z "},"∆":{"ha":1069,"x_min":37,"x_max":1031,"o":"m 504 1023 l 524 1023 l 1031 17 l 1021 0 l 46 0 l 37 14 l 504 1023 m 518 827 l 184 90 l 878 90 l 518 827 z "},"∞":{"ha":1249,"x_min":70,"x_max":1179,"o":"m 906 681 q 1058 646 996 682 q 1149 553 1120 610 q 1179 429 1179 495 q 1146 283 1179 345 q 1049 189 1113 222 q 898 155 986 155 q 786 180 836 155 q 700 243 736 205 q 626 336 663 282 q 503 208 574 259 q 346 156 431 157 q 198 189 261 155 q 103 282 136 224 q 70 408 70 340 q 106 556 70 494 q 205 649 142 618 q 347 681 269 681 q 506 631 441 681 q 629 496 571 581 q 751 627 680 574 q 906 681 823 680 m 357 235 q 577 410 468 235 q 514 503 543 465 q 444 569 484 541 q 357 596 404 596 q 256 571 298 596 q 193 504 214 546 q 172 413 172 462 q 192 325 172 366 q 253 260 211 285 q 357 235 294 235 m 916 234 q 1006 261 970 234 q 1060 331 1042 288 q 1077 420 1077 374 q 1057 506 1077 465 q 996 571 1038 546 q 894 596 955 596 q 778 547 831 596 q 679 420 725 498 q 787 287 730 339 q 916 234 844 234 z "},"∫":{"ha":707,"x_min":68,"x_max":657,"o":"m 112 -195 q 173 -243 132 -220 q 272 -267 213 -267 q 409 -211 361 -267 q 458 -22 458 -155 q 438 107 458 41 q 391 236 419 174 q 315 389 363 297 q 237 547 267 484 q 188 682 208 611 q 168 819 168 752 q 201 988 168 915 q 298 1101 233 1061 q 456 1142 363 1142 q 575 1121 522 1142 q 657 1053 629 1099 l 598 994 q 546 1038 584 1019 q 454 1057 509 1057 q 318 994 363 1057 q 273 819 273 930 q 292 690 273 756 q 339 563 311 624 q 414 411 367 501 q 491 253 462 317 q 541 118 521 189 q 561 -21 561 47 q 494 -262 561 -172 q 286 -351 427 -351 q 157 -327 218 -351 q 68 -264 96 -303 l 112 -195 z "},"<":{"ha":928,"x_min":116,"x_max":768,"o":"m 768 771 l 233 524 l 768 280 l 768 172 l 116 483 l 116 566 l 768 877 l 768 771 z "},"≤":{"ha":928,"x_min":117,"x_max":772,"o":"m 772 765 l 231 524 l 772 283 l 772 178 l 117 482 l 117 566 l 772 869 l 772 765 m 117 84 l 772 84 l 772 0 l 117 0 l 117 84 z "},"¬":{"ha":997,"x_min":159,"x_max":831,"o":"m 831 578 l 831 219 l 728 219 l 728 492 l 159 492 l 159 578 l 831 578 z "},"µ":{"ha":922,"x_min":146,"x_max":850,"o":"m 850 59 q 824 31 844 47 q 777 3 804 15 q 721 -9 749 -9 q 648 94 644 -9 q 428 -11 545 -11 q 314 8 362 -11 q 236 77 267 28 l 252 -252 l 146 -252 l 146 773 l 259 773 l 259 260 q 304 123 259 168 q 437 78 349 79 q 543 104 489 78 q 633 159 596 131 l 633 773 l 745 773 l 745 155 q 752 97 745 112 q 773 82 758 82 q 800 89 784 82 q 834 111 816 95 l 850 59 z "},"−":{"ha":916,"x_min":168,"x_max":748,"o":"m 748 570 l 748 478 l 168 478 l 168 570 l 748 570 z "},"×":{"ha":929,"x_min":170,"x_max":760,"o":"m 170 764 l 237 830 l 465 585 l 693 830 l 760 764 l 524 525 l 760 288 l 693 221 l 465 461 l 237 221 l 170 288 l 406 523 l 170 764 z "},"≠":{"ha":947,"x_min":163,"x_max":784,"o":"m 574 669 l 468 376 l 784 376 l 784 290 l 435 290 l 378 138 l 289 138 l 346 290 l 163 290 l 163 376 l 378 376 l 484 669 l 163 669 l 163 755 l 517 755 l 569 895 l 659 895 l 606 755 l 784 755 l 784 669 l 574 669 z "},"∂":{"ha":926,"x_min":111,"x_max":827,"o":"m 827 557 q 791 269 827 398 q 671 60 755 140 q 447 -20 586 -20 q 280 19 355 -20 q 161 130 205 58 q 111 296 117 201 q 111 326 111 307 q 165 529 111 442 q 313 662 220 616 q 519 707 406 707 q 717 674 629 707 q 615 952 701 848 q 355 1057 530 1057 q 248 1043 301 1057 q 163 1008 195 1029 l 125 1073 q 240 1124 170 1106 q 376 1142 311 1142 q 634 1064 534 1142 q 779 860 734 985 q 827 584 825 734 l 827 557 m 456 64 q 666 212 610 64 q 721 553 721 360 l 721 587 q 625 619 675 610 q 511 628 574 628 q 372 595 439 628 q 262 496 305 562 q 220 336 220 430 q 220 314 220 321 q 287 130 227 197 q 456 64 346 63 z "},"%":{"ha":1318,"x_min":58,"x_max":1260,"o":"m 929 1038 l 483 0 l 385 0 l 831 1038 l 929 1038 m 58 734 q 94 884 58 821 q 190 979 130 947 q 319 1012 250 1012 q 447 976 395 1012 q 522 879 498 940 q 547 740 547 817 q 511 592 547 654 q 415 497 475 530 q 288 465 356 465 q 165 502 217 465 q 85 600 113 538 q 58 734 58 661 m 446 736 q 410 881 446 827 q 308 936 374 936 q 230 912 264 936 q 177 843 196 888 q 159 739 159 799 q 175 638 159 683 q 224 567 192 593 q 298 541 256 541 q 375 565 342 541 q 427 632 408 588 q 446 736 446 676 m 772 307 q 808 456 772 393 q 905 552 844 519 q 1035 584 965 584 q 1161 548 1111 584 q 1236 451 1212 512 q 1260 313 1260 390 q 1224 165 1260 227 q 1129 70 1188 102 q 1000 38 1069 38 q 879 75 930 38 q 799 173 827 111 q 772 307 772 234 m 1159 309 q 1123 454 1159 399 q 1022 509 1088 509 q 944 485 977 509 q 891 416 910 460 q 873 311 873 371 q 889 210 873 255 q 938 140 906 165 q 1012 114 969 114 q 1089 137 1056 114 q 1141 205 1122 161 q 1159 309 1159 249 z "},"‰":{"ha":1876,"x_min":58,"x_max":1819,"o":"m 929 1038 l 483 0 l 385 0 l 831 1038 l 929 1038 m 58 734 q 94 884 58 821 q 190 979 130 947 q 319 1012 250 1012 q 447 976 395 1012 q 522 879 498 940 q 547 740 547 817 q 511 592 547 654 q 415 497 475 530 q 288 465 356 465 q 165 502 217 465 q 85 600 113 538 q 58 734 58 661 m 446 736 q 410 881 446 827 q 308 936 374 936 q 230 912 264 936 q 177 843 196 888 q 159 739 159 799 q 175 638 159 683 q 224 567 192 593 q 298 541 256 541 q 375 565 342 541 q 427 632 408 588 q 446 736 446 676 m 772 307 q 808 456 772 393 q 905 552 844 519 q 1035 584 965 584 q 1161 548 1111 584 q 1236 451 1212 512 q 1260 313 1260 390 q 1224 165 1260 227 q 1129 70 1188 102 q 1000 38 1069 38 q 879 75 930 38 q 799 173 827 111 q 772 307 772 234 m 1330 307 q 1367 456 1330 393 q 1463 552 1403 519 q 1594 584 1523 584 q 1719 548 1669 584 q 1794 451 1770 512 q 1819 313 1819 390 q 1783 164 1819 227 q 1687 70 1747 102 q 1558 38 1628 38 q 1437 75 1489 38 q 1357 173 1385 111 q 1330 307 1330 234 m 1159 309 q 1123 454 1159 399 q 1022 509 1088 509 q 944 485 977 509 q 891 416 910 460 q 873 311 873 371 q 889 210 873 255 q 938 140 906 165 q 1012 114 969 114 q 1089 137 1056 114 q 1141 205 1122 161 q 1159 309 1159 249 m 1718 309 q 1682 454 1718 399 q 1580 509 1647 509 q 1502 485 1535 509 q 1450 416 1468 460 q 1432 311 1432 371 q 1448 210 1432 255 q 1496 140 1465 165 q 1570 114 1527 114 q 1648 137 1614 114 q 1699 204 1681 160 q 1718 309 1718 248 z "},"+":{"ha":945,"x_min":157,"x_max":787,"o":"m 429 482 l 318 479 l 157 479 l 157 570 l 318 570 l 429 564 l 425 680 l 425 846 l 517 846 l 517 680 l 513 564 l 614 570 l 787 570 l 787 479 l 614 479 l 513 482 l 517 366 l 517 195 l 425 195 l 425 366 l 429 482 z "},"±":{"ha":945,"x_min":157,"x_max":787,"o":"m 429 482 l 318 479 l 157 479 l 157 570 l 318 570 l 429 564 l 425 680 l 425 846 l 517 846 l 517 680 l 513 564 l 614 570 l 787 570 l 787 479 l 614 479 l 513 482 l 517 366 l 517 195 l 425 195 l 425 366 l 429 482 m 774 85 l 774 0 l 170 0 l 170 85 l 774 85 z "},"∏":{"ha":1105,"x_min":88,"x_max":1017,"o":"m 1017 947 l 875 947 l 875 -116 l 760 -116 l 760 946 l 345 946 l 345 -116 l 230 -116 l 230 947 l 88 947 l 88 1032 l 1017 1032 l 1017 947 z "},"√":{"ha":1086,"x_min":66,"x_max":1065,"o":"m 1065 1268 l 581 -240 l 488 -240 l 212 384 l 115 324 l 66 406 l 193 484 l 292 484 l 530 -91 l 954 1268 l 1065 1268 z "},"∑":{"ha":1023,"x_min":136,"x_max":864,"o":"m 864 -35 l 864 -116 l 149 -115 l 136 -87 l 524 461 l 136 989 l 152 1032 l 855 1032 l 855 947 l 286 947 l 643 464 l 294 -35 l 864 -35 z "},"◊":{"ha":843,"x_min":57,"x_max":786,"o":"m 423 1028 l 786 526 l 786 517 l 423 0 l 420 0 l 57 517 l 57 526 l 420 1028 l 423 1028 m 169 519 l 420 152 l 422 152 l 673 521 l 673 524 l 422 879 l 420 879 l 169 524 l 169 519 z "},"|":{"ha":571,"x_min":233,"x_max":338,"o":"m 338 1207 l 338 -127 l 233 -127 l 233 1207 l 338 1207 z "},"¦":{"ha":571,"x_min":233,"x_max":338,"o":"m 338 1207 l 338 642 l 233 642 l 233 1207 l 338 1207 m 338 437 l 338 -126 l 233 -126 l 233 437 l 338 437 z "}}}
